<?xml version="1.0" encoding="UTF-8"?><svg id="aktiv-grotesk-extended-preview" xmlns="http://www.w3.org/2000/svg" viewBox="0 0 1928 1080"><defs><style>.cls-1{fill:#fff;}.cls-2{fill:#253551;}</style></defs><rect class="cls-2" x=".5" y=".5" width="1927" height="1079"/><path d="M1927,1v1078H1V1h1926M1928,0H0v1080h1928V0h0Z"/><path class="cls-1" d="M167.6,592.55l-15.51-32.5h-64.52l-15.34,32.5h-17.49l57.09-117.81h16.83l57.09,117.81h-18.15ZM119.91,492.23l-26.07,54.28h52.14l-26.07-54.28Z"/><path class="cls-1" d="M296.96,592.55l-50.98-63.69-25.41,20.46v43.23h-16.33v-117.81h16.33v58.08l70.29-58.08h20.79l-53.46,44.71,58.74,73.09h-19.97Z"/><path class="cls-1" d="M371.04,592.55v-103.46h-48.84v-14.35h114.01v14.35h-48.84v103.46h-16.33Z"/><path class="cls-1" d="M454.36,592.55v-117.81h16.33v117.81h-16.33Z"/><path class="cls-1" d="M541.48,592.55l-53.96-117.81h18.98l44.05,100.32,44.05-100.32h18.32l-53.96,117.81h-17.49Z"/><path class="cls-1" d="M777.43,545.69h-38.77v-14.03h54.12v47.52c-6.6,5.06-14.82,9.05-24.67,11.96-9.85,2.91-20.05,4.37-30.61,4.37-13.31,0-24.94-2.42-34.9-7.26-9.96-4.84-17.66-11.88-23.1-21.12-5.44-9.24-8.17-20.24-8.17-33s2.58-23.18,7.75-32.59c5.17-9.41,12.62-16.72,22.36-21.95,9.74-5.22,21.26-7.84,34.57-7.84s25.25,2.89,34.49,8.66,15.73,14.16,19.47,25.16l-16.17,2.81c-2.97-7.48-7.62-13.04-13.94-16.67-6.33-3.63-14.44-5.45-24.34-5.45-14.74,0-26.29,4.21-34.65,12.62-8.36,8.42-12.54,20.1-12.54,35.06s4.34,26.4,13.04,34.65c8.69,8.25,20.84,12.38,36.46,12.38s29.04-2.86,39.6-8.58v-26.73Z"/><path class="cls-1" d="M907.12,592.55l-27.22-47.68c-1.21.11-3.79.17-7.76.17h-36.96v47.52h-16v-117.81h54.94c30.36,0,45.54,11.77,45.54,35.31,0,16.06-7.76,26.57-23.27,31.52l29.54,50.98h-18.81ZM872.63,530.68c20.02,0,30.03-6.98,30.03-20.96,0-7.37-2.37-12.65-7.09-15.84-4.73-3.19-12.27-4.79-22.61-4.79h-37.79v41.58h37.46Z"/><path class="cls-1" d="M1067.83,533.65c0,12.21-2.64,22.96-7.92,32.26-5.28,9.3-12.9,16.56-22.85,21.78-9.96,5.22-21.64,7.84-35.06,7.84s-24.42-2.45-34.32-7.34-17.63-12.02-23.18-21.37c-5.56-9.35-8.33-20.4-8.33-33.16s2.64-22.96,7.92-32.26c5.28-9.29,12.9-16.55,22.85-21.78,9.95-5.22,21.64-7.84,35.06-7.84s24.42,2.45,34.32,7.34c9.9,4.9,17.63,12.02,23.18,21.37,5.55,9.35,8.33,20.41,8.33,33.17ZM1050.83,533.65c0-14.96-4.29-26.59-12.87-34.9-8.58-8.3-20.57-12.46-35.97-12.46s-27.25,4.18-35.89,12.54c-8.64,8.36-12.95,19.96-12.95,34.82s4.29,26.59,12.87,34.9c8.58,8.31,20.57,12.46,35.97,12.46s27.25-4.18,35.89-12.54c8.63-8.36,12.95-19.96,12.95-34.81Z"/><path class="cls-1" d="M1121.95,592.55v-103.46h-48.84v-14.35h114.02v14.35h-48.84v103.46h-16.33Z"/><path class="cls-1" d="M1205.27,592.55v-117.81h93.72v14.35h-77.38v35.48h73.59v14.35h-73.59v39.27h80.85l-2.81,14.35h-94.38Z"/><path class="cls-1" d="M1411.19,505.27c-2.75-6.82-6.96-11.71-12.62-14.68-5.67-2.97-13.61-4.46-23.84-4.46-11.66,0-20.65,1.54-26.98,4.62-6.33,3.08-9.49,7.48-9.49,13.2,0,3.85.96,7.01,2.89,9.49,1.92,2.47,4.95,4.48,9.08,6.02,4.12,1.54,9.65,2.8,16.58,3.79l22.77,3.3c13.64,2.09,23.73,5.97,30.28,11.63,6.54,5.67,9.82,13.39,9.82,23.18,0,10.78-4.62,19.17-13.86,25.16-9.24,6-22.11,8.99-38.61,8.99-18.26,0-32.23-3.08-41.91-9.24-9.68-6.16-15.24-15.51-16.67-28.05h16.83c1.54,7.81,5.72,13.59,12.54,17.32,6.82,3.74,16.55,5.61,29.21,5.61,11.44,0,20.24-1.73,26.4-5.2,6.16-3.46,9.24-8.39,9.24-14.77,0-5.39-2.09-9.62-6.27-12.71-4.18-3.08-11-5.33-20.46-6.76l-20.46-2.97c-11-1.65-19.66-3.9-25.99-6.76-6.33-2.86-10.89-6.52-13.69-10.97-2.81-4.46-4.21-9.98-4.21-16.58,0-10.23,4.67-18.23,14.03-24.01,9.35-5.78,22.33-8.66,38.94-8.66,10.23,0,18.78,1.07,25.66,3.22,6.87,2.15,12.46,5.47,16.75,9.98,4.29,4.51,7.53,10.34,9.74,17.49l-15.67,2.8Z"/><path class="cls-1" d="M1547.81,592.55l-50.99-63.69-25.41,20.46v43.23h-16.33v-117.81h16.33v58.08l70.29-58.08h20.79l-53.46,44.71,58.74,73.09h-19.96Z"/><path class="cls-1" d="M1632.78,592.55v-117.81h93.72v14.35h-77.38v35.48h73.59v14.35h-73.59v39.27h80.85l-2.81,14.35h-94.38Z"/><path class="cls-1" d="M1844.8,592.55l-42.9-51.4-42.4,51.4h-18.98l50.99-61.3-47.19-56.51h20.46l37.46,45.79,38.61-45.79h18.97l-47.02,55.52,52.47,62.29h-20.46Z"/></svg>
