<?xml version="1.0" encoding="UTF-8"?><svg id="Layer_1" xmlns="http://www.w3.org/2000/svg" viewBox="0 0 1928 1080"><defs><style>.cls-1{fill:#fff;}.cls-2{fill:#253551;}</style></defs><rect class="cls-2" x=".5" y=".5" width="1927" height="1079"/><path d="M1927,1v1078H1V1h1926M1928,0H0v1080h1928V0h0Z"/><path class="cls-1" d="M189.14,449.44c7.16,1.5,14.33,4.09,21.5,7.75,1.16.67,1.83,1.25,2,1.75.16.5.41,1.75.75,3.75l3,29.75c0,.5-.46.79-1.38.88-.92.09-1.46-.12-1.62-.62-7.67-27.83-24.84-41.75-51.5-41.75-14,0-26.38,3.09-37.12,9.25-10.75,6.17-19.04,14.96-24.88,26.38-5.84,11.42-8.75,24.71-8.75,39.88s3.25,27.79,9.75,39.88c6.5,12.09,15.21,21.62,26.12,28.62,10.91,7,22.79,10.5,35.62,10.5,13.66,0,24.75-3.33,33.25-10,8.5-6.66,15-16.83,19.5-30.5,0-.33.41-.5,1.25-.5,1.16,0,1.75.25,1.75.75l-2.5,27.5c-.17,2-.42,3.25-.75,3.75-.34.5-1,1.09-2,1.75-8.67,4.17-16.79,7.09-24.38,8.75-7.59,1.66-16.29,2.5-26.12,2.5-17.5,0-33.12-3.46-46.88-10.38-13.75-6.91-24.46-16.62-32.12-29.12-7.67-12.5-11.5-26.83-11.5-43s3.91-29.54,11.75-41.62c7.83-12.08,18.62-21.46,32.38-28.12,13.75-6.66,29.21-10,46.38-10,10.5,0,19.33.75,26.5,2.25Z"/><path class="cls-1" d="M263.51,602.31c-7.42-4.75-13.12-11.16-17.12-19.25-4-8.08-6-16.88-6-26.38,0-10.83,2.62-20.04,7.88-27.62,5.25-7.58,12-13.25,20.25-17s16.62-5.62,25.12-5.62c9.83,0,18.41,2.42,25.75,7.25,7.33,4.84,12.96,11.21,16.88,19.12,3.91,7.92,5.88,16.29,5.88,25.12,0,10.34-2.42,19.38-7.25,27.12-4.84,7.75-11.29,13.75-19.38,18-8.09,4.25-16.88,6.38-26.38,6.38s-18.21-2.38-25.62-7.12ZM317.64,594.94c5-6.5,7.5-16.5,7.5-30,0-10.33-1.71-19.58-5.12-27.75-3.42-8.16-8.12-14.54-14.12-19.12-6-4.58-12.84-6.88-20.5-6.88-9,0-15.96,3.25-20.88,9.75-4.92,6.5-7.38,15.84-7.38,28,0,10.17,1.66,19.5,5,28,3.33,8.5,8,15.25,14,20.25s12.75,7.5,20.25,7.5c9.16,0,16.25-3.25,21.25-9.75Z"/><path class="cls-1" d="M361.63,604.69c0-1,.25-1.5.75-1.5,4.5,0,7.83-.46,10-1.38,2.16-.91,3.62-2.54,4.38-4.88.75-2.33,1.12-6,1.12-11v-49.5c0-5.66-.67-9.75-2-12.25-1.34-2.5-3.59-3.75-6.75-3.75-2.67,0-7.17,1.25-13.5,3.75h-.5c-.67,0-1.12-.38-1.38-1.12s-.04-1.29.62-1.62l29-13.75c.33-.16.83-.25,1.5-.25,1.5,0,3.08,1.92,4.75,5.75,1.66,3.84,2.5,8.75,2.5,14.75v58c0,5,.62,8.67,1.88,11,1.25,2.34,3.54,3.96,6.88,4.88,3.33.92,8.5,1.38,15.5,1.38.66,0,1,.5,1,1.5s-.34,1.5-1,1.5c-5.34,0-9.59-.08-12.75-.25l-18.5-.25-13.75.25c-2.17.17-5.17.25-9,.25-.5,0-.75-.5-.75-1.5ZM406.38,513.31c4.83-3.91,9.33-5.88,13.5-5.88,3.66,0,7.16,1,10.5,3,3.33,2,5,4.42,5,7.25,0,2.17-.75,4-2.25,5.5s-3.5,2.25-6,2.25c-1.5,0-2.79-.29-3.88-.88-1.09-.58-2.38-1.46-3.88-2.62-1.5-1.33-2.92-2.33-4.25-3-1.34-.66-2.92-1-4.75-1-2.5,0-5.25,1.25-8.25,3.75s-8.09,8.09-15.25,16.75l-1-2.75c8.83-11,15.66-18.46,20.5-22.38Z"/><path class="cls-1" d="M452.63,604.69c0-1,.25-1.5.75-1.5,4.5,0,7.83-.46,10-1.38,2.16-.91,3.62-2.54,4.38-4.88.75-2.33,1.12-6,1.12-11v-49.5c0-5.66-.67-9.75-2-12.25-1.34-2.5-3.59-3.75-6.75-3.75-2.67,0-7.17,1.25-13.5,3.75h-.5c-.67,0-1.12-.38-1.38-1.12s-.04-1.29.62-1.62l29-13.75c.33-.16.83-.25,1.5-.25,1.5,0,3.08,1.92,4.75,5.75,1.66,3.84,2.5,8.75,2.5,14.75v58c0,5,.38,8.67,1.12,11,.75,2.34,2.21,3.96,4.38,4.88,2.16.92,5.5,1.38,10,1.38.5,0,.75.5.75,1.5s-.25,1.5-.75,1.5c-3.84,0-6.84-.08-9-.25l-13.5-.25-13.75.25c-2.17.17-5.17.25-9,.25-.5,0-.75-.5-.75-1.5ZM516.88,604.69c0-1,.25-1.5.75-1.5,4.5,0,7.83-.46,10-1.38,2.16-.91,3.62-2.54,4.38-4.88.75-2.33,1.12-6,1.12-11v-39.75c0-9.83-1.75-17.16-5.25-22-3.5-4.83-8.84-7.25-16-7.25-6,0-12,1.96-18,5.88-6,3.92-11.17,9.21-15.5,15.88l-1-3c7-9.83,13.96-17.04,20.88-21.62,6.91-4.58,14.12-6.88,21.62-6.88,8.83,0,15.62,2.5,20.38,7.5s7.12,12.42,7.12,22.25v49c0,5,.41,8.67,1.25,11,.83,2.34,2.33,3.96,4.5,4.88,2.16.92,5.5,1.38,10,1.38.5,0,.75.5.75,1.5s-.25,1.5-.75,1.5c-3.84,0-6.92-.08-9.25-.25l-13.5-.25-13.75.25c-2.17.17-5.17.25-9,.25-.5,0-.75-.5-.75-1.5ZM581.38,604.69c0-1,.25-1.5.75-1.5,4.5,0,7.83-.46,10-1.38,2.16-.91,3.66-2.58,4.5-5,.83-2.41,1.25-6.04,1.25-10.88v-39.75c0-9.83-1.75-17.16-5.25-22-3.5-4.83-8.92-7.25-16.25-7.25-5.84,0-11.79,1.96-17.88,5.88-6.09,3.92-11.29,9.21-15.62,15.88l-1-3c7-9.83,13.96-17.04,20.88-21.62,6.91-4.58,14.21-6.88,21.88-6.88,8.83,0,15.58,2.5,20.25,7.5,4.66,5,7,12.59,7,22.75v48.5c0,5,.41,8.67,1.25,11,.83,2.34,2.33,3.96,4.5,4.88,2.16.92,5.5,1.38,10,1.38.5,0,.75.5.75,1.5s-.25,1.5-.75,1.5c-3.84,0-6.92-.08-9.25-.25l-13.5-.25-13.5.25c-2.34.17-5.42.25-9.25.25-.5,0-.75-.5-.75-1.5Z"/><path class="cls-1" d="M665,602.31c-7.42-4.75-13.12-11.16-17.12-19.25-4-8.08-6-16.88-6-26.38,0-10.83,2.62-20.04,7.88-27.62,5.25-7.58,12-13.25,20.25-17s16.62-5.62,25.12-5.62c9.83,0,18.41,2.42,25.75,7.25,7.33,4.84,12.96,11.21,16.88,19.12,3.91,7.92,5.88,16.29,5.88,25.12,0,10.34-2.42,19.38-7.25,27.12-4.84,7.75-11.29,13.75-19.38,18-8.09,4.25-16.88,6.38-26.38,6.38s-18.21-2.38-25.62-7.12ZM719.13,594.94c5-6.5,7.5-16.5,7.5-30,0-10.33-1.71-19.58-5.12-27.75-3.42-8.16-8.12-14.54-14.12-19.12-6-4.58-12.84-6.88-20.5-6.88-9,0-15.96,3.25-20.88,9.75-4.92,6.5-7.38,15.84-7.38,28,0,10.17,1.66,19.5,5,28,3.33,8.5,8,15.25,14,20.25s12.75,7.5,20.25,7.5c9.16,0,16.25-3.25,21.25-9.75Z"/><path class="cls-1" d="M763.13,604.69c0-1,.25-1.5.75-1.5,4.5,0,7.83-.46,10-1.38,2.16-.91,3.62-2.54,4.38-4.88.75-2.33,1.12-6,1.12-11v-49.5c0-5.66-.67-9.75-2-12.25-1.34-2.5-3.59-3.75-6.75-3.75-2.67,0-7.17,1.25-13.5,3.75h-.5c-.67,0-1.12-.38-1.38-1.12s-.04-1.29.62-1.62l29-13.75c.33-.16.83-.25,1.5-.25,1.5,0,3.08,1.92,4.75,5.75,1.66,3.84,2.5,8.75,2.5,14.75v58c0,5,.62,8.67,1.88,11,1.25,2.34,3.54,3.96,6.88,4.88,3.33.92,8.5,1.38,15.5,1.38.66,0,1,.5,1,1.5s-.34,1.5-1,1.5c-5.34,0-9.59-.08-12.75-.25l-18.5-.25-13.75.25c-2.17.17-5.17.25-9,.25-.5,0-.75-.5-.75-1.5ZM807.88,513.31c4.83-3.91,9.33-5.88,13.5-5.88,3.66,0,7.16,1,10.5,3,3.33,2,5,4.42,5,7.25,0,2.17-.75,4-2.25,5.5s-3.5,2.25-6,2.25c-1.5,0-2.79-.29-3.88-.88-1.09-.58-2.38-1.46-3.88-2.62-1.5-1.33-2.92-2.33-4.25-3-1.34-.66-2.92-1-4.75-1-2.5,0-5.25,1.25-8.25,3.75s-8.09,8.09-15.25,16.75l-1-2.75c8.83-11,15.66-18.46,20.5-22.38Z"/><path class="cls-1" d="M860,597.44c-6.92-7.5-10.38-18-10.38-31.5,0-12,2.83-22.5,8.5-31.5,5.66-9,12.79-15.91,21.38-20.75,8.58-4.83,17.21-7.25,25.88-7.25,5.83,0,11.41,1.09,16.75,3.25,5.33,2.17,9.66,5.17,13,9l-10,14c0-6.16-2.67-11.25-8-15.25-5.34-4-11.34-6-18-6-9.84,0-17.79,4.38-23.88,13.12-6.09,8.75-9.12,20.12-9.12,34.12,0,12.5,2.54,22.59,7.62,30.25,5.08,7.67,11.88,11.5,20.38,11.5,6.33,0,12.29-1.96,17.88-5.88,5.58-3.91,11.29-8.96,17.12-15.12l2,1.75c-7.34,8.34-14.54,15-21.62,20-7.09,5-15.04,7.5-23.88,7.5-10.17,0-18.71-3.75-25.62-11.25ZM927.38,601.94c-1.5-4.33-2.25-9.58-2.25-15.75v-70.25c3.33-1.33,5.75-2.5,7.25-3.5s2.91-2.66,4.25-5c.16-.33.58-.38,1.25-.12.66.25,1,.54,1,.88v71.25c0,5.67.66,9.71,2,12.12,1.33,2.42,3.58,3.62,6.75,3.62,2.83,0,7.25-1.16,13.25-3.5h.5c.66,0,1.12.38,1.38,1.12s.04,1.21-.62,1.38l-29,14c-.34.16-.75.25-1.25.25-1.5,0-3-2.17-4.5-6.5Z"/><path class="cls-1" d="M973.62,604.69c0-1,.25-1.5.75-1.5,4.5,0,7.83-.46,10-1.38,2.16-.91,3.62-2.54,4.38-4.88.75-2.33,1.12-6,1.12-11v-49.5c0-5.66-.67-9.75-2-12.25-1.34-2.5-3.59-3.75-6.75-3.75-2.67,0-7.17,1.25-13.5,3.75h-.5c-.67,0-1.12-.38-1.38-1.12s-.04-1.29.62-1.62l29-13.75c.33-.16.83-.25,1.5-.25,1.5,0,3.08,1.92,4.75,5.75,1.66,3.84,2.5,8.75,2.5,14.75v58c0,5,.38,8.67,1.12,11,.75,2.34,2.21,3.96,4.38,4.88,2.16.92,5.5,1.38,10,1.38.5,0,.75.5.75,1.5s-.25,1.5-.75,1.5c-3.84,0-6.84-.08-9-.25l-13.5-.25-13.75.25c-2.17.17-5.17.25-9,.25-.5,0-.75-.5-.75-1.5ZM1040.88,604.69c0-1,.25-1.5.75-1.5,4.5,0,7.83-.46,10-1.38,2.16-.91,3.62-2.54,4.38-4.88.75-2.33,1.12-6,1.12-11v-40.5c0-10-1.88-17.29-5.62-21.88-3.75-4.58-9.54-6.88-17.38-6.88-6.17,0-12.38,1.92-18.62,5.75-6.25,3.84-11.62,9.09-16.12,15.75l-1-3c7.33-9.83,14.58-17.08,21.75-21.75,7.16-4.66,14.58-7,22.25-7,9.16,0,16.29,2.62,21.38,7.88,5.08,5.25,7.62,12.79,7.62,22.62v49c0,5,.38,8.67,1.12,11,.75,2.34,2.21,3.96,4.38,4.88,2.16.92,5.5,1.38,10,1.38.5,0,.75.5.75,1.5s-.25,1.5-.75,1.5c-3.84,0-6.84-.08-9-.25l-13.5-.25-13.75.25c-2.17.17-5.17.25-9,.25-.5,0-.75-.5-.75-1.5Z"/><path class="cls-1" d="M1122.12,604.44c-4.5-3.16-6.75-8.41-6.75-15.75v-58.75c0-4.33-.29-7.41-.88-9.25-.59-1.83-1.71-3.04-3.38-3.62-1.67-.58-4.5-.88-8.5-.88-.67,0-1-.54-1-1.62s.33-1.62,1-1.62c6.66-.16,12.08-1.96,16.25-5.38,4.16-3.41,6.58-7.96,7.25-13.62,0-.5.66-.75,2-.75,1.16,0,1.75.25,1.75.75v86.25c0,13.5,6.58,20.25,19.75,20.25,7.66,0,14.33-2.33,20-7l.5-.25c.66,0,1.16.38,1.5,1.12.33.75.25,1.29-.25,1.62-6.17,4.84-11.71,8.25-16.62,10.25-4.92,2-10.04,3-15.38,3-7,0-12.75-1.59-17.25-4.75ZM1125.62,517.94v-5.5c10.5,0,23.5-.83,39-2.5.33,0,.71.62,1.12,1.88.41,1.25.62,2.62.62,4.12,0,1.34-.29,2.71-.88,4.12-.59,1.42-1.21,2.04-1.88,1.88-10.67-2.66-23.34-4-38-4Z"/><path class="cls-1" d="M1286.62,597.19c1,2.34,2.96,3.92,5.88,4.75,2.91.84,7.54,1.25,13.88,1.25.5,0,.75.5.75,1.5s-.25,1.5-.75,1.5c-5,0-9-.08-12-.25l-17.75-.25-17.25.25c-3,.17-7.09.25-12.25.25-.5,0-.75-.5-.75-1.5s.25-1.5.75-1.5c6.33,0,10.96-.41,13.88-1.25,2.91-.83,4.91-2.46,6-4.88,1.08-2.41,1.62-6.12,1.62-11.12v-115.75c0-5-.54-8.66-1.62-11-1.09-2.33-3.09-3.96-6-4.88-2.92-.91-7.54-1.38-13.88-1.38-.5,0-.75-.5-.75-1.5s.25-1.5.75-1.5l12.25.25c7,.34,12.75.5,17.25.5,5,0,11-.16,18-.5l11.75-.25c.5,0,.75.5.75,1.5s-.25,1.5-.75,1.5c-6.17,0-10.75.5-13.75,1.5s-5,2.71-6,5.12c-1,2.42-1.5,6.12-1.5,11.12v115.25c0,5.17.5,8.92,1.5,11.25Z"/><path class="cls-1" d="M1328.87,604.69c0-1,.25-1.5.75-1.5,4.5,0,7.83-.46,10-1.38,2.16-.91,3.62-2.54,4.38-4.88.75-2.33,1.12-6,1.12-11v-49.5c0-5.66-.67-9.75-2-12.25-1.34-2.5-3.59-3.75-6.75-3.75-2.67,0-7.17,1.25-13.5,3.75h-.5c-.67,0-1.12-.38-1.38-1.12s-.04-1.29.62-1.62l29-13.75c.33-.16.83-.25,1.5-.25,1.5,0,3.08,1.92,4.75,5.75,1.66,3.84,2.5,8.75,2.5,14.75v58c0,5,.38,8.67,1.12,11,.75,2.34,2.21,3.96,4.38,4.88,2.16.92,5.5,1.38,10,1.38.5,0,.75.5.75,1.5s-.25,1.5-.75,1.5c-3.84,0-6.84-.08-9-.25l-13.5-.25-13.75.25c-2.17.17-5.17.25-9,.25-.5,0-.75-.5-.75-1.5ZM1396.12,604.69c0-1,.25-1.5.75-1.5,4.5,0,7.83-.46,10-1.38,2.16-.91,3.62-2.54,4.38-4.88.75-2.33,1.12-6,1.12-11v-40.5c0-10-1.88-17.29-5.62-21.88-3.75-4.58-9.54-6.88-17.38-6.88-6.17,0-12.38,1.92-18.62,5.75-6.25,3.84-11.62,9.09-16.12,15.75l-1-3c7.33-9.83,14.58-17.08,21.75-21.75,7.16-4.66,14.58-7,22.25-7,9.16,0,16.29,2.62,21.38,7.88,5.08,5.25,7.62,12.79,7.62,22.62v49c0,5,.38,8.67,1.12,11,.75,2.34,2.21,3.96,4.38,4.88,2.16.92,5.5,1.38,10,1.38.5,0,.75.5.75,1.5s-.25,1.5-.75,1.5c-3.84,0-6.84-.08-9-.25l-13.5-.25-13.75.25c-2.17.17-5.17.25-9,.25-.5,0-.75-.5-.75-1.5Z"/><path class="cls-1" d="M1454.87,604.69c0-1,.25-1.5.75-1.5,5,0,8.66-.46,11-1.38,2.33-.91,3.96-2.54,4.88-4.88.91-2.33,1.38-6,1.38-11v-56.25c0-4.33-.42-7.38-1.25-9.12-.84-1.75-2.42-2.91-4.75-3.5-2.34-.58-6.42-.88-12.25-.88-.5,0-.75-.54-.75-1.62s.25-1.62.75-1.62c6.83,0,11.46-.79,13.88-2.38,2.41-1.58,3.71-4.54,3.88-8.88.83-27,5.79-46.58,14.88-58.75,9.08-12.16,22.46-18.25,40.12-18.25,8.5,0,15.46,1.29,20.88,3.88,5.41,2.59,8.12,5.71,8.12,9.38,0,2.5-.88,4.46-2.62,5.88-1.75,1.42-3.79,2.12-6.12,2.12-2,0-3.71-.5-5.12-1.5-1.42-1-2.96-2.66-4.62-5-2.67-3.5-5.46-6.12-8.38-7.88-2.92-1.75-6.54-2.62-10.88-2.62-9.67,0-17.34,5.59-23,16.75-5.67,11.17-8.5,28.09-8.5,50.75v89.5c0,5.17.58,8.92,1.75,11.25,1.16,2.34,3.41,3.92,6.75,4.75,3.33.84,8.66,1.25,16,1.25.5,0,.75.5.75,1.5s-.25,1.5-.75,1.5l-16-.25c-3.5-.16-8.84-.25-16-.25l-14,.25c-2.34.17-5.67.25-10,.25-.5,0-.75-.5-.75-1.5ZM1480.87,517.94v-5.5c10.16,0,22.91-.83,38.25-2.5.5,0,.91.59,1.25,1.75.33,1.17.5,2.59.5,4.25,0,1.34-.25,2.71-.75,4.12-.5,1.42-1.09,2.04-1.75,1.88-10.67-2.66-23.17-4-37.5-4Z"/><path class="cls-1" d="M1543.24,597.44c-6.92-7.5-10.38-18-10.38-31.5,0-12,2.83-22.5,8.5-31.5,5.66-9,12.79-15.91,21.38-20.75,8.58-4.83,17.21-7.25,25.88-7.25,5.83,0,11.41,1.09,16.75,3.25,5.33,2.17,9.66,5.17,13,9l-10,14c0-6.16-2.67-11.25-8-15.25-5.34-4-11.34-6-18-6-9.84,0-17.79,4.38-23.88,13.12-6.09,8.75-9.12,20.12-9.12,34.12,0,12.5,2.54,22.59,7.62,30.25,5.08,7.67,11.88,11.5,20.38,11.5,6.33,0,12.29-1.96,17.88-5.88,5.58-3.91,11.29-8.96,17.12-15.12l2,1.75c-7.34,8.34-14.54,15-21.62,20-7.09,5-15.04,7.5-23.88,7.5-10.17,0-18.71-3.75-25.62-11.25ZM1610.62,601.94c-1.5-4.33-2.25-9.58-2.25-15.75v-70.25c3.33-1.33,5.75-2.5,7.25-3.5s2.91-2.66,4.25-5c.16-.33.58-.38,1.25-.12.66.25,1,.54,1,.88v71.25c0,5.67.66,9.71,2,12.12,1.33,2.42,3.58,3.62,6.75,3.62,2.83,0,7.25-1.16,13.25-3.5h.5c.66,0,1.12.38,1.38,1.12s.04,1.21-.62,1.38l-29,14c-.34.16-.75.25-1.25.25-1.5,0-3-2.17-4.5-6.5Z"/><path class="cls-1" d="M1656.86,604.69c0-1,.25-1.5.75-1.5,4.5,0,7.83-.46,10-1.38,2.16-.91,3.62-2.54,4.38-4.88.75-2.33,1.12-6,1.12-11v-49.5c0-5.66-.67-9.75-2-12.25-1.34-2.5-3.59-3.75-6.75-3.75-2.67,0-7.17,1.25-13.5,3.75h-.5c-.67,0-1.12-.38-1.38-1.12s-.04-1.29.62-1.62l29-13.75c.33-.16.83-.25,1.5-.25,1.5,0,3.08,1.92,4.75,5.75,1.66,3.84,2.5,8.75,2.5,14.75v58c0,5,.38,8.67,1.12,11,.75,2.34,2.21,3.96,4.38,4.88,2.16.92,5.5,1.38,10,1.38.5,0,.75.5.75,1.5s-.25,1.5-.75,1.5c-3.84,0-6.84-.08-9-.25l-13.5-.25-13.75.25c-2.17.17-5.17.25-9,.25-.5,0-.75-.5-.75-1.5ZM1724.11,604.69c0-1,.25-1.5.75-1.5,4.5,0,7.83-.46,10-1.38,2.16-.91,3.62-2.54,4.38-4.88.75-2.33,1.12-6,1.12-11v-40.5c0-10-1.88-17.29-5.62-21.88-3.75-4.58-9.54-6.88-17.38-6.88-6.17,0-12.38,1.92-18.62,5.75-6.25,3.84-11.62,9.09-16.12,15.75l-1-3c7.33-9.83,14.58-17.08,21.75-21.75,7.16-4.66,14.58-7,22.25-7,9.16,0,16.29,2.62,21.38,7.88,5.08,5.25,7.62,12.79,7.62,22.62v49c0,5,.38,8.67,1.12,11,.75,2.34,2.21,3.96,4.38,4.88,2.16.92,5.5,1.38,10,1.38.5,0,.75.5.75,1.5s-.25,1.5-.75,1.5c-3.84,0-6.84-.08-9-.25l-13.5-.25-13.75.25c-2.17.17-5.17.25-9,.25-.5,0-.75-.5-.75-1.5Z"/><path class="cls-1" d="M1805.36,604.44c-4.5-3.16-6.75-8.41-6.75-15.75v-58.75c0-4.33-.29-7.41-.88-9.25-.59-1.83-1.71-3.04-3.38-3.62-1.67-.58-4.5-.88-8.5-.88-.67,0-1-.54-1-1.62s.33-1.62,1-1.62c6.66-.16,12.08-1.96,16.25-5.38,4.16-3.41,6.58-7.96,7.25-13.62,0-.5.66-.75,2-.75,1.16,0,1.75.25,1.75.75v86.25c0,13.5,6.58,20.25,19.75,20.25,7.66,0,14.33-2.33,20-7l.5-.25c.66,0,1.16.38,1.5,1.12.33.75.25,1.29-.25,1.62-6.17,4.84-11.71,8.25-16.62,10.25-4.92,2-10.04,3-15.38,3-7,0-12.75-1.59-17.25-4.75ZM1808.86,517.94v-5.5c10.5,0,23.5-.83,39-2.5.33,0,.71.62,1.12,1.88.41,1.25.62,2.62.62,4.12,0,1.34-.29,2.71-.88,4.12-.59,1.42-1.21,2.04-1.88,1.88-10.67-2.66-23.34-4-38-4Z"/></svg>
