<?xml version="1.0" encoding="UTF-8"?><svg id="Layer_1" xmlns="http://www.w3.org/2000/svg" viewBox="0 0 1928 1080"><defs><style>.cls-1{fill:#fff;}.cls-2{fill:#253551;}</style></defs><rect class="cls-2" x=".5" y=".5" width="1927" height="1079"/><path d="M1927,1v1078H1V1h1926M1928,0H0v1080h1928V0h0Z"/><path class="cls-1" d="M190.01,458.32c6.74,0,13.75.66,21.01,1.98,7.26,1.32,13.09,3.23,17.49,5.72,1.32.74,2.16,1.4,2.53,1.98.36.59.62,1.69.77,3.3l2.42,24.64c0,.3-.37.55-1.1.77-.74.22-1.18.04-1.32-.55-3.38-11.88-9.54-20.35-18.48-25.41-8.95-5.06-19.58-7.59-31.9-7.59-11.3,0-21.09,2.46-29.37,7.37-8.29,4.92-14.71,11.81-19.25,20.68-4.55,8.88-6.82,19.25-6.82,31.13,0,10.42,1.61,20.21,4.84,29.37,3.22,9.17,7.73,17.2,13.53,24.09,5.79,6.9,12.46,12.29,20.02,16.17,7.55,3.89,15.58,5.83,24.09,5.83,10.26,0,19.32-2.82,27.17-8.47,7.84-5.64,13.89-14.63,18.15-26.95.14-.58.62-.77,1.43-.55.8.22,1.21.48,1.21.77l-3.08,24.86c-.3,1.76-.63,2.9-.99,3.41-.37.52-1.21,1.07-2.53,1.65-7.04,2.94-14.01,5.06-20.9,6.38-6.9,1.32-13.86,1.98-20.9,1.98-13.94,0-25.89-2.17-35.86-6.49-9.98-4.32-18.12-10.04-24.42-17.16-6.31-7.11-10.93-14.96-13.86-23.54-2.94-8.58-4.4-17.05-4.4-25.41,0-10.56,2.2-20.09,6.6-28.6,4.4-8.5,10.41-15.84,18.04-22,7.62-6.16,16.24-10.92,25.85-14.3,9.6-3.37,19.61-5.06,30.03-5.06Z"/><path class="cls-1" d="M296.71,601.1c-8.66,0-16.21-2.13-22.66-6.38-6.46-4.25-11.44-9.93-14.96-17.05-3.52-7.11-5.28-14.77-5.28-22.99,0-7.62,1.39-14.22,4.18-19.8,2.78-5.57,6.52-10.15,11.22-13.75,4.69-3.59,9.79-6.27,15.29-8.03s10.89-2.64,16.17-2.64c8.94,0,16.61,2.2,22.99,6.6s11.25,10.05,14.63,16.94c3.37,6.9,5.06,14.16,5.06,21.78,0,9.39-2.13,17.46-6.38,24.2-4.26,6.75-9.9,11.96-16.94,15.62s-14.82,5.5-23.32,5.5ZM303.09,596.92c7.77,0,13.93-2.75,18.48-8.25,4.54-5.5,6.82-14.41,6.82-26.73,0-9.24-1.51-17.41-4.51-24.53-3.01-7.11-7.15-12.68-12.43-16.72-5.28-4.03-11.3-6.05-18.04-6.05-7.78,0-13.86,2.86-18.26,8.58-4.4,5.72-6.6,13.94-6.6,24.64,0,8.95,1.46,17.16,4.4,24.64,2.93,7.48,7,13.42,12.21,17.82,5.2,4.4,11.18,6.6,17.93,6.6Z"/><path class="cls-1" d="M361.17,598.24c-.44,0-.66-.44-.66-1.32s.22-1.32.66-1.32c5.72,0,9.42-.99,11.11-2.97,1.68-1.98,2.53-6.05,2.53-12.21v-43.56c0-4.84-.55-8.39-1.65-10.67-1.1-2.27-3.12-3.41-6.05-3.41-1.47,0-3.19.3-5.17.88-1.98.59-4.22,1.4-6.71,2.42-.59.15-1.07-.14-1.43-.88-.37-.73-.26-1.24.33-1.54l25.52-12.1c.44-.14.88-.22,1.32-.22,1.02,0,2.34,1.54,3.96,4.62,1.61,3.08,2.42,7.55,2.42,13.42v51.04c0,4.11.51,7.3,1.54,9.57,1.02,2.28,3.08,3.78,6.16,4.51,3.08.74,7.62,1.1,13.64,1.1.58,0,.88.44.88,1.32s-.3,1.32-.88,1.32c-3.52,0-7.67-.07-12.43-.22-4.77-.14-9.79-.22-15.07-.22-3.82,0-7.48.08-11,.22-3.52.15-6.53.22-9.02.22ZM382.73,538.62l-.88-2.42c5.42-6.6,9.9-11.69,13.42-15.29,3.52-3.59,6.56-6.08,9.13-7.48,2.56-1.39,5.02-2.09,7.37-2.09,3.08,0,6.12.88,9.13,2.64,3,1.76,4.51,3.89,4.51,6.38,0,1.91-.63,3.52-1.87,4.84-1.25,1.32-3.04,1.98-5.39,1.98-1.91,0-3.52-.58-4.84-1.76-1.32-1.17-2.72-2.27-4.18-3.3-1.47-1.02-3.38-1.54-5.72-1.54-1.32,0-2.72.37-4.18,1.1-1.47.74-3.45,2.39-5.94,4.95-2.5,2.57-6.02,6.57-10.56,11.99Z"/><path class="cls-1" d="M441.25,598.24c-.44,0-.66-.44-.66-1.32s.22-1.32.66-1.32c5.72,0,9.42-.99,11.11-2.97,1.68-1.98,2.53-6.05,2.53-12.21v-43.56c0-4.84-.55-8.39-1.65-10.67-1.1-2.27-3.12-3.41-6.05-3.41-1.47,0-3.19.3-5.17.88-1.98.59-4.22,1.4-6.71,2.42-.59.15-1.07-.14-1.43-.88-.37-.73-.26-1.24.33-1.54l25.52-12.1c.44-.14.88-.22,1.32-.22,1.02,0,2.34,1.54,3.96,4.62,1.61,3.08,2.42,7.55,2.42,13.42v51.04c0,6.16.84,10.23,2.53,12.21,1.68,1.98,5.39,2.97,11.11,2.97.44,0,.66.44.66,1.32s-.22,1.32-.66,1.32c-2.5,0-5.47-.07-8.91-.22-3.45-.14-7.08-.22-10.89-.22s-7.48.08-11,.22c-3.52.15-6.53.22-9.02.22ZM497.79,598.24c-.44,0-.66-.44-.66-1.32s.22-1.32.66-1.32c5.72,0,9.42-.99,11.11-2.97,1.68-1.98,2.53-6.05,2.53-12.21v-34.98c0-17.16-6.24-25.74-18.7-25.74-5.28,0-10.53,1.73-15.73,5.17-5.21,3.45-9.79,8.11-13.75,13.97l-.88-2.64c6.16-8.8,12.32-15.18,18.48-19.14s12.46-5.94,18.92-5.94c7.62,0,13.56,2.13,17.82,6.38,4.25,4.26,6.38,10.86,6.38,19.8v43.12c0,6.16.84,10.23,2.53,12.21,1.68,1.98,5.46,2.97,11.33,2.97.44,0,.66.44.66,1.32s-.22,1.32-.66,1.32c-2.64,0-5.69-.07-9.13-.22-3.45-.14-7.08-.22-10.89-.22s-7.48.08-11,.22c-3.52.15-6.53.22-9.02.22ZM554.55,598.24c-.44,0-.66-.44-.66-1.32s.22-1.32.66-1.32c5.72,0,9.46-.99,11.22-2.97,1.76-1.98,2.64-6.05,2.64-12.21v-34.98c0-17.16-6.31-25.74-18.92-25.74-5.28,0-10.53,1.73-15.73,5.17-5.21,3.45-9.79,8.11-13.75,13.97l-.88-2.64c6.3-8.8,12.54-15.18,18.7-19.14s12.46-5.94,18.92-5.94c7.62,0,13.53,2.17,17.71,6.49,4.18,4.33,6.27,11.04,6.27,20.13v42.68c0,6.16.84,10.23,2.53,12.21,1.68,1.98,5.46,2.97,11.33,2.97.44,0,.66.44.66,1.32s-.22,1.32-.66,1.32c-2.5,0-5.5-.07-9.02-.22-3.52-.14-7.19-.22-11-.22s-7.45.08-10.89.22c-3.45.15-6.49.22-9.13.22Z"/><path class="cls-1" d="M650.02,601.1c-8.66,0-16.21-2.13-22.66-6.38-6.46-4.25-11.44-9.93-14.96-17.05-3.52-7.11-5.28-14.77-5.28-22.99,0-7.62,1.39-14.22,4.18-19.8,2.78-5.57,6.52-10.15,11.22-13.75,4.69-3.59,9.79-6.27,15.29-8.03s10.89-2.64,16.17-2.64c8.94,0,16.61,2.2,22.99,6.6s11.25,10.05,14.63,16.94c3.37,6.9,5.06,14.16,5.06,21.78,0,9.39-2.13,17.46-6.38,24.2-4.26,6.75-9.9,11.96-16.94,15.62s-14.82,5.5-23.32,5.5ZM656.4,596.92c7.77,0,13.93-2.75,18.48-8.25,4.54-5.5,6.82-14.41,6.82-26.73,0-9.24-1.51-17.41-4.51-24.53-3.01-7.11-7.15-12.68-12.43-16.72-5.28-4.03-11.3-6.05-18.04-6.05-7.78,0-13.86,2.86-18.26,8.58-4.4,5.72-6.6,13.94-6.6,24.64,0,8.95,1.46,17.16,4.4,24.64,2.93,7.48,7,13.42,12.21,17.82,5.2,4.4,11.18,6.6,17.93,6.6Z"/><path class="cls-1" d="M714.48,598.24c-.44,0-.66-.44-.66-1.32s.22-1.32.66-1.32c5.72,0,9.42-.99,11.11-2.97,1.68-1.98,2.53-6.05,2.53-12.21v-43.56c0-4.84-.55-8.39-1.65-10.67-1.1-2.27-3.12-3.41-6.05-3.41-1.47,0-3.19.3-5.17.88-1.98.59-4.22,1.4-6.71,2.42-.59.15-1.07-.14-1.43-.88-.37-.73-.26-1.24.33-1.54l25.52-12.1c.44-.14.88-.22,1.32-.22,1.02,0,2.34,1.54,3.96,4.62,1.61,3.08,2.42,7.55,2.42,13.42v51.04c0,4.11.51,7.3,1.54,9.57,1.02,2.28,3.08,3.78,6.16,4.51,3.08.74,7.62,1.1,13.64,1.1.58,0,.88.44.88,1.32s-.29,1.32-.88,1.32c-3.52,0-7.67-.07-12.43-.22-4.77-.14-9.79-.22-15.07-.22-3.82,0-7.48.08-11,.22-3.52.15-6.53.22-9.02.22ZM736.04,538.62l-.88-2.42c5.42-6.6,9.9-11.69,13.42-15.29,3.52-3.59,6.56-6.08,9.13-7.48,2.56-1.39,5.02-2.09,7.37-2.09,3.08,0,6.12.88,9.13,2.64,3,1.76,4.51,3.89,4.51,6.38,0,1.91-.63,3.52-1.87,4.84-1.25,1.32-3.05,1.98-5.39,1.98-1.91,0-3.52-.58-4.84-1.76-1.32-1.17-2.72-2.27-4.18-3.3-1.47-1.02-3.38-1.54-5.72-1.54-1.32,0-2.72.37-4.18,1.1-1.47.74-3.45,2.39-5.94,4.95-2.5,2.57-6.02,6.57-10.56,11.99Z"/><path class="cls-1" d="M806.88,599.78c-4.7,0-8.22-1.29-10.56-3.85-2.35-2.56-3.52-5.53-3.52-8.91,0-4.1,1.61-7.37,4.84-9.79,3.22-2.42,8.5-4.87,15.84-7.37l28.82-10.34.66,2.42-25.52,9.68c-3.38,1.32-5.76,2.79-7.15,4.4-1.4,1.62-2.09,3.67-2.09,6.16,0,3.08.88,5.47,2.64,7.15,1.76,1.69,4.03,2.53,6.82,2.53,1.61,0,3.15-.18,4.62-.55,1.46-.36,2.93-.91,4.4-1.65l18.7-9.46.44,2.64-19.14,10.34c-4.4,2.2-8.07,3.85-11,4.95-2.94,1.1-5.87,1.65-8.8,1.65ZM850,599.56c-.59.29-1.18.44-1.76.44-1.91,0-3.74-1.58-5.5-4.73s-2.64-7.73-2.64-13.75v-39.38c0-6.89-.63-12.24-1.87-16.06-1.25-3.81-2.94-6.45-5.06-7.92-2.13-1.46-4.51-2.2-7.15-2.2-3.67,0-6.68.92-9.02,2.75-2.35,1.83-4.11,4.15-5.28,6.93-1.17,2.79-1.98,5.58-2.42,8.36-.15,2.06-.77,3.96-1.87,5.72-1.1,1.76-3.19,2.64-6.27,2.64-2.35,0-4.18-.58-5.5-1.76-1.32-1.17-1.98-2.78-1.98-4.84,0-2.64,1.32-5.39,3.96-8.25,2.64-2.86,5.97-5.5,10.01-7.92,4.03-2.42,8.28-4.4,12.76-5.94,4.47-1.54,8.69-2.31,12.65-2.31,5.57,0,10.19,1.95,13.86,5.83,3.67,3.89,5.5,10.01,5.5,18.37v38.94c0,5.14.66,8.88,1.98,11.22,1.32,2.35,3.44,3.52,6.38,3.52,2.64,0,6.3-.95,11-2.86.73-.29,1.24-.03,1.54.77.29.81.07,1.36-.66,1.65l-22.66,10.78Z"/><path class="cls-1" d="M883,598.24c-.44,0-.66-.44-.66-1.32s.22-1.32.66-1.32c5.72,0,9.42-.99,11.11-2.97,1.68-1.98,2.53-6.05,2.53-12.21v-43.56c0-4.84-.55-8.39-1.65-10.67-1.1-2.27-3.12-3.41-6.05-3.41-1.47,0-3.19.3-5.17.88-1.98.59-4.22,1.4-6.71,2.42-.59.15-1.07-.14-1.43-.88-.37-.73-.26-1.24.33-1.54l25.52-12.1c.44-.14.88-.22,1.32-.22,1.02,0,2.34,1.54,3.96,4.62,1.61,3.08,2.42,7.55,2.42,13.42v51.04c0,6.16.84,10.23,2.53,12.21,1.68,1.98,5.39,2.97,11.11,2.97.44,0,.66.44.66,1.32s-.22,1.32-.66,1.32c-2.49,0-5.46-.07-8.91-.22-3.45-.14-7.08-.22-10.89-.22s-7.48.08-11,.22c-3.52.15-6.53.22-9.02.22ZM942.18,598.24c-.44,0-.66-.44-.66-1.32s.22-1.32.66-1.32c5.72,0,9.42-.99,11.11-2.97,1.68-1.98,2.53-6.05,2.53-12.21v-35.64c0-8.8-1.62-15.21-4.84-19.25-3.23-4.03-8.36-6.05-15.4-6.05-5.28,0-10.71,1.69-16.28,5.06-5.58,3.38-10.34,8-14.3,13.86l-.88-2.64c6.45-8.65,12.87-15.03,19.25-19.14,6.38-4.1,12.87-6.16,19.47-6.16,8.06,0,14.33,2.24,18.81,6.71,4.47,4.48,6.71,11.19,6.71,20.13v43.12c0,6.16.84,10.23,2.53,12.21,1.69,1.98,5.39,2.97,11.11,2.97.44,0,.66.44.66,1.32s-.22,1.32-.66,1.32c-2.5,0-5.47-.07-8.91-.22-3.45-.14-7.08-.22-10.89-.22s-7.48.08-11,.22c-3.52.15-6.53.22-9.02.22Z"/><path class="cls-1" d="M1028.2,600.88c-3.52,0-6.9-.55-10.12-1.65-3.23-1.1-5.87-2.97-7.92-5.61-2.06-2.64-3.08-6.23-3.08-10.78v-51.7c0-3.52-.22-6.16-.66-7.92-.44-1.76-1.47-2.89-3.08-3.41-1.62-.51-4.11-.77-7.48-.77-.59,0-.88-.47-.88-1.43s.29-1.43.88-1.43c5.87-.14,10.67-1.76,14.41-4.84,3.74-3.08,5.83-7.04,6.27-11.88,0-.44.55-.66,1.65-.66s1.65.22,1.65.66v75.9c0,6.02,1.5,10.49,4.51,13.42,3,2.94,7.29,4.4,12.87,4.4,3.81,0,7.22-.62,10.23-1.87,3-1.24,5.46-2.67,7.37-4.29.58-.29,1.13-.11,1.65.55.51.66.47,1.21-.11,1.65-5.43,4.11-10.3,7.08-14.63,8.91-4.33,1.83-8.84,2.75-13.53,2.75ZM1049.54,524.1c-5.72-1.46-11.22-2.42-16.5-2.86-5.28-.44-10.93-.66-16.94-.66v-4.84c5.86,0,11.51-.22,16.94-.66,5.42-.44,11.22-.95,17.38-1.54.29,0,.62.52.99,1.54.36,1.03.55,2.28.55,3.74,0,1.03-.26,2.2-.77,3.52-.52,1.32-1.07,1.91-1.65,1.76Z"/><path class="cls-1" d="M1174.72,460.08c12.02,0,21.23,2.46,27.61,7.37,6.38,4.92,9.57,11.63,9.57,20.13,0,5.58-1.25,10.82-3.74,15.73-2.5,4.92-5.87,9.24-10.12,12.98-4.26,3.74-9.21,6.71-14.85,8.91-5.65,2.2-11.55,3.3-17.71,3.3-1.47,0-3.12-.03-4.95-.11-1.83-.07-3.49-.18-4.95-.33v52.36c0,4.25.4,7.48,1.21,9.68.8,2.2,2.56,3.67,5.28,4.4,2.71.74,6.78,1.1,12.21,1.1.44,0,.66.44.66,1.32s-.22,1.32-.66,1.32c-3.52,0-7.45-.07-11.77-.22-4.33-.14-9.06-.22-14.19-.22-4.84,0-9.5.08-13.97.22-4.48.15-8.55.22-12.21.22-.3,0-.44-.44-.44-1.32s.14-1.32.44-1.32c5.42,0,9.49-.36,12.21-1.1,2.71-.73,4.58-2.2,5.61-4.4,1.02-2.2,1.54-5.42,1.54-9.68v-101.86c0-4.25-.48-7.44-1.43-9.57-.96-2.12-2.75-3.59-5.39-4.4-2.64-.8-6.68-1.21-12.1-1.21-.44,0-.66-.44-.66-1.32s.22-1.32.66-1.32c3.52,0,7.48.11,11.88.33,4.4.22,9.02.33,13.86.33,3.81,0,8.29-.22,13.42-.66,5.13-.44,9.46-.66,12.98-.66ZM1196.94,495.28c0-8.06-1.21-14.41-3.63-19.03-2.42-4.62-5.61-7.92-9.57-9.9-3.96-1.98-8.51-2.97-13.64-2.97-3.52,0-6.38.29-8.58.88-2.2.59-3.74,1.98-4.62,4.18s-1.32,5.72-1.32,10.56v43.56c2.05.3,4.25.52,6.6.66,2.34.15,4.47.22,6.38.22,10.12,0,17.38-2.16,21.78-6.49,4.4-4.32,6.6-11.55,6.6-21.67ZM1234.56,598.24c-2.5,0-6.49-2.93-11.99-8.8-5.5-5.86-12.17-14.26-20.02-25.19-7.85-10.92-16.61-23.94-26.29-39.05l12.32-3.96c12.46,18.48,23.06,33.11,31.79,43.89,8.72,10.78,16.42,18.56,23.1,23.32,6.67,4.77,13.09,7.15,19.25,7.15.44,0,.66.44.66,1.32s-.22,1.32-.66,1.32h-28.16Z"/><path class="cls-1" d="M1306.06,600.88c-9.1,0-16.72-2.02-22.88-6.05-6.16-4.03-10.78-9.27-13.86-15.73-3.08-6.45-4.62-13.27-4.62-20.46,0-8.94,2.09-16.97,6.27-24.09,4.18-7.11,9.82-12.76,16.94-16.94,7.11-4.18,15.14-6.27,24.09-6.27,8.06,0,14.26,1.95,18.59,5.83,4.33,3.89,6.49,9.21,6.49,15.95,0,1.62-.15,2.86-.44,3.74-.3.88-1.03,1.32-2.2,1.32h-12.76c.58-7.18-.7-12.72-3.85-16.61-3.16-3.88-7.59-5.83-13.31-5.83-8.22,0-14.49,3.08-18.81,9.24-4.33,6.16-6.49,14.52-6.49,25.08,0,8.36,1.35,15.77,4.07,22.22,2.71,6.46,6.67,11.55,11.88,15.29,5.21,3.74,11.4,5.61,18.59,5.61,3.81,0,7.7-.58,11.66-1.76,3.96-1.17,7.7-3,11.22-5.5.29-.29.69-.11,1.21.55.51.66.62,1.21.33,1.65-5.28,4.55-10.56,7.81-15.84,9.79-5.28,1.98-10.71,2.97-16.28,2.97ZM1275.26,538.62l-.22-2.86,50.16-1.1v3.52l-49.94.44Z"/><path class="cls-1" d="M1384.59,660.28c-10.56,0-19-2.53-25.3-7.59-6.31-5.06-9.46-11.41-9.46-19.03,0-4.7,1.28-9.24,3.85-13.64,2.56-4.4,6.34-8.77,11.33-13.09,4.98-4.33,11.14-8.69,18.48-13.09l2.2,2.42c-3.67,2.34-7.26,4.8-10.78,7.37-3.52,2.56-6.42,5.64-8.69,9.24-2.28,3.59-3.41,8.17-3.41,13.75,0,8.36,2.75,14.96,8.25,19.8,5.5,4.84,12.94,7.26,22.33,7.26,7.48,0,13.78-1.36,18.92-4.07,5.13-2.72,9.02-6.27,11.66-10.67,2.64-4.4,3.96-8.95,3.96-13.64s-1.18-8.44-3.52-11.22c-2.35-2.79-5.43-4.95-9.24-6.49-3.82-1.54-8.03-2.68-12.65-3.41-4.62-.74-9.21-1.4-13.75-1.98-4.55-.59-9.02-1.43-13.42-2.53-4.4-1.1-8.07-2.82-11-5.17-2.94-2.34-4.4-5.64-4.4-9.9,0-4.69,1.79-9.16,5.39-13.42,3.59-4.25,7.88-7.84,12.87-10.78l1.54,1.54c-2.94,1.76-5.25,3.96-6.93,6.6-1.69,2.64-2.53,5.43-2.53,8.36,0,3.38,1.21,6.02,3.63,7.92,2.42,1.91,5.57,3.3,9.46,4.18,3.88.88,7.88,1.62,11.99,2.2,5.13.74,10.26,1.54,15.4,2.42,5.13.88,9.86,2.17,14.19,3.85,4.32,1.68,7.81,4.1,10.45,7.26,2.64,3.15,3.96,7.44,3.96,12.87,0,4.98-1.43,9.97-4.29,14.96-2.86,4.98-6.79,9.57-11.77,13.75-4.99,4.18-10.82,7.55-17.49,10.12-6.68,2.56-13.75,3.85-21.23,3.85ZM1389.65,564.14c-6.9,0-12.65-1.21-17.27-3.63-4.62-2.42-8.18-5.68-10.67-9.79-2.5-4.1-3.74-8.43-3.74-12.98,0-5.13,1.46-9.64,4.4-13.53,2.93-3.88,7-6.93,12.21-9.13,5.2-2.2,11.03-3.3,17.49-3.3,7.48,0,13.49,1.29,18.04,3.85,4.54,2.57,7.81,5.72,9.79,9.46,1.98,3.74,2.97,7.59,2.97,11.55,0,4.99-1.36,9.57-4.07,13.75-2.71,4.18-6.57,7.52-11.55,10.01-4.99,2.5-10.86,3.74-17.6,3.74ZM1394.27,561.06c3.96,0,7.44-1.5,10.45-4.51,3-3,4.51-8.17,4.51-15.51,0-7.92-2.31-14.22-6.93-18.92-4.62-4.69-9.87-7.04-15.73-7.04-4.11,0-7.63,1.4-10.56,4.18-2.94,2.79-4.4,7.41-4.4,13.86,0,5.87,1.1,10.86,3.3,14.96,2.2,4.11,5.06,7.3,8.58,9.57,3.52,2.28,7.11,3.41,10.78,3.41ZM1410.33,528.28l.22-7.26c4.4-2.93,8.76-5.24,13.09-6.93,4.32-1.68,9.13-2.53,14.41-2.53.29,0,.55.52.77,1.54.22,1.03.33,2.13.33,3.3,0,1.62-.19,3.34-.55,5.17-.37,1.84-.85,2.61-1.43,2.31-1.47-.58-3.45-1.28-5.94-2.09-2.5-.8-5.36-1.21-8.58-1.21-1.91,0-3.71.15-5.39.44-1.69.3-3.34.66-4.95,1.1l-1.98,6.16Z"/><path class="cls-1" d="M1481.83,600c-7.19,0-12.87-2.31-17.05-6.93-4.18-4.62-6.27-11.33-6.27-20.13v-33.66c0-5.72-.48-9.86-1.43-12.43-.96-2.56-2.68-3.85-5.17-3.85-2.06,0-4.55.74-7.48,2.2-.59.15-1.07-.22-1.43-1.1-.37-.88-.26-1.39.33-1.54l24.42-11c.29-.14.58-.22.88-.22.44,0,.91.19,1.43.55.51.37.77.77.77,1.21v52.58c0,8.66,1.54,15.07,4.62,19.25,3.08,4.18,7.7,6.27,13.86,6.27,5.57,0,11.18-1.68,16.83-5.06,5.64-3.37,10.59-7.92,14.85-13.64l1.1,2.42c-6.75,8.66-13.39,15-19.91,19.03-6.53,4.04-13.31,6.05-20.35,6.05ZM1529.13,513.1v61.6c0,4.99.58,8.58,1.76,10.78,1.17,2.2,3.15,3.3,5.94,3.3,1.46,0,3.11-.25,4.95-.77,1.83-.51,4.07-1.28,6.71-2.31.73-.29,1.24-.03,1.54.77.29.81.14,1.36-.44,1.65l-25.74,12.1c-.29.14-.59.22-.88.22-1.18,0-2.5-1.58-3.96-4.73-1.47-3.15-2.2-7.66-2.2-13.53v-42.9c0-5.72-.48-9.86-1.43-12.43-.96-2.56-2.68-3.85-5.17-3.85-2.06,0-4.55.74-7.48,2.2-.59.15-1.03-.22-1.32-1.1-.3-.88-.15-1.39.44-1.54l24.42-11c.29-.14.51-.22.66-.22.44,0,.92.19,1.43.55.51.37.77.77.77,1.21Z"/><path class="cls-1" d="M1559.05,598.24c-.44,0-.66-.44-.66-1.32s.22-1.32.66-1.32c5.72,0,9.46-.99,11.22-2.97,1.76-1.98,2.64-6.05,2.64-12.21v-113.74c0-5.13-.52-8.91-1.54-11.33-1.03-2.42-2.86-3.63-5.5-3.63-2.2,0-5.58,1.03-10.12,3.08-.44.29-.88,0-1.32-.88-.44-.88-.37-1.39.22-1.54l28.16-13.42c.29-.14.66-.22,1.1-.22.29,0,.69.19,1.21.55.51.37.77.77.77,1.21v139.92c0,6.16.8,10.23,2.42,12.21,1.61,1.98,5.35,2.97,11.22,2.97.44,0,.66.44.66,1.32s-.22,1.32-.66,1.32c-2.5,0-5.5-.07-9.02-.22-3.52-.14-7.26-.22-11.22-.22s-7.52.08-11.11.22c-3.6.15-6.64.22-9.13.22Z"/><path class="cls-1" d="M1632.97,599.78c-4.7,0-8.22-1.29-10.56-3.85-2.35-2.56-3.52-5.53-3.52-8.91,0-4.1,1.61-7.37,4.84-9.79,3.22-2.42,8.5-4.87,15.84-7.37l28.82-10.34.66,2.42-25.52,9.68c-3.38,1.32-5.76,2.79-7.15,4.4-1.4,1.62-2.09,3.67-2.09,6.16,0,3.08.88,5.47,2.64,7.15,1.76,1.69,4.03,2.53,6.82,2.53,1.61,0,3.15-.18,4.62-.55,1.46-.36,2.93-.91,4.4-1.65l18.7-9.46.44,2.64-19.14,10.34c-4.4,2.2-8.07,3.85-11,4.95-2.94,1.1-5.87,1.65-8.8,1.65ZM1676.09,599.56c-.59.29-1.18.44-1.76.44-1.91,0-3.74-1.58-5.5-4.73-1.76-3.15-2.64-7.73-2.64-13.75v-39.38c0-6.89-.62-12.24-1.87-16.06-1.25-3.81-2.94-6.45-5.06-7.92-2.13-1.46-4.51-2.2-7.15-2.2-3.67,0-6.67.92-9.02,2.75-2.35,1.83-4.11,4.15-5.28,6.93-1.18,2.79-1.98,5.58-2.42,8.36-.15,2.06-.77,3.96-1.87,5.72-1.1,1.76-3.19,2.64-6.27,2.64-2.35,0-4.18-.58-5.5-1.76-1.32-1.17-1.98-2.78-1.98-4.84,0-2.64,1.32-5.39,3.96-8.25,2.64-2.86,5.97-5.5,10.01-7.92,4.03-2.42,8.28-4.4,12.76-5.94,4.47-1.54,8.69-2.31,12.65-2.31,5.57,0,10.19,1.95,13.86,5.83,3.66,3.89,5.5,10.01,5.5,18.37v38.94c0,5.14.66,8.88,1.98,11.22,1.32,2.35,3.44,3.52,6.38,3.52,2.64,0,6.3-.95,11-2.86.73-.29,1.24-.03,1.54.77.29.81.07,1.36-.66,1.65l-22.66,10.78Z"/><path class="cls-1" d="M1709.09,598.24c-.44,0-.66-.44-.66-1.32s.22-1.32.66-1.32c5.72,0,9.42-.99,11.11-2.97,1.68-1.98,2.53-6.05,2.53-12.21v-43.56c0-4.84-.55-8.39-1.65-10.67-1.1-2.27-3.12-3.41-6.05-3.41-1.47,0-3.19.3-5.17.88-1.98.59-4.22,1.4-6.71,2.42-.59.15-1.07-.14-1.43-.88-.37-.73-.26-1.24.33-1.54l25.52-12.1c.44-.14.88-.22,1.32-.22,1.02,0,2.34,1.54,3.96,4.62,1.61,3.08,2.42,7.55,2.42,13.42v51.04c0,4.11.51,7.3,1.54,9.57,1.02,2.28,3.08,3.78,6.16,4.51,3.08.74,7.62,1.1,13.64,1.1.58,0,.88.44.88,1.32s-.3,1.32-.88,1.32c-3.52,0-7.67-.07-12.43-.22-4.77-.14-9.79-.22-15.07-.22-3.82,0-7.48.08-11,.22-3.52.15-6.53.22-9.02.22ZM1730.65,538.62l-.88-2.42c5.42-6.6,9.9-11.69,13.42-15.29,3.52-3.59,6.56-6.08,9.13-7.48,2.56-1.39,5.02-2.09,7.37-2.09,3.08,0,6.12.88,9.13,2.64,3,1.76,4.51,3.89,4.51,6.38,0,1.91-.62,3.52-1.87,4.84-1.25,1.32-3.04,1.98-5.39,1.98-1.91,0-3.52-.58-4.84-1.76-1.32-1.17-2.72-2.27-4.18-3.3-1.47-1.02-3.38-1.54-5.72-1.54-1.32,0-2.71.37-4.18,1.1-1.47.74-3.45,2.39-5.94,4.95-2.5,2.57-6.02,6.57-10.56,11.99Z"/></svg>
