<?xml version="1.0" encoding="UTF-8"?><svg id="Layer_1" xmlns="http://www.w3.org/2000/svg" viewBox="0 0 1928 1080"><defs><style>.cls-1{fill:#fff;}.cls-2{fill:#253551;}</style></defs><rect class="cls-2" x=".5" y=".5" width="1927" height="1079"/><path d="M1927,1v1078H1V1h1926M1928,0H0v1080h1928V0h0Z"/><path class="cls-1" d="M260.08,514.71c3.67,6.98,6.98,11.59,9.94,13.83,4.12,3.13,10.74,4.7,19.87,4.7,5.55,0,10.29-.98,14.23-2.95,3.94-1.97,8.33-5.55,13.16-10.74,2.24-2.5,3.74-4.05,4.5-4.63.76-.58,1.54-.87,2.35-.87,1.88,0,3.27,1.75,4.16,5.24,1.07,4.12,2.55,7.05,4.43,8.79,1.88,1.75,4.52,2.62,7.92,2.62s6.13-.78,8.19-2.35c2.06-1.56,3.98-4.41,5.77-8.53,2.24-4.92,4.16-7.39,5.77-7.39,1.7,0,3.04,1.7,4.03,5.1l.81,3.22c.81,2.6,1.75,4.63,2.82,6.11,1.07,1.48,2.64,2.8,4.7,3.96,3.13,1.7,6.94,2.55,11.41,2.55,2.86,0,4.61.81,5.24,2.42l.13.54v13.16c0,1.43-.67,2.57-2.01,3.42-1.34.85-3.22,1.28-5.64,1.28-5.1,0-9.18-.92-12.22-2.75-3.04-1.83-5.42-4.77-7.12-8.79-1.34-3.22-2.42-4.83-3.22-4.83-.63,0-1.39.58-2.28,1.75-4.66,5.91-8.19,9.8-10.61,11.68-2.42,1.88-5.15,2.82-8.19,2.82-3.76,0-6.76-.92-9-2.75-2.24-1.83-4.34-5.08-6.31-9.74-1.61-3.94-2.95-5.91-4.03-5.91-.81,0-2.46,1.52-4.97,4.57-2.78,3.4-4.79,5.71-6.04,6.91-1.25,1.21-2.73,2.4-4.43,3.56-3.76,2.24-8.51,3.36-14.23,3.36-6.45,0-11.73-.54-15.84-1.61,0,11.9-1.72,22.96-5.17,33.17-3.45,10.21-8.39,18.75-14.84,25.65-6.54,6.89-14.66,12.2-24.37,15.91-9.71,3.71-20.43,5.57-32.16,5.57-13.43,0-24.53-3.54-33.3-10.61-4.21-3.4-7.48-7.83-9.8-13.29-2.33-5.46-3.49-11.41-3.49-17.86,0-5.46.83-11.14,2.48-17.05,1.66-5.91,4-11.41,7.05-16.52,2.06-3.49,4.03-6.33,5.91-8.53,1.88-2.19,3.22-3.29,4.03-3.29s1.21.4,1.21,1.21c0,.45-.18.99-.54,1.61,0,.09-.36.9-1.07,2.42-.09.18-.67,1.25-1.75,3.22-2.6,5.28-4.68,10.41-6.24,15.38-1.57,4.97-2.35,9.11-2.35,12.42,0,8.41,4.25,15.31,12.76,20.68,8.5,5.37,19.34,8.06,32.5,8.06,8.77,0,17.3-1.17,25.58-3.49,8.28-2.33,15.33-5.55,21.15-9.67,4.21-2.95,7.05-6.42,8.53-10.41,1.48-3.98,2.22-10.18,2.22-18.6s-.67-15.62-2.01-22.16c-.99-1.07-1.61-1.75-1.88-2.01l-2.69-2.42c-2.06-1.97-4.39-5.01-6.98-9.13,3.67-6.09,7.65-12.08,11.95-17.99Z"/><path class="cls-1" d="M417.32,482.88c2.77,4.21,5.15,9.22,7.12,15.04,1.07,2.95,1.97,6.36,2.69,10.21.72,3.85,1.07,6.98,1.07,9.4,0,4.21-1.61,10.03-4.83,17.46-2.24,5.01-4.16,8.82-5.77,11.41-.9,1.34-2.24,2.42-4.03,3.22-1.79.81-4.7,1.66-8.73,2.55-5.73,1.17-11.24,1.75-16.52,1.75h-6.71c-2.5,0-4.45-.4-5.84-1.21-1.39-.81-2.08-1.97-2.08-3.49v-13.16l.13-.54c.63-1.52,2.33-2.28,5.1-2.28l2.82-.13,2.82-.13,5.77-.13c6.71,0,12.33-.69,16.85-2.08,4.52-1.39,8.3-3.51,11.35-6.38-1.16-4.12-2.55-7.72-4.16-10.81-1.61-3.09-4.03-6.82-7.25-11.21l10.21-19.47ZM395.43,424.2c5.55,4.57,10.25,8.01,14.1,10.34l2.55,1.48c3.76-4.83,6.8-9.35,9.13-13.56l.67-1.07c.89.63,1.43,1.07,1.61,1.34l2.82,2.15c2.69,2.15,5.64,4.16,8.86,6.04l2.95,1.75c.36.18,1.07.63,2.15,1.34-4.3,4.48-8.24,10.25-11.82,17.32-4.92-4.74-10.21-8.64-15.84-11.68-2.95,3.49-6.09,8.73-9.4,15.71-3.22-3.49-8.01-7.29-14.37-11.41l-3.22-2.15c-.18-.18-.67-.54-1.48-1.07,4.83-5.73,8.59-11.23,11.28-16.52Z"/><path class="cls-1" d="M543.81,554.18c-2.51,9.94-5.01,17.77-7.52,23.5-5.1,11.37-11.5,20.95-19.2,28.74-5.64,5.73-11.71,10.27-18.19,13.63-6.49,3.36-12.47,5.04-17.93,5.04-4.12,0-7.88-.58-11.28-1.75-3.4-1.16-7.34-3.18-11.82-6.04-3.94-2.6-7.25-5.1-9.94-7.52-2.69-2.42-4.03-4.12-4.03-5.1,0-.45.2-.83.6-1.14.4-.31.87-.47,1.41-.47.89,0,2.1.27,3.63.8l4.3,1.34,5.51,1.61c5.37,1.7,10.56,2.55,15.58,2.55,6.8,0,14.68-2.78,23.63-8.33,5.64-3.49,10.9-7.54,15.78-12.15,4.88-4.61,8.93-9.29,12.15-14.03,2.77-4.21,4.77-7.83,5.98-10.88,1.21-3.04,1.81-6.13,1.81-9.26v-.67l-5.64.13c-8.59,0-14.73-.85-18.4-2.55-5.46-2.69-8.19-7.56-8.19-14.64,0-9.13,3.49-18.84,10.47-29.14,5.37-8.06,10.25-12.08,14.64-12.08,4.65,0,8.95,5.24,12.89,15.71,2.42,6.18,3.85,13.38,4.3,21.62h13.7c1.43.18,2.37.27,2.82.27,2.77,0,4.48.81,5.1,2.42l.13.54v13.16c0,1.43-.69,2.57-2.08,3.42-1.39.85-3.34,1.28-5.84,1.28h-14.37ZM534.41,532.43c-.36-4.65-1.34-8.28-2.95-10.88-2.6-4.03-5.77-6.04-9.53-6.04-2.24,0-4.19,1.07-5.84,3.22-1.66,2.15-2.48,4.7-2.48,7.65,0,5.46,3.58,8.19,10.74,8.19,3.58,0,6.94-.72,10.07-2.15Z"/><path class="cls-1" d="M608.66,401.91c-2.95,2.24-5.55,4.75-7.79,7.52-2.6,3.22-3.89,7.57-3.89,13.02,0,3.04.31,7.54.94,13.49.62,5.95,1.34,11.35,2.15,16.18l2.28,13.7,1.61,11.68,1.48,10.47c.98,7.25,1.48,12.94,1.48,17.05,0,11.19-2.55,22.56-7.65,34.11-.99,2.33-1.9,4.03-2.75,5.1-.85,1.07-1.99,2.06-3.42,2.96-4.12,2.6-8.95,4.34-14.5,5.24-2.6.36-6.07.74-10.41,1.14-4.34.4-7.54.61-9.6.61-2.69,0-4.74-.4-6.18-1.21-1.43-.81-2.15-1.97-2.15-3.49v-13.16l.13-.54c.63-1.61,2.33-2.42,5.1-2.42l3.09-.13h4.3l7.12-.13,5.91-.27c14.05,0,21.08-6.04,21.08-18.13,0-2.77-.67-9.71-2.01-20.81l-1.88-15.31c-1.7-13.61-3.18-24.44-4.43-32.5l-2.82-16.25-1.75-11.01-1.61-8.59c-.63-3.4-1.34-6.58-2.15-9.53l-.81-3.22,13.43-17.99c.72,1.16,1.21,2.06,1.48,2.69,2.24,4.21,4.18,7.45,5.84,9.73,1.66,2.28,4.45,5.62,8.39,10Z"/><path class="cls-1" d="M682.92,483.82h105.68v12.89h-105.68v-12.89Z"/><path class="cls-1" d="M974.3,500.61l11.15-17.72c3.13,4.12,6.18,9.4,9.13,15.84,1.7,3.58,2.84,6.58,3.42,9,.58,2.42.87,5.15.87,8.19,0,7.16-2.1,14.59-6.31,22.29,4.74,1.25,7.97,2.78,9.67,4.57,1.7,1.79,2.55,4.48,2.55,8.06,0,11.1-6.71,22.29-20.14,33.57-9.58,8.06-21.04,14.7-34.38,19.94-13.34,5.24-25.51,7.86-36.52,7.86-13.96,0-25.42-2.87-34.38-8.59-11.91-7.7-17.86-20.46-17.86-38.27,0-13.96,3.89-28.42,11.68-43.37,5.1-9.85,8.82-14.77,11.14-14.77,1.25,0,1.88.72,1.88,2.15,0,.81-.31,1.75-.94,2.82-1.79,3.22-4.3,8.68-7.52,16.38-3.49,8.59-5.24,16.25-5.24,22.96,0,5.64.96,10.96,2.89,15.98,1.92,5.01,4.54,8.95,7.86,11.82,3.67,3.22,8.53,5.75,14.57,7.59,6.04,1.83,12.51,2.75,19.4,2.75,6,0,12.89-1.12,20.68-3.36,7.79-2.24,16.74-5.73,26.86-10.47,7.88-3.67,14.19-7.1,18.93-10.27,4.74-3.18,7.12-5.62,7.12-7.32,0-.99-1.39-1.84-4.16-2.55-3.76-.9-7.74-1.61-11.95-2.15l-5.37-.54-4.97-.67c-.63,0-2.37-.09-5.24-.27-.63-.09-1.57-.18-2.82-.27.54-5.19,1.66-10.16,3.36-14.9.09-.27.22-.76.4-1.48,11.37-.98,20.81-3.58,28.33-7.79-1.43-5.55-3.49-10.94-6.18-16.18-2.69-5.24-5.33-8.84-7.92-10.81ZM891.85,627.23c5.46,4.56,10.16,8.01,14.1,10.34l2.42,1.48c3.76-4.75,6.85-9.22,9.27-13.43l.54-1.07c.89.62,1.48,1.03,1.75,1.21l2.69,2.15c2.69,2.24,5.64,4.3,8.86,6.18l2.96,1.75c.36.18,1.12.62,2.28,1.34-4.3,4.48-8.28,10.21-11.95,17.19-4.92-4.75-10.21-8.64-15.85-11.68-2.87,3.58-5.95,8.86-9.26,15.84-3.31-3.49-8.1-7.34-14.37-11.55l-3.22-2.15c-.18-.09-.72-.4-1.61-.94,4.83-5.82,8.64-11.37,11.41-16.65ZM984.51,601.72c6.26,6.36,12.22,11.1,17.86,14.23-2.6,2.95-4.63,5.57-6.11,7.86-1.48,2.28-3.42,5.71-5.84,10.27-5.28-4.66-11.19-8.82-17.72-12.49l-1.61-.94,2.01-2.55c5.46-7.07,9.26-12.54,11.41-16.38Z"/><path class="cls-1" d="M1082.93,536.46l10.47-19.34c5.01,5.73,9.58,9.89,13.7,12.49,3.58,2.24,7.79,3.49,12.62,3.76l2.28.13c2.24.18,3.76.49,4.56.94.81.45,1.21,1.3,1.21,2.55v12.62c0,.81-.31,1.57-.94,2.28-.63.9-1.43,1.5-2.42,1.81-.99.31-2.46.47-4.43.47h-4.3c-1.7-.18-2.78-.27-3.22-.27-1.61,0-2.84.62-3.69,1.88-.85,1.25-1.63,3.67-2.35,7.25-2.42,12.26-6.6,23.27-12.56,33.03-5.95,9.76-12.96,17.19-21.01,22.29-3.22,1.97-6.89,3.6-11.01,4.9-4.12,1.3-7.79,1.95-11.01,1.95-3.04,0-7.3-.96-12.76-2.89-5.46-1.93-10.74-4.32-15.84-7.18-2.06-1.16-3.42-2.04-4.1-2.62-.67-.58-1.01-1.19-1.01-1.81,0-1.34.67-2.01,2.01-2.01.81,0,2.73.27,5.77.81,5.73,1.07,9.76,1.61,12.08,1.61,6.45,0,14.08-2.13,22.89-6.38,8.82-4.25,16.45-9.51,22.89-15.78,4.74-4.57,8.75-9.62,12.02-15.17,3.27-5.55,4.9-10.07,4.9-13.56,0-3.04-1.48-6.67-4.43-10.88-2.95-4.21-7.07-8.5-12.35-12.89Z"/><path class="cls-1" d="M1162.02,521.02c-4.83-6.62-10.47-10.56-16.92-11.82l-2.42-.54-1.34-.54c-.72-.18-1.07-.58-1.07-1.21,0-1.07.62-3,1.88-5.77,2.42-5.91,6.4-10.43,11.95-13.56,5.55-3.13,12.22-4.7,20.01-4.7,8.32,0,15.58,1.39,21.75,4.16,3.76,1.7,6.8,3.98,9.13,6.85,2.33,2.87,3.49,5.77,3.49,8.73,0,3.94-2.06,7.83-6.18,11.68-1.79,1.79-5.24,4.43-10.34,7.92,6.62,5.01,12.8,8.19,18.53,9.53,4.65.99,9.76,1.48,15.31,1.48,3.13,0,5.26.27,6.38.81,1.12.54,1.68,1.48,1.68,2.82l.13,12.62c0,1.17-.58,2.19-1.75,3.09-1.25,1.07-4.16,1.61-8.73,1.61-5.28,0-9.49-.36-12.62-1.07-2.69-.54-5.1-1.48-7.25-2.82s-5.64-3.98-10.47-7.92l-4.7-3.89c-6.8-5.64-11.24-8.46-13.29-8.46-1.79,0-6.8,2.78-15.04,8.33-9.85,6.63-17.17,10.92-21.96,12.89-4.79,1.97-10.23,2.96-16.31,2.96-3.13,0-5.28-.27-6.45-.81-2.42-1.16-3.62-2.55-3.62-4.16l.13-12.35c0-2.42,2.64-3.63,7.92-3.63l4.83-.13c2.5,0,5.82-.31,9.94-.94,4.12-.62,7.61-1.34,10.47-2.15,6-1.61,11.64-4.61,16.92-9Z"/><path class="cls-1" d="M1276.29,401.91c-2.95,2.24-5.55,4.75-7.79,7.52-2.6,3.22-3.89,7.57-3.89,13.02,0,3.04.31,7.54.94,13.49.62,5.95,1.34,11.35,2.15,16.18l2.28,13.7,1.61,11.68,1.48,10.47c.98,7.25,1.48,12.94,1.48,17.05,0,11.19-2.55,22.56-7.65,34.11-.99,2.33-1.9,4.03-2.75,5.1-.85,1.07-1.99,2.06-3.42,2.96-4.12,2.6-8.95,4.34-14.5,5.24-2.6.36-6.07.74-10.41,1.14-4.34.4-7.54.61-9.6.61-2.69,0-4.74-.4-6.18-1.21-1.43-.81-2.15-1.97-2.15-3.49v-13.16l.13-.54c.63-1.61,2.33-2.42,5.1-2.42l3.09-.13h4.3l7.12-.13,5.91-.27c14.05,0,21.08-6.04,21.08-18.13,0-2.77-.67-9.71-2.01-20.81l-1.88-15.31c-1.7-13.61-3.18-24.44-4.43-32.5l-2.82-16.25-1.75-11.01-1.61-8.59c-.63-3.4-1.34-6.58-2.15-9.53l-.81-3.22,13.43-17.99c.72,1.16,1.21,2.06,1.48,2.69,2.24,4.21,4.18,7.45,5.84,9.73,1.66,2.28,4.45,5.62,8.39,10Z"/><path class="cls-1" d="M1304.08,411.45l15.04-17.19c-.54,6.18-.8,12.62-.8,19.34,0,8.33.54,18.75,1.61,31.29l.94,9.53.81,9.67.94,9.13c1.79,19.07,2.69,34.42,2.69,46.06,0,9.94-.72,18.17-2.15,24.71-.9,3.76-1.95,6.74-3.16,8.93-1.21,2.19-2.44,3.29-3.69,3.29-.72,0-1.3-.4-1.75-1.21-.45-.8-.67-1.79-.67-2.95,0-.54.09-2.01.27-4.43.36-3.49.54-6.4.54-8.73,0-7.43-.76-17.05-2.28-28.87l-1.07-9.13c-.18-1.88-.49-4.97-.94-9.27l-1.07-9.8c-.45-3.58-.85-7.47-1.21-11.68l-1.21-11.95c-.45-5.1-.76-8.68-.94-10.74l-.54-9.27-.67-8.86c-.27-4.57-.4-7.43-.4-8.59l-.13-5.77-.13-3.49Z"/><path class="cls-1" d="M1527.66,533.37l29.94.27h2.15l2.82.13c2.77,0,4.48.76,5.1,2.28l.13.54c.09.27.13.49.13.67v12.62c0,1.07-.54,2.1-1.61,3.09-.81.63-1.81,1.05-3.02,1.28-1.21.22-3.34.34-6.38.34-1.88,0-5.77-.18-11.68-.54l-8.46-.54c-1.43-.09-5.33-.36-11.68-.81-3.58-.36-6.94-.62-10.07-.81-4.48-.36-7.25-.58-8.33-.67-6.09-.45-10.61-.67-13.56-.67-8.59,0-19.25.49-31.96,1.48l-8.32.67c-3.67.27-6.31.45-7.92.54l-8.19.4-6.71.4c-1.79.09-3.31.13-4.56.13-3.31,0-6.33-.61-9.06-1.81-2.73-1.21-5.75-3.29-9.06-6.24-2.42-2.15-4.41-4.25-5.98-6.31-1.57-2.06-2.35-3.63-2.35-4.7,0-1.25,1.61-1.88,4.83-1.88l4.83-.13h5.24c6.98,0,13.45-.6,19.4-1.81,5.95-1.21,10.45-2.8,13.5-4.77,6.71-4.48,10.07-12.53,10.07-24.17l-.13-8.06-.27-7.92c0-4.21-.81-13.61-2.42-28.2l-1.07-9.94c-1.25-11.73-2.75-21.69-4.5-29.88-1.75-8.19-3.96-15.6-6.65-22.22,1.43-1.34,2.33-2.24,2.69-2.69l2.69-2.95c2.15-2.5,3.51-4.16,4.1-4.97.58-.81,1.86-2.77,3.83-5.91,3.31,7.25,8.28,14.5,14.91,21.75-.81.9-1.39,1.52-1.75,1.88-3.22,3.31-5.39,6.13-6.51,8.46-1.12,2.33-1.68,5.15-1.68,8.46,0,1.7.4,5.19,1.21,10.47l1.34,8.46,1.48,9.8c1.79,12.44,2.69,23.9,2.69,34.38,0,1.52-.05,3.31-.13,5.37l-.27,5.1c-.09,2.33-.18,3.76-.27,4.3l-.4,3.76-.27,3.63c-.09.54-.31,1.61-.67,3.22l1.75.13c1.25-1.25,2.01-2.01,2.28-2.28l4.43-4.7c6.8-6.98,15.04-13.2,24.71-18.66,9.76-5.46,18.53-8.19,26.32-8.19s13.96,2.46,18.26,7.39c4.3,4.83,6.45,10.79,6.45,17.86s-1.84,13.07-5.51,18.8c-3.67,5.73-8.95,10.52-15.84,14.37ZM1535.18,508.8c-1.34-3.4-4.19-6.15-8.53-8.26-4.34-2.1-9.47-3.16-15.38-3.16s-11.97,1.39-17.93,4.16c-5.96,2.78-12.74,7.39-20.34,13.83-3.04,2.6-5.82,5.37-8.32,8.33-2.51,2.95-3.76,4.97-3.76,6.04,0,1.34.85,2.01,2.55,2.01,3.94,0,10.18-.92,18.73-2.75,8.55-1.83,16.49-3.96,23.83-6.38,16.29-5.37,26-9.98,29.14-13.83Z"/><path class="cls-1" d="M1642.46,512.56c-4.92-2.86-12.04-5.48-21.35-7.86-9.31-2.37-17.14-3.56-23.5-3.56-3.49,0-7.39.49-11.68,1.48-4.3.99-8.06,2.24-11.28,3.76-.99.36-1.83.54-2.55.54-1.25,0-1.88-.58-1.88-1.75,0-.36.13-.85.4-1.48l2.01-4.16c.89-1.79,2.37-4.01,4.43-6.65,2.06-2.64,4.03-4.85,5.91-6.65,4.3-4.12,9.22-6.18,14.77-6.18,3.04,0,6.71.67,11.01,2.01,5.1,1.52,8.23,2.28,9.4,2.28,3.49,0,6.22-1.56,8.19-4.7,1.61-2.5,2.42-6.22,2.42-11.15,0-5.73-.67-14.77-2.01-27.12l-1.34-11.95c-.81-7.52-1.46-12.8-1.95-15.84-.49-3.04-1.37-6.89-2.62-11.55-1.25-4.74-2.46-8.37-3.62-10.88,5.37-4.65,9.98-9.67,13.83-15.04.63,1.07,1.66,3.13,3.09,6.18,1.16,2.33,2.86,5.28,5.1,8.86,1.61,2.69,3,5.06,4.16,7.12-3.31,2.06-5.59,4.63-6.85,7.72-1.25,3.09-1.88,7.68-1.88,13.76,0,5.1.62,12.85,1.88,23.23,1.07,9.22,1.61,15.98,1.61,20.28,0,5.46-.52,9.78-1.54,12.96-1.03,3.18-3.02,6.69-5.98,10.54,1.61.99,3.8,2.01,6.58,3.09l6.58,2.55c10.65,4.21,22,7.27,34.04,9.2,12.04,1.93,25.76,2.89,41.16,2.89l-6.58,18.53c-7.88-.89-15.35-1.34-22.42-1.34-10.56,0-22.2,1.21-34.91,3.63-7.79,1.43-15.38,3.42-22.76,5.98-7.39,2.55-16.85,6.42-28.4,11.62-10.3,4.56-17.99,7.61-23.1,9.13-5.1,1.52-10.47,2.28-16.11,2.28-3.85,0-6.49-.11-7.92-.33-1.43-.22-2.55-.69-3.36-1.41-1.07-.89-1.61-1.92-1.61-3.09v-13.16l.13-.54c.63-1.61,2.33-2.42,5.1-2.42l3.36-.13h4.16l7.92.13c5.46,0,10.09-.49,13.9-1.48,3.8-.98,9.33-3.04,16.58-6.18,11.46-4.92,19.49-8.17,24.1-9.74,4.61-1.56,9.74-2.71,15.38-3.42ZM1587.54,425.81c6.27,6.36,12.22,11.1,17.86,14.23-2.6,2.95-4.63,5.55-6.11,7.79-1.48,2.24-3.42,5.64-5.84,10.21-5.37-4.57-11.28-8.73-17.72-12.49l-1.61-.94,2.01-2.55c5.46-7.07,9.26-12.49,11.41-16.25Z"/><path class="cls-1" d="M1744.11,411.45l15.04-17.19c-.54,6.18-.8,12.62-.8,19.34,0,8.33.54,18.75,1.61,31.29l.94,9.53.81,9.67.94,9.13c1.79,19.07,2.69,34.42,2.69,46.06,0,9.94-.72,18.17-2.15,24.71-.9,3.76-1.95,6.74-3.16,8.93-1.21,2.19-2.44,3.29-3.69,3.29-.72,0-1.3-.4-1.75-1.21-.45-.8-.67-1.79-.67-2.95,0-.54.09-2.01.27-4.43.36-3.49.54-6.4.54-8.73,0-7.43-.76-17.05-2.28-28.87l-1.07-9.13c-.18-1.88-.49-4.97-.94-9.27l-1.07-9.8c-.45-3.58-.85-7.47-1.21-11.68l-1.21-11.95c-.45-5.1-.76-8.68-.94-10.74l-.54-9.27-.67-8.86c-.27-4.57-.4-7.43-.4-8.59l-.13-5.77-.13-3.49Z"/></svg>
