<?xml version="1.0" encoding="UTF-8"?><svg id="montserrat-font-preview" xmlns="http://www.w3.org/2000/svg" viewBox="0 0 1928 1080"><defs><style>.cls-1{fill:#fff;}</style></defs><g id="background"><rect class="cls-1" x=".5" y=".5" width="1927" height="1079"/><path d="M1927,1v1078H1V1h1926M1928,0H0v1080h1928V0h0Z"/></g><path d="M278.01,579.7v-140h12.2l64,109.2h-6.4l63.4-109.2h12.2v140h-14.2v-117.8h3.4l-58.4,100h-7l-58.8-100h3.8v117.8h-14.2Z"/><path d="M530.21,580.9c-10.53,0-20.3-1.77-29.3-5.3-9-3.53-16.8-8.53-23.4-15-6.6-6.46-11.73-14-15.4-22.6-3.67-8.6-5.5-18.03-5.5-28.3s1.83-19.7,5.5-28.3c3.67-8.6,8.8-16.13,15.4-22.6,6.6-6.47,14.37-11.47,23.3-15,8.93-3.53,18.73-5.3,29.4-5.3s20.27,1.77,29.2,5.3c8.93,3.53,16.7,8.5,23.3,14.9,6.6,6.4,11.73,13.93,15.4,22.6,3.67,8.67,5.5,18.13,5.5,28.4s-1.83,19.73-5.5,28.4c-3.67,8.67-8.8,16.2-15.4,22.6-6.6,6.4-14.37,11.37-23.3,14.9-8.93,3.54-18.67,5.3-29.2,5.3ZM530.21,567.7c8.4,0,16.17-1.43,23.3-4.3,7.13-2.87,13.33-6.93,18.6-12.2s9.37-11.4,12.3-18.4c2.93-7,4.4-14.7,4.4-23.1s-1.47-16.1-4.4-23.1c-2.93-7-7.04-13.13-12.3-18.4-5.27-5.27-11.47-9.33-18.6-12.2-7.13-2.87-14.9-4.3-23.3-4.3s-16.2,1.43-23.4,4.3c-7.2,2.87-13.47,6.93-18.8,12.2-5.33,5.27-9.47,11.4-12.4,18.4-2.93,7-4.4,14.7-4.4,23.1s1.47,15.93,4.4,23c2.93,7.07,7.07,13.23,12.4,18.5,5.33,5.27,11.6,9.33,18.8,12.2,7.2,2.87,15,4.3,23.4,4.3Z"/><path d="M636.8,579.7v-140h12.2l96.6,121.6h-6.4v-121.6h14.6v140h-12.2l-96.4-121.6h6.4v121.6h-14.8Z"/><path d="M826.6,579.7v-127.2h-49.2v-12.8h113.2v12.8h-49.2v127.2h-14.8Z"/><path d="M950.6,580.9c-10.4,0-20.37-1.7-29.9-5.1-9.53-3.4-16.9-7.77-22.1-13.1l5.8-11.4c4.93,4.8,11.57,8.83,19.9,12.1,8.33,3.27,17.1,4.9,26.3,4.9s15.97-1.1,21.5-3.3c5.53-2.2,9.6-5.17,12.2-8.9,2.6-3.73,3.9-7.87,3.9-12.4,0-5.47-1.57-9.87-4.7-13.2-3.13-3.33-7.23-5.97-12.3-7.9-5.07-1.93-10.67-3.63-16.8-5.1-6.13-1.47-12.27-3.03-18.4-4.7-6.13-1.67-11.77-3.9-16.9-6.7-5.13-2.8-9.27-6.5-12.4-11.1-3.13-4.6-4.7-10.63-4.7-18.1,0-6.93,1.83-13.3,5.5-19.1,3.67-5.8,9.3-10.47,16.9-14,7.6-3.53,17.33-5.3,29.2-5.3,7.87,0,15.67,1.1,23.4,3.3,7.73,2.2,14.4,5.23,20,9.1l-5,11.8c-6-4-12.37-6.93-19.1-8.8-6.73-1.87-13.23-2.8-19.5-2.8-8.4,0-15.33,1.13-20.8,3.4-5.47,2.27-9.5,5.3-12.1,9.1-2.6,3.8-3.9,8.1-3.9,12.9,0,5.47,1.57,9.87,4.7,13.2,3.13,3.33,7.27,5.93,12.4,7.8,5.13,1.87,10.77,3.53,16.9,5,6.13,1.47,12.23,3.07,18.3,4.8,6.07,1.73,11.67,3.97,16.8,6.7,5.13,2.73,9.27,6.37,12.4,10.9,3.13,4.53,4.7,10.47,4.7,17.8,0,6.8-1.87,13.1-5.6,18.9-3.73,5.8-9.43,10.47-17.1,14-7.67,3.54-17.5,5.3-29.5,5.3Z"/><path d="M1073.6,580.9c-10.4,0-20.37-1.7-29.9-5.1-9.53-3.4-16.9-7.77-22.1-13.1l5.8-11.4c4.93,4.8,11.57,8.83,19.9,12.1,8.33,3.27,17.1,4.9,26.3,4.9s15.96-1.1,21.5-3.3c5.53-2.2,9.6-5.17,12.2-8.9,2.6-3.73,3.9-7.87,3.9-12.4,0-5.47-1.57-9.87-4.7-13.2-3.13-3.33-7.23-5.97-12.3-7.9-5.07-1.93-10.67-3.63-16.8-5.1-6.13-1.47-12.27-3.03-18.4-4.7-6.13-1.67-11.77-3.9-16.9-6.7-5.13-2.8-9.27-6.5-12.4-11.1-3.13-4.6-4.7-10.63-4.7-18.1,0-6.93,1.83-13.3,5.5-19.1,3.67-5.8,9.3-10.47,16.9-14,7.6-3.53,17.33-5.3,29.2-5.3,7.87,0,15.67,1.1,23.4,3.3,7.73,2.2,14.4,5.23,20,9.1l-5,11.8c-6-4-12.37-6.93-19.1-8.8-6.73-1.87-13.23-2.8-19.5-2.8-8.4,0-15.33,1.13-20.8,3.4-5.47,2.27-9.5,5.3-12.1,9.1-2.6,3.8-3.9,8.1-3.9,12.9,0,5.47,1.57,9.87,4.7,13.2,3.13,3.33,7.27,5.93,12.4,7.8,5.13,1.87,10.77,3.53,16.9,5,6.13,1.47,12.23,3.07,18.3,4.8,6.07,1.73,11.67,3.97,16.8,6.7,5.13,2.73,9.27,6.37,12.4,10.9,3.13,4.53,4.7,10.47,4.7,17.8,0,6.8-1.87,13.1-5.6,18.9-3.73,5.8-9.43,10.47-17.1,14-7.67,3.54-17.5,5.3-29.5,5.3Z"/><path d="M1158,579.7v-140h96v12.8h-81.2v114.4h84.2v12.8h-99ZM1171.2,514.9v-12.6h74v12.6h-74Z"/><path d="M1291.79,579.7v-140h52.4c17.73,0,31.7,4.23,41.9,12.7,10.2,8.47,15.3,20.23,15.3,35.3,0,9.87-2.3,18.37-6.9,25.5-4.6,7.13-11.17,12.6-19.7,16.4-8.53,3.8-18.73,5.7-30.6,5.7h-44.2l6.6-6.8v51.2h-14.8ZM1306.59,529.7l-6.6-7h43.8c14,0,24.63-3.07,31.9-9.2,7.27-6.13,10.9-14.73,10.9-25.8s-3.63-19.87-10.9-26c-7.27-6.13-17.9-9.2-31.9-9.2h-43.8l6.6-7v84.2ZM1387.4,579.7l-36-50.8h16l36.2,50.8h-16.2Z"/><path d="M1413.99,579.7l64-140h14.6l64,140h-15.6l-58.8-131.4h6l-58.8,131.4h-15.4ZM1439.19,542.3l4.4-12h81.4l4.4,12h-90.2Z"/><path d="M1600,579.7v-127.2h-49.2v-12.8h113.2v12.8h-49.2v127.2h-14.8Z"/></svg>
