<?xml version="1.0" encoding="UTF-8"?><svg id="Layer_1" xmlns="http://www.w3.org/2000/svg" viewBox="0 0 1928 1080"><defs><style>.cls-1{fill:#fff;}.cls-2{fill:#253551;}</style></defs><rect class="cls-2" x=".5" y=".5" width="1927" height="1079"/><path d="M1927,1v1078H1V1h1926M1928,0H0v1080h1928V0h0Z"/><path class="cls-1" d="M157.63,620.96c0,.85-.68,1.28-2.05,1.28-4.27,0-10.68-4.25-19.23-12.73-11.28-11-20.08-24.95-26.4-41.87-11.74-.11-17.6-1.62-17.6-4.53,7.75-8.09,11.62-14.36,11.62-18.8-3.48,0-7.22,2.05-11.24,6.15-4.02,4.1-6.31,6.15-6.88,6.15-2.11,0-3.65-4.53-4.61-13.59-6.21-3.08-9.31-5.78-9.31-8.12,0-2.56,2.93-5.55,8.8-8.97.57-8.72,1.94-13.07,4.1-13.07,8.6,8.03,14.98,12.05,19.14,12.05-.46-4.33-2.66-8.42-6.62-12.26-3.96-3.84-5.94-6.02-5.94-6.54,0-.91,1.71-1.88,5.13-2.91,3.87-1.2,8.17-1.88,12.9-2.05,4.1-12.19,9.57-23.04,16.41-32.56,5.3-7.46,11.02-13.61,17.18-18.46,4.84-3.87,8.26-5.81,10.25-5.81,1.14,0,1.71.66,1.71,1.96,0,.51-2.02,3.08-6.07,7.69-5.07,5.64-9.2,11.45-12.39,17.43-4.96,9.17-8.29,19.37-10,30.59,5.58.85,8.37,2.11,8.37,3.76-7.86,7.98-11.79,14.16-11.79,18.54,4.04,0,10.05-4.1,18.03-12.3,1.03,0,2.06,1.48,3.12,4.44,1.05,2.96,1.67,6.04,1.84,9.23,5.92,3.13,8.89,5.95,8.89,8.46,0,2.11-2.79,4.79-8.37,8.03-.46,9-2.02,13.5-4.7,13.5l-5.64-5.47c-3.87-3.82-8.15-5.95-12.82-6.41,0,3.99,2.05,7.99,6.15,12.01,4.1,4.02,6.15,6.37,6.15,7.05,0,1.31-3.02,2.59-9.06,3.85,1.82,9.11,5.48,18.53,10.98,28.24,5.5,9.71,11.55,17.44,18.16,23.2,1.2.97,1.79,1.91,1.79,2.82ZM99.78,540.38c-5.24-2.33-7.86-4.41-7.86-6.24s2.59-3.76,7.78-5.64c-1.54-.46-3.85-2.25-6.92-5.38-2.62-2.73-4.93-4.1-6.92-4.1-1.03,0-1.54,3.28-1.54,9.83-5.13,2.96-7.69,4.99-7.69,6.07,0,1.48,2.56,3.13,7.69,4.96.63,7.06,1.31,10.6,2.05,10.6.4,0,1.94-1.28,4.61-3.85,2.91-3.02,5.84-5.1,8.8-6.24ZM147.63,450.58c-15.61,10.54-27.6,28.71-35.97,54.52-6.78.34-10.74.6-11.88.77-1.37.23-2.05.68-2.05,1.37l3.25,3.16c2.73,2.51,4.93,5.44,6.58,8.8,2.51-4.56,4.56-6.84,6.15-6.84,1.08,0,2.91,2.28,5.47,6.84.57-1.37,2.39-3.42,5.47-6.15,2.73-2.39,4.1-4.53,4.1-6.41,0-.57-.85-1.03-2.56-1.37l-3.93-.68c3.36-13.61,6.12-22.99,8.29-28.11,3.3-7.75,9-16.38,17.09-25.89ZM151.39,617.46c-6.32-5.7-11.94-12.85-16.83-21.45-5.93-10.37-9.74-21.08-11.45-32.13,4.39-.4,6.58-1,6.58-1.79l-3.67-3.5c-2.79-2.62-5.07-5.67-6.84-9.14-2.05,4.61-3.9,6.92-5.55,6.92-2.28,0-4.19-2.31-5.73-6.92-1.6,3.76-3.65,6.92-6.15,9.48l-3.16,3.5c0,.46,2.59.94,7.78,1.45,1.42,0,3.39-.08,5.9-.26,7.63,24.04,20.68,41.98,39.14,53.83ZM124.48,534.57c0-3.02-1.07-5.58-3.2-7.69-2.14-2.11-4.69-3.16-7.65-3.16s-5.65,1.05-7.73,3.16c-2.08,2.11-3.12,4.67-3.12,7.69,0,2.85,1.04,5.3,3.12,7.35,2.08,2.05,4.66,3.08,7.73,3.08s5.51-1.03,7.65-3.08c2.14-2.05,3.2-4.5,3.2-7.35ZM150.45,533.63c0-1.42-2.59-3.02-7.78-4.79-.63-7.06-1.34-10.6-2.14-10.6-.4,0-1.91,1.31-4.53,3.93-2.91,2.96-5.84,4.99-8.8,6.07,5.35,2.39,8.03,4.5,8.03,6.32s-2.56,3.7-7.69,5.64c3.65,1.25,6.92,3.22,9.83,5.9l3.76,3.5c1.03,0,1.54-3.25,1.54-9.74,5.18-2.91,7.78-4.98,7.78-6.24Z"/><path class="cls-1" d="M201.21,540.13c1.03,0,1.99.31,2.91.94.91.63,1.85,1.42,2.82,2.39.97.97,1.98,2.04,3.03,3.2,1.05,1.17,2.18,2.26,3.38,3.29,1.59,1.37,3.32,2.46,5.17,3.29,1.85.83,3.8,1.47,5.85,1.92,2.05.4,4.16.67,6.32.81,2.16.14,4.33.21,6.49.21h1.54c1.77,0,3.1.7,4.02,2.09.91,1.4,1.37,2.95,1.37,4.66s-.46,3.18-1.37,4.57c-.91,1.4-2.25,2.09-4.02,2.09h-1.54c-1.25,0-2.65-.01-4.19-.04-1.54-.03-3.16-.1-4.87-.21-1.77-.11-3.6-.3-5.51-.55-1.91-.26-3.89-.64-5.94-1.15-.17,1.54-.37,2.91-.6,4.1-.23,1.2-.68,1.91-1.37,2.14-2.17.46-4.8.51-7.9.17-3.11-.34-6.17-1.05-9.19-2.14-3.02-1.08-5.74-2.33-8.16-3.76-2.42-1.42-4.03-2.85-4.83-4.27-1.14.46-2.34,1.11-3.59,1.97-1.25.85-2.41,1.84-3.46,2.95-1.06,1.11-1.94,2.33-2.65,3.67-.71,1.34-1.07,2.69-1.07,4.06,0,2.16.21,4.98.64,8.46.43,3.47.95,7.12,1.58,10.94.57,3.87,1.18,7.69,1.84,11.45.65,3.76,1.18,7.01,1.58,9.74.4,2.39.77,5.03,1.11,7.9.34,2.88.6,5.72.77,8.54.17,2.82.21,5.47.13,7.95-.09,2.48-.38,4.49-.9,6.02-.23.68-.57,1.04-1.03,1.07-.46.03-.8-.33-1.03-1.07-.34-1.14-.57-2.28-.68-3.42-.11-1.14-.29-2.28-.51-3.42-.17-1.03-.48-3.19-.94-6.49-.46-3.3-1.11-7.72-1.97-13.25-.8-5.24-1.55-10.01-2.26-14.31-.71-4.3-1.35-8.16-1.92-11.58-.57-3.42-1.03-6.41-1.37-8.97s-.57-4.76-.68-6.58c-.29-5.18.27-9.64,1.67-13.37,1.4-3.73,3.46-6.88,6.19-9.44,1.03-.97,2.65-2.38,4.87-4.23,2.22-1.85,4.58-3.69,7.09-5.51,2.51-1.82,4.97-3.42,7.39-4.79,2.42-1.37,4.34-2.05,5.77-2.05ZM199.33,549.53c-1.42-.11-3.01.24-4.74,1.07-1.74.83-3.18,1.75-4.31,2.78-.57.51-.54.94.09,1.28,1.25.8,2.81,1.58,4.66,2.35,1.85.77,3.69,1.41,5.51,1.92,1.88.57,3.62.97,5.21,1.2,1.59.23,2.76.2,3.5-.08-.68-1.37-1.54-2.68-2.56-3.93-1.03-1.25-2.05-2.36-3.08-3.33-1.03-.97-1.94-1.75-2.73-2.35-.8-.6-1.31-.9-1.54-.9Z"/><path class="cls-1" d="M263.5,522.61c.11-.46.31-.7.6-.73.28-.03.77.27,1.45.9,1.54,1.6,2.98,3.33,4.32,5.21,1.34,1.88,2.52,3.85,3.55,5.9s1.84,4.16,2.44,6.32c.6,2.17.92,4.33.98,6.49,0,.97-.07,2.07-.21,3.29-.14,1.23-.34,2.45-.6,3.67-.26,1.23-.57,2.39-.94,3.5-.37,1.11-.81,2.04-1.32,2.78-.91,1.37-2.24,2.56-3.97,3.59-1.74,1.03-3.69,1.89-5.85,2.61-2.17.71-4.47,1.3-6.92,1.75-2.45.46-4.87.81-7.26,1.07-2.39.26-4.69.43-6.88.51-2.19.08-4.09.13-5.68.13h-1.54c-1.82,0-3.17-.7-4.06-2.09-.88-1.4-1.32-2.93-1.32-4.61s.44-3.22,1.32-4.61c.88-1.4,2.24-2.09,4.06-2.09h1.54c.91,0,2.21-.01,3.89-.04,1.68-.03,3.57-.09,5.68-.17,2.11-.09,4.32-.2,6.62-.34,2.31-.14,4.54-.36,6.71-.64,2.16-.28,4.13-.63,5.9-1.03,1.77-.4,3.16-.88,4.19-1.45.97-.51,1.31-1.25,1.03-2.22-.97-3.13-2.41-5.91-4.32-8.33-1.91-2.42-4.06-4.83-6.45-7.22.46-1.99.95-4.02,1.5-6.07.54-2.05,1.07-4.07,1.58-6.07ZM265.04,599.86c-.23.28-.46.43-.68.43s-.48-.08-.77-.26l-9.66-6.49-4.96,8.63c-.51.57-.94.68-1.28.34l-10.25-6.84c-.34-.17-.43-.46-.26-.85l5.38-8.63c.4-.51.8-.66,1.2-.43l9.66,6.49,5.21-8.54c.17-.17.48-.23.94-.17l10.25,6.67c.4.28.46.68.17,1.2l-4.96,8.46Z"/><path class="cls-1" d="M326.39,637.03c-5.58,1.77-11.08,3.56-16.49,5.38-5.41,1.82-10.6,3.53-15.55,5.13-.91.28-1.14,0-.68-.85l3.5-6.49c.17-.34.33-.6.47-.77.14-.17.38-.31.73-.43,1.54-.57,3.56-1.27,6.07-2.09,2.51-.83,5.23-1.71,8.16-2.65,2.93-.94,5.94-1.89,9.01-2.86,3.08-.97,6.01-1.88,8.8-2.73.46-.17.74-.21.85-.13.11.08.06.36-.17.81l-3.67,6.67c-.17.23-.33.44-.47.64-.14.2-.33.33-.56.38Z"/><path class="cls-1" d="M326.56,546.96c.23-.8.63-.85,1.2-.17,1.77,2.11,3.53,3.77,5.3,5,1.77,1.23,3.59,2.15,5.47,2.78.97.34,1.91.61,2.82.81.91.2,1.87.37,2.86.51,1,.14,2.09.23,3.29.26,1.2.03,2.56.04,4.1.04h1.54c1.82,0,3.19.7,4.1,2.09.91,1.4,1.37,2.92,1.37,4.57s-.46,3.26-1.37,4.66c-.91,1.4-2.28,2.09-4.1,2.09h-1.54c-1.88,0-3.8-.07-5.77-.21-1.96-.14-3.89-.36-5.77-.64-.57,3.13-1.25,6.08-2.05,8.84-.8,2.76-1.62,5.34-2.48,7.73-2.05,5.3-4.44,10.03-7.18,14.18-2.62,4.1-6.58,7.58-11.88,10.42-2.91,1.59-5.93,2.79-9.06,3.59-3.13.8-6.27,1.28-9.4,1.45-2.05.11-4.06.14-6.02.09-1.96-.06-3.97-.21-6.02-.47-2.05-.26-4.17-.66-6.37-1.2-2.19-.54-4.51-1.27-6.96-2.18-.68-.29-1.15-.63-1.41-1.03-.26-.4-.3-.8-.13-1.2.29-.74,1.42-1.11,3.42-1.11,3.42.06,6.58,0,9.48-.17s5.73-.56,8.46-1.15c2.73-.6,5.48-1.42,8.25-2.48,2.76-1.05,5.77-2.46,9.02-4.23,3.47-1.88,6.58-4,9.31-6.37,2.73-2.36,5.13-4.91,7.18-7.65,1.99-2.73,3.7-5.61,5.13-8.63,1.42-3.02,2.53-6.15,3.33-9.4-2.17-.91-4.27-2.16-6.32-3.76-2.05-1.59-3.73-3.25-5.04-4.96l3.25-12.13Z"/><path class="cls-1" d="M400.05,437.25c-2.85,1.31-5.83,2.68-8.93,4.1-3.11,1.42-6.11,2.79-9.02,4.1-2.91,1.31-5.61,2.54-8.12,3.67-2.51,1.14-4.64,2.08-6.41,2.82-.4.17-.68.17-.85,0s-.17-.43,0-.77l4.19-8.37c.28-.46.58-.78.9-.98.31-.2.61-.38.9-.55l31.19-13.84c.91-.4,1.2-.17.85.68l-3.5,7.95c-.17.51-.57.91-1.2,1.2Z"/><path class="cls-1" d="M350.06,556.19h1.54c2.51,0,5.78.01,9.83.04,4.04.03,8.29-.16,12.73-.56,4.39-.4,8.69-1.12,12.9-2.18,4.21-1.05,7.75-2.66,10.6-4.83-.8-2.62-2.61-5.99-5.43-10.12-2.82-4.13-8.76-10.07-17.82-17.82l-22.47-18.03c-.63-.51-.94-1.55-.94-3.12s.2-3.32.6-5.26c.4-1.94.95-3.87,1.67-5.81.71-1.94,1.44-3.5,2.18-4.7,3.02-3.7,8.25-7.82,15.68-12.35,7.43-4.53,14.11-8.36,20.04-11.49,5.13-2.68,14.07-7.12,26.83-13.33,12.76-6.21,21.76-10.6,27-13.16.23-.06.4-.03.51.09.11.11.11.31,0,.6-.57,2.17-1.25,4.42-2.05,6.75-.8,2.34-1.6,4.5-2.39,6.49-4.44,2.05-11.81,5.44-22.09,10.17-10.28,4.73-17.65,8.15-22.09,10.25-5.18,2.51-11,5.48-17.43,8.93-6.44,3.45-10.61,5.81-12.52,7.09-1.91,1.28-3.69,2.49-5.34,3.63-1.37,1.03-2.35,2.08-2.95,3.16-.6,1.08-.9,1.94-.9,2.56,6.89,4.44,13.59,8.75,20.08,12.9,6.49,4.16,12.99,8.72,19.48,13.67,1.99,1.54,4.24,3.36,6.75,5.47,2.51,2.11,5.13,4.32,7.86,6.62,2.73,2.31,5.51,4.6,8.33,6.88,2.82,2.28,5.45,4.36,7.9,6.24,2.68,1.99,5.03,3.7,7.05,5.13,2.02,1.42,4.07,2.59,6.15,3.5,2.08.91,4.36,1.57,6.84,1.97,2.48.4,5.45.6,8.93.6h1.54c1.82,0,3.17.71,4.06,2.14.88,1.42,1.32,2.96,1.32,4.61s-.44,3.18-1.32,4.57c-.88,1.4-2.24,2.09-4.06,2.09h-1.54c-3.25,0-6.24-.23-8.97-.68-2.73-.46-5.36-1.14-7.86-2.05-2.51-.91-4.96-2.08-7.35-3.5-2.39-1.42-4.84-3.1-7.35-5.04-2.73-2.05-5.4-4.26-7.99-6.62-2.59-2.36-5.08-4.67-7.48-6.92-2.39-2.25-4.66-4.39-6.79-6.41-2.14-2.02-4.12-3.75-5.94-5.17,1.14,1.25,2.14,3.05,2.99,5.38.85,2.34,1.38,4.83,1.58,7.48.2,2.65-.06,5.25-.77,7.82-.71,2.56-2.09,4.76-4.14,6.58-2.62,2.28-6.05,4.05-10.3,5.3-4.24,1.25-8.59,2.17-13.03,2.73-4.5.57-8.76.9-12.77.98-4.02.08-7.14.13-9.36.13h-1.54c-1.82,0-3.19-.7-4.1-2.09-.91-1.4-1.37-2.92-1.37-4.57s.46-3.19,1.37-4.61c.91-1.42,2.28-2.14,4.1-2.14Z"/><path class="cls-1" d="M465.08,454.08c.17-.51.4-.83.68-.94.28-.11.51.2.68.94.46,1.37.97,2.76,1.54,4.19.57,1.42,1.24,2.82,2.01,4.19.77,1.37,1.67,2.64,2.69,3.8,1.03,1.17,2.19,2.15,3.5,2.95-.8,1.37-1.5,2.55-2.09,3.55-.6,1-1.1,1.91-1.5,2.73-.4.83-.68,1.62-.85,2.39-.17.77-.2,1.58-.09,2.43.63,5.47,1.35,10.95,2.18,16.45.82,5.5,1.62,10.98,2.39,16.45.77,5.47,1.45,10.94,2.05,16.41.6,5.47.98,10.97,1.15,16.49.06,1.82-.06,3.67-.34,5.55-.29,1.88-.74,3.67-1.37,5.38-.63,1.71-1.41,3.32-2.35,4.83-.94,1.51-2.01,2.78-3.2,3.8-1.65,1.42-3.69,2.44-6.11,3.03-2.42.6-5.37.9-8.84.9h-1.54c-1.82,0-3.2-.7-4.14-2.09-.94-1.4-1.41-2.93-1.41-4.61s.47-3.22,1.41-4.61c.94-1.4,2.32-2.09,4.14-2.09h1.54c1.88,0,3.7-.07,5.47-.21,1.77-.14,3.39-.4,4.87-.77,1.48-.37,2.75-.88,3.8-1.54,1.05-.65,1.81-1.5,2.26-2.52-1.14-12.02-2.62-23.88-4.44-35.59-1.82-11.71-3.59-23.48-5.3-35.33-.34-2.39-.7-4.74-1.07-7.05-.37-2.31-1.21-4.54-2.52-6.71-.46-.63-.71-1.04-.77-1.24-.06-.2.09-.64.43-1.33.97-1.65,1.87-3.35,2.69-5.08.83-1.74,1.64-3.32,2.44-4.74Z"/><path class="cls-1" d="M501.74,458.87c.91.06,1.34,1.11,1.28,3.16-.11,2.17-.09,4.29.09,6.37.17,2.08.4,4.17.68,6.28.57,5.07,1.25,10.3,2.05,15.68.8,5.38,1.59,10.81,2.39,16.28.74,5.41,1.48,10.82,2.22,16.24.74,5.41,1.37,10.68,1.88,15.81.23,1.99.38,4.33.47,7.01.08,2.68.06,5.4-.09,8.16-.14,2.76-.46,5.43-.94,7.99-.48,2.56-1.15,4.7-2.01,6.41-.46.97-1,1.59-1.62,1.88-.51.06-.74-.17-.68-.68-.34-4.96-.76-9.96-1.24-15-.48-5.04-1.1-10.18-1.84-15.42-.74-5.41-1.48-10.77-2.22-16.06-.74-5.3-1.45-10.6-2.14-15.89-.74-5.3-1.47-10.6-2.18-15.89-.71-5.3-1.41-10.62-2.09-15.98.17-1.31.43-2.66.77-4.06.34-1.4.83-2.83,1.45-4.32,1.37-3.7,2.29-5.95,2.78-6.75.48-.8.81-1.2.98-1.2Z"/><path class="cls-1" d="M620.85,615.67c-5.58,1.77-11.08,3.56-16.49,5.38-5.41,1.82-10.6,3.53-15.55,5.13-.91.28-1.14,0-.68-.85l3.5-6.49c.17-.34.33-.6.47-.77.14-.17.38-.31.73-.43,1.54-.57,3.56-1.27,6.07-2.09,2.51-.83,5.23-1.71,8.16-2.65,2.93-.94,5.94-1.89,9.01-2.86,3.08-.97,6.01-1.88,8.8-2.73.46-.17.74-.21.85-.13.11.08.06.36-.17.81l-3.67,6.67c-.17.23-.33.44-.47.64-.14.2-.33.33-.56.38Z"/><path class="cls-1" d="M643.5,560.38c-.85,5.41-2.83,10.15-5.94,14.23-3.11,4.07-6.82,7.45-11.15,10.12-4.39,2.73-9.14,4.77-14.27,6.11-5.13,1.34-10.17,2.01-15.12,2.01-4.56,0-8.82-.71-12.77-2.14-3.96-1.42-7.42-3.48-10.38-6.15-2.96-2.68-5.3-5.95-7.01-9.83-1.71-3.88-2.56-8.26-2.56-13.16,0-5.3.9-10.44,2.69-15.42,1.79-4.98,4.14-9.7,7.05-14.14.34-.51.65-.75.94-.73.28.03.51.17.68.43.17.26.3.57.38.94.08.37.07.64-.04.81-2.73,5.47-4.46,10.85-5.17,16.15-.71,5.3-.19,10.17,1.58,14.61,1.71,4.39,4.64,7.99,8.8,10.81,4.16,2.82,9.77,4.23,16.83,4.23,3.65,0,7.36-.37,11.15-1.11,3.79-.74,7.45-1.82,10.98-3.25,3.59-1.48,6.96-3.3,10.13-5.47,3.16-2.16,5.94-4.67,8.33-7.52.06-3.3-.33-6.82-1.15-10.55-.83-3.73-1.95-7.42-3.38-11.07-1.42-3.7-3.02-7.26-4.79-10.68-1.77-3.42-3.53-6.49-5.3-9.23.63-1.99,1.22-3.97,1.79-5.94.57-1.97,1.22-3.94,1.97-5.94.23-.68.5-.9.81-.64.31.26.58.53.81.81,2.62,3.7,4.96,7.62,7.01,11.75,2.05,4.13,3.73,8.39,5.04,12.77,1.25,4.39,2.08,8.87,2.48,13.46.4,4.59.26,9.16-.43,13.71ZM604.62,485.61l10.6,8.8c.28.23.4.46.34.68-.06.23-.14.43-.26.6l-7.09,8.89c-.34.51-.83.54-1.45.09l-10.6-8.72c-.4-.34-.4-.8,0-1.37l7.18-8.8c.34-.46.77-.51,1.28-.17Z"/><path class="cls-1" d="M706,428.31c.18.12.25.44.22.95-.03.51-.15,1.1-.36,1.76-.21.66-.45,1.32-.72,1.98-.27.66-.55,1.26-.85,1.8-1.49,2.35-3.18,4.33-5.06,5.95-1.88,1.62-3.9,2.98-6.04,4.06-2.09,1.02-4.27,1.79-6.54,2.3-2.27.51-4.54.83-6.81.95-3.22.12-6.33-.21-9.31-.99-2.99-.78-5.52-1.86-7.61-3.25-.78-.48-1.19-.45-1.25.09-.12.42-.4,1.02-.85,1.8-.45.78-.94,1.53-1.48,2.26-.54.72-1.06,1.35-1.57,1.89-.51.54-.91.81-1.21.81-.48,0-.67-.39-.58-1.17.09-.78.19-1.44.31-1.99.12-.78.37-1.85.76-3.2.39-1.35.84-2.75,1.34-4.19.51-1.44,1.03-2.81,1.57-4.1.54-1.29.99-2.3,1.34-3.02.36-.6,1.04-.63,2.06-.09,2.93,1.38,6.06,2.51,9.4,3.38,3.34.87,6.63,1.25,9.85,1.13,2.09-.12,4.13-.33,6.13-.63,2-.3,3.93-.81,5.78-1.53,1.91-.66,3.73-1.52,5.46-2.57,1.73-1.05,3.37-2.36,4.93-3.92.48-.48.83-.63,1.08-.45ZM676.65,458.01c.91.06,1.34,1.11,1.28,3.16-.11,2.17-.09,4.29.09,6.37.17,2.08.4,4.17.68,6.28.57,5.07,1.25,10.3,2.05,15.68.8,5.38,1.59,10.81,2.39,16.28.74,5.41,1.48,10.82,2.22,16.24.74,5.41,1.37,10.68,1.88,15.81.23,1.99.38,4.33.47,7.01.08,2.68.06,5.4-.09,8.16-.14,2.76-.46,5.43-.94,7.99-.48,2.56-1.15,4.7-2.01,6.41-.46.97-1,1.6-1.62,1.88-.51.06-.74-.17-.68-.68-.34-4.96-.76-9.96-1.24-15-.48-5.04-1.1-10.18-1.84-15.42-.74-5.41-1.48-10.77-2.22-16.06-.74-5.3-1.45-10.6-2.14-15.89-.74-5.3-1.47-10.6-2.18-15.89-.71-5.3-1.41-10.62-2.09-15.98.17-1.31.43-2.66.77-4.06.34-1.4.83-2.83,1.45-4.32,1.37-3.7,2.29-5.95,2.78-6.75.48-.8.81-1.2.98-1.2Z"/><path class="cls-1" d="M738.26,481.77c0,1.94-.26,3.82-.77,5.64-.51,1.82-1.31,3.45-2.39,4.87-1.08,1.42-2.46,2.56-4.14,3.42-1.68.85-3.69,1.28-6.02,1.28-2.91,0-5.36-.94-7.35-2.82-1.99-1.88-3.05-4.39-3.16-7.52,0-1.59.24-3.52.73-5.77.48-2.25,1.24-4.43,2.26-6.54,1.03-2.11,2.35-3.94,3.97-5.51,1.62-1.57,3.57-2.49,5.85-2.78,2.16-.23,3.96.2,5.38,1.28,1.42,1.08,2.56,2.45,3.42,4.1.8,1.71,1.37,3.52,1.71,5.43.34,1.91.51,3.55.51,4.91ZM718.26,483.99c0,.97.27,1.72.81,2.26.54.54,1.18.95,1.92,1.24.74.29,1.55.46,2.44.51.88.06,1.67.09,2.35.09,1.59,0,3.09-.34,4.49-1.03,1.4-.68,2.66-1.57,3.8-2.65.11-1.03,0-2.11-.34-3.25-.34-1.14-.88-2.16-1.62-3.08-.74-.91-1.65-1.64-2.73-2.18-1.08-.54-2.34-.75-3.76-.64-.85.23-1.71.64-2.56,1.24-.85.6-1.64,1.3-2.35,2.09-.71.8-1.3,1.67-1.75,2.61-.46.94-.68,1.87-.68,2.78Z"/><path class="cls-1" d="M739.28,546.96c.23-.8.63-.85,1.2-.17,1.77,2.11,3.53,3.77,5.3,5,1.77,1.23,3.59,2.15,5.47,2.78.97.34,1.91.61,2.82.81.91.2,1.87.37,2.86.51,1,.14,2.09.23,3.29.26,1.2.03,2.56.04,4.1.04h1.54c1.82,0,3.19.7,4.1,2.09.91,1.4,1.37,2.92,1.37,4.57s-.46,3.26-1.37,4.66c-.91,1.4-2.28,2.09-4.1,2.09h-1.54c-1.88,0-3.8-.07-5.77-.21-1.96-.14-3.89-.36-5.77-.64-.57,3.13-1.25,6.08-2.05,8.84-.8,2.76-1.62,5.34-2.48,7.73-2.05,5.3-4.44,10.03-7.18,14.18-2.62,4.1-6.58,7.58-11.88,10.42-2.91,1.59-5.93,2.79-9.06,3.59-3.13.8-6.27,1.28-9.4,1.45-2.05.11-4.06.14-6.02.09-1.96-.06-3.97-.21-6.02-.47-2.05-.26-4.17-.66-6.37-1.2-2.19-.54-4.51-1.27-6.96-2.18-.68-.29-1.15-.63-1.41-1.03-.26-.4-.3-.8-.13-1.2.29-.74,1.42-1.11,3.42-1.11,3.42.06,6.58,0,9.48-.17s5.73-.56,8.46-1.15c2.73-.6,5.48-1.42,8.25-2.48,2.76-1.05,5.77-2.46,9.02-4.23,3.47-1.88,6.58-4,9.31-6.37,2.73-2.36,5.13-4.91,7.18-7.65,1.99-2.73,3.7-5.61,5.13-8.63,1.42-3.02,2.53-6.15,3.33-9.4-2.17-.91-4.27-2.16-6.32-3.76-2.05-1.59-3.73-3.25-5.04-4.96l3.25-12.13Z"/><path class="cls-1" d="M782.18,469.21c1.88-1.08,3.73-2.16,5.55-3.25,1.82-1.08,3.59-2.25,5.3-3.5,1.76-1.25,3.5-2.62,5.21-4.1,1.71-1.48,3.36-3.16,4.96-5.04-1.54-.46-3.16-1.22-4.87-2.31-1.71-1.08-3.08-2.25-4.1-3.5-.51-.63-.83-1.44-.94-2.43-.11-1-.03-1.92.26-2.78.46-1.37,1.1-2.85,1.92-4.44.83-1.59,1.81-3.05,2.95-4.36,1.14-1.31,2.41-2.38,3.8-3.2,1.4-.83,2.81-1.21,4.23-1.15,1.76.11,3.05.95,3.84,2.52.8,1.57,1.28,3.38,1.45,5.43.23,2.05.24,4.07.04,6.07-.2,1.99-.36,3.45-.47,4.36,0,.29.08.51.26.68.68.4,1.15.77,1.41,1.11.26.34.47.74.64,1.2.34.85.41,1.88.21,3.08-.2,1.2-.55,2.11-1.07,2.73-.46.57-.85.84-1.2.81-.34-.03-.68-.3-1.03-.81-.29-.34-.56-.67-.81-.98-.26-.31-.64-.58-1.15-.81-1.6,1.94-3.29,3.79-5.08,5.55-1.79,1.77-3.69,3.39-5.68,4.87-2.05,1.42-4.19,2.71-6.41,3.85-2.22,1.14-4.56,2.08-7.01,2.82-.97.29-1.96.47-2.99.56-1.03.09-1.6-.01-1.71-.3-.12-.34.09-.75.6-1.24.51-.48,1.14-.95,1.88-1.41ZM798.25,440.49c1.2,1.65,2.62,2.95,4.27,3.89,1.65.94,3.16,1.58,4.53,1.92h.17c0-.46.03-1.07.08-1.84.06-.77.07-1.55.04-2.35-.03-.8-.14-1.57-.34-2.31-.2-.74-.55-1.37-1.07-1.88-.46-.4-1.1-.58-1.92-.55-.83.03-1.64.19-2.44.47-.8.29-1.52.67-2.18,1.15-.66.48-1.04.98-1.15,1.5Z"/><path class="cls-1" d="M810.29,514.92c2.33.17,4.23,1.18,5.68,3.03,1.45,1.85,2.53,4.1,3.25,6.75.71,2.65,1.05,5.44,1.03,8.37-.03,2.93-.33,5.57-.9,7.9-.63,2.45-1.55,4.74-2.78,6.88-1.23,2.14-2.64,4.14-4.23,6.02.97.63,2.15,1.1,3.55,1.41,1.39.31,2.88.54,4.44.68,1.57.14,3.15.21,4.74.21h5.98c1.2.06,2.21.43,3.03,1.11.83.68,1.44,1.52,1.84,2.52.4,1,.6,2.07.6,3.2s-.2,2.19-.6,3.16c-.4.97-1.01,1.78-1.84,2.44-.83.66-1.84.98-3.03.98h-1.54c-6.38,0-12.41-.67-18.07-2.01-5.67-1.34-10.72-3.29-15.17-5.85-2.39,1.2-4.77,2.28-7.14,3.25-2.36.97-4.81,1.79-7.35,2.48-2.54.68-5.21,1.21-8.03,1.58-2.82.37-5.94.56-9.36.56h-1.54c-1.2,0-2.21-.34-3.03-1.03-.83-.68-1.44-1.52-1.84-2.52-.4-1-.6-2.08-.6-3.25s.2-2.25.6-3.25c.4-1,1.01-1.82,1.84-2.48.83-.65,1.84-.95,3.03-.9h1.54c1.88,0,3.66-.03,5.34-.08,1.68-.06,3.36-.2,5.04-.43,1.68-.23,3.42-.54,5.21-.94,1.79-.4,3.75-.94,5.85-1.62-.57-.97-1-2.18-1.28-3.63-.29-1.45-.37-2.95-.26-4.49.23-3.93,1.27-7.73,3.12-11.41,1.85-3.67,4.07-6.92,6.67-9.74,2.59-2.82,5.34-5.06,8.25-6.71,2.91-1.65,5.55-2.39,7.95-2.22ZM813.63,499.28c-.29.34-.51.53-.68.56-.17.03-.48-.13-.94-.47l-9.91-7.69-6.49,8.89c-.4.51-.83.6-1.28.26l-10.6-8.2c-.4-.28-.46-.6-.17-.94l6.75-9.66c.23-.34.43-.51.6-.51s.37.12.6.34l10,7.61,6.84-8.72c.34-.46.68-.54,1.03-.26l10.6,8.8c.4.29.4.68,0,1.2l-6.32,8.8ZM813.54,540.21c.11-1.59-.23-3.29-1.03-5.08-.8-1.79-1.68-3.4-2.65-4.83-.51-.74-1.21-1.25-2.09-1.54-.88-.28-1.75-.37-2.61-.26-.97.12-2.17.44-3.59.98-1.42.54-2.82,1.25-4.19,2.14-1.37.88-2.62,1.94-3.76,3.16-1.14,1.23-1.91,2.55-2.31,3.97.06,1.42.41,2.71,1.07,3.85.65,1.14,1.42,2.12,2.31,2.95.88.83,1.79,1.51,2.73,2.05.94.54,1.72.93,2.35,1.15.63-.11,1.64-.44,3.03-.98,1.4-.54,2.83-1.22,4.32-2.05,1.48-.83,2.83-1.71,4.06-2.65,1.22-.94,2.01-1.89,2.35-2.86Z"/><path class="cls-1" d="M857.12,426.22c0,1.94-.26,3.82-.77,5.64-.51,1.82-1.31,3.45-2.39,4.87-1.08,1.42-2.46,2.56-4.14,3.42-1.68.85-3.69,1.28-6.02,1.28-2.91,0-5.36-.94-7.35-2.82s-3.05-4.39-3.16-7.52c0-1.59.24-3.52.73-5.77.48-2.25,1.24-4.43,2.26-6.54,1.03-2.11,2.35-3.94,3.97-5.51,1.62-1.57,3.57-2.49,5.85-2.78,2.16-.23,3.96.2,5.38,1.28,1.42,1.08,2.56,2.45,3.42,4.1.8,1.71,1.37,3.52,1.71,5.43.34,1.91.51,3.55.51,4.91ZM837.12,428.45c0,.97.27,1.72.81,2.26.54.54,1.18.95,1.92,1.24.74.29,1.55.46,2.44.51.88.06,1.67.09,2.35.09,1.59,0,3.09-.34,4.49-1.03,1.4-.68,2.66-1.57,3.8-2.65.11-1.03,0-2.11-.34-3.25-.34-1.14-.88-2.16-1.62-3.08-.74-.91-1.65-1.64-2.73-2.18-1.08-.54-2.34-.75-3.76-.64-.86.23-1.71.64-2.56,1.24-.85.6-1.64,1.3-2.35,2.09-.71.8-1.3,1.67-1.75,2.61-.46.94-.68,1.87-.68,2.78Z"/><path class="cls-1" d="M827.98,556.19h1.54c3.42,0,6.75-.23,10-.68,3.25-.46,6.09-1.37,8.54-2.73,2.45-1.31,4.31-3.19,5.6-5.64,1.28-2.45,1.67-5.64,1.15-9.57l-8.54-70.15c-.06-.68.09-1.37.43-2.05l4.36-8.97c.17-.4.4-.58.68-.55.28.03.46.21.51.55l9.83,77.76c.46,3.7,1.17,6.92,2.14,9.66.97,2.73,2.36,5.04,4.19,6.92,1.77,1.82,4.03,3.19,6.79,4.1,2.76.91,6.19,1.37,10.3,1.37h1.54c1.82,0,3.17.7,4.06,2.09.88,1.4,1.32,2.95,1.32,4.66s-.44,3.18-1.32,4.57c-.88,1.4-2.24,2.09-4.06,2.09h-1.54c-2.45,0-4.96-.21-7.52-.64-2.56-.43-5.01-1.35-7.35-2.78-2.34-1.42-4.5-3.49-6.49-6.2-2-2.71-3.59-6.34-4.79-10.89-1.2,4.79-2.96,8.54-5.3,11.28s-4.9,4.79-7.69,6.15c-2.85,1.37-5.75,2.22-8.72,2.56s-5.67.51-8.12.51h-1.54c-1.82,0-3.19-.7-4.1-2.09-.91-1.4-1.37-2.92-1.37-4.57s.46-3.26,1.37-4.66c.91-1.4,2.28-2.09,4.1-2.09Z"/><path class="cls-1" d="M913.94,590.03c-5.58,1.77-11.08,3.56-16.49,5.38-5.41,1.82-10.6,3.53-15.55,5.13-.91.28-1.14,0-.68-.85l3.5-6.49c.17-.34.33-.6.47-.77.14-.17.38-.31.73-.43,1.54-.57,3.56-1.27,6.07-2.09,2.51-.83,5.23-1.71,8.16-2.65,2.93-.94,5.94-1.89,9.01-2.86,3.08-.97,6.01-1.88,8.8-2.73.46-.17.74-.21.86-.13.11.08.06.36-.17.81l-3.67,6.67c-.17.23-.33.44-.47.64-.14.2-.33.33-.56.38Z"/><path class="cls-1" d="M893.35,454.08c.17-.51.4-.83.68-.94.28-.11.51.2.68.94.46,1.37.97,2.76,1.54,4.19.57,1.42,1.24,2.82,2.01,4.19.77,1.37,1.67,2.64,2.69,3.8,1.03,1.17,2.19,2.15,3.5,2.95-.8,1.37-1.5,2.55-2.09,3.55-.6,1-1.1,1.91-1.5,2.73-.4.83-.68,1.62-.85,2.39-.17.77-.2,1.58-.08,2.43.63,5.47,1.35,10.95,2.18,16.45.83,5.5,1.62,10.98,2.39,16.45.77,5.47,1.45,10.94,2.05,16.41.6,5.47.98,10.97,1.15,16.49.06,1.82-.06,3.67-.34,5.55-.29,1.88-.74,3.67-1.37,5.38-.63,1.71-1.41,3.32-2.35,4.83-.94,1.51-2.01,2.78-3.21,3.8-1.65,1.42-3.69,2.44-6.11,3.03-2.42.6-5.37.9-8.84.9h-1.54c-1.82,0-3.2-.7-4.14-2.09-.94-1.4-1.41-2.93-1.41-4.61s.47-3.22,1.41-4.61c.94-1.4,2.32-2.09,4.14-2.09h1.54c1.88,0,3.7-.07,5.47-.21,1.76-.14,3.39-.4,4.87-.77,1.48-.37,2.75-.88,3.8-1.54,1.05-.65,1.81-1.5,2.26-2.52-1.14-12.02-2.62-23.88-4.44-35.59-1.82-11.71-3.59-23.48-5.3-35.33-.34-2.39-.7-4.74-1.07-7.05-.37-2.31-1.21-4.54-2.52-6.71-.46-.63-.71-1.04-.77-1.24-.06-.2.09-.64.43-1.33.97-1.65,1.87-3.35,2.69-5.08.83-1.74,1.64-3.32,2.44-4.74Z"/><path class="cls-1" d="M965.9,524.83h67.25v8.2h-67.25v-8.2Z"/><path class="cls-1" d="M1068.61,521.76c-1.25,2.51-2.68,4.39-4.27,5.64-1.71,1.31-3.73,1.99-6.07,2.05-1.88.06-3.52-.43-4.91-1.45-1.4-1.03-2.21-2.82-2.44-5.38-.12-1.14-.06-2.32.17-3.55.23-1.22.57-2.38,1.03-3.46.46-1.03.98-1.92,1.58-2.69.6-.77,1.24-1.27,1.92-1.5.68-.06.74.46.17,1.54-.34.63-.61,1.37-.81,2.22-.2.85-.31,1.7-.34,2.52-.03.83.04,1.53.21,2.09.17.57.54,1.11,1.11,1.62.86.63,1.77.93,2.73.9.97-.03,1.91-.24,2.82-.64.97-.4,1.84-.87,2.61-1.41.77-.54,1.55-1.27,2.35-2.18.74-.85,1.28-1.94,1.62-3.25.34-1.31.57-2.39.68-3.25.06-.74.26-1.48.6-2.22.34-.74.91-1.11,1.71-1.11.17,0,.3.16.38.47.08.31.16.67.21,1.07.06.4.09.78.09,1.15v.81c0,1.65.26,2.95.77,3.89.51.94,1.54,1.58,3.08,1.92.8.17,1.84.09,3.12-.26,1.28-.34,2.41-.91,3.38-1.71.11-.11.14-.43.08-.94-.06-.51-.16-1.05-.3-1.62-.14-.57-.34-1.18-.6-1.84-.26-.65-.41-1.04-.47-1.15l3.16-5.98c.57.29,1.01.91,1.33,1.88.31.97.51,2.07.6,3.29.09,1.23.07,2.46-.04,3.72-.12,1.25-.26,2.31-.43,3.16-.68,2.11-1.61,4.02-2.78,5.72-1.17,1.71-2.95,2.79-5.34,3.25-2.11.4-3.88.26-5.3-.43s-2.56-1.65-3.42-2.91Z"/><path class="cls-1" d="M1132.52,551.49c-.85,1.42-1.71,2.71-2.56,3.84,4.39.91,8.22,2.46,11.49,4.66,3.27,2.19,4.91,5.14,4.91,8.84,0,3.13-.56,5.98-1.67,8.54-1.11,2.56-2.69,5.13-4.74,7.69-6.04,7.29-14.44,12.99-25.21,17.09s-20.71,6.15-29.82,6.15c-10.08,0-18.49-2.58-25.21-7.73-6.72-5.16-10.08-13.37-10.08-24.65,0-5.58,1.05-11.11,3.16-16.58s4.73-10.45,7.86-14.95c.46-.68.91-.67,1.37.04.46.71.57,1.27.34,1.67-1.82,4.05-3.42,8.22-4.79,12.52-1.37,4.3-1.94,8.84-1.71,13.63.46,8.32,3.76,14.14,9.91,17.47,6.15,3.33,13.25,5,21.28,5,5.98,0,12.02-.83,18.12-2.48,6.09-1.65,11.65-3.6,16.66-5.85,5.01-2.25,9.17-4.67,12.48-7.26,3.3-2.59,5.15-4.52,5.55-5.77-.4-.97-1.98-2.01-4.74-3.12-2.76-1.11-5.98-2.16-9.66-3.16-3.67-1-7.48-1.84-11.41-2.52s-7.26-1.08-10-1.2c.34-.97,1.18-2.89,2.52-5.77,1.34-2.88,2.44-4.66,3.29-5.34.06,0,.11-.01.17-.04.06-.03.11-.04.17-.04,1.71-.46,3.7-1,5.98-1.62,2.28-.63,4.47-1.39,6.58-2.31l9.74,3.25Z"/><path class="cls-1" d="M1136.28,630.62c-5.58,1.76-11.08,3.56-16.49,5.38-5.41,1.82-10.6,3.53-15.55,5.13-.91.28-1.14,0-.68-.85l3.5-6.49c.17-.34.33-.6.47-.77.14-.17.38-.31.73-.43,1.54-.57,3.56-1.27,6.07-2.09,2.51-.83,5.23-1.71,8.16-2.65,2.93-.94,5.94-1.89,9.01-2.86,3.08-.97,6.01-1.88,8.8-2.73.46-.17.74-.21.86-.13.11.08.06.35-.17.81l-3.67,6.67c-.17.23-.33.44-.47.64-.14.2-.33.33-.56.38Z"/><path class="cls-1" d="M1115.01,465.45l10.51,8.72c.46.4.48.85.09,1.37l-7.01,8.8c-.4.57-.85.63-1.37.17l-10.6-8.72c-.46-.4-.46-.88,0-1.45l7.09-8.72c.4-.51.83-.57,1.28-.17ZM1131.24,541.5c-.51-4.56-2.42-9.27-5.72-14.14-3.3-4.87-6.38-8.79-9.23-11.75l3.5-14.44c.23-.34.46-.4.68-.17,5.18,5.18,9.23,10.67,12.13,16.45,2.91,5.78,4.36,11.72,4.36,17.82s-1.74,11.85-5.21,17.43l-10.51-3.85c2.33-.91,4.41-1.96,6.24-3.16s3.08-2.59,3.76-4.19Z"/><path class="cls-1" d="M1194.9,556.11c1.71,0,2.99.71,3.84,2.14.86,1.42,1.3,2.98,1.33,4.66.03,1.68-.38,3.22-1.24,4.61-.85,1.4-2.17,2.09-3.93,2.09h-1.2c-5.13,0-9.33-.94-12.6-2.82-3.28-1.88-5.88-4.39-7.82-7.52-2.28-3.76-3.78-7.82-4.49-12.18-.71-4.36-1.3-8.7-1.75-13.03-.51-4.96-1.05-9.91-1.62-14.87-.57-4.96-1.14-9.91-1.71-14.87-.57-5.13-1.24-10.3-2.01-15.51-.77-5.21-2.01-10.84-3.72-16.88-.12-.46-.2-.8-.26-1.03-.06-.23-.03-.51.09-.85l4.44-11.19c.17-.4.41-.6.73-.6s.53.2.64.6c.74,3.25,1.42,6.51,2.05,9.78.63,3.28,1.22,6.82,1.79,10.64.57,3.76,1.12,7.9,1.67,12.43.54,4.53,1.12,9.67,1.75,15.42.46,3.99.88,7.92,1.28,11.79.4,3.88.8,7.75,1.2,11.62.4,3.08.83,6.24,1.28,9.49.46,3.25,1.42,6.24,2.9,8.97,1.31,2.34,3.21,4.1,5.68,5.3,2.48,1.2,5.97,1.79,10.47,1.79h1.2Z"/><path class="cls-1" d="M1237.88,482.11c-2.85,1.31-5.83,2.68-8.93,4.1-3.11,1.42-6.11,2.79-9.01,4.1-2.91,1.31-5.61,2.54-8.12,3.67-2.51,1.14-4.64,2.08-6.41,2.82-.4.17-.68.17-.85,0-.17-.17-.17-.43,0-.77l4.19-8.37c.28-.46.58-.78.9-.98.31-.2.61-.38.9-.56l31.19-13.84c.91-.4,1.2-.17.85.68l-3.5,7.95c-.17.51-.57.91-1.2,1.2Z"/><path class="cls-1" d="M1244.89,565.85c-.51,1.2-1.07,2.49-1.67,3.89-.6,1.4-1.15,2.18-1.67,2.35-1.88.34-4.3.21-7.26-.38-2.96-.6-5.9-1.5-8.8-2.69-2.9-1.2-5.46-2.62-7.65-4.27-2.19-1.65-3.4-3.39-3.63-5.21-1.54,2.05-3.18,3.72-4.91,5-1.74,1.28-3.49,2.32-5.25,3.12-1.82.74-3.6,1.25-5.34,1.54-1.74.29-3.38.43-4.91.43h-1.54c-1.82,0-3.19-.7-4.1-2.09-.91-1.4-1.37-2.92-1.37-4.57s.46-3.26,1.37-4.66c.91-1.4,2.28-2.09,4.1-2.09h1.54c2.11,0,4.21-.06,6.32-.17,2.11-.11,4.16-.46,6.15-1.03,1.99-.57,3.93-1.47,5.81-2.69,1.88-1.22,3.64-2.95,5.3-5.17.91-1.2,1.91-2.41,2.99-3.63,1.08-1.22,2.18-2.32,3.29-3.29,1.11-.97,2.24-1.75,3.38-2.35,1.14-.6,2.22-.9,3.25-.9s2.14.48,3.33,1.45c1.2.97,2.41,2.09,3.63,3.38,1.22,1.28,2.39,2.61,3.5,3.97,1.11,1.37,2.06,2.42,2.86,3.16,1.37,1.42,2.82,2.59,4.36,3.5,1.54.91,3.13,1.65,4.79,2.22,1.65.57,3.39.97,5.21,1.2,1.82.23,3.73.34,5.73.34h1.54c1.76,0,3.1.7,4.02,2.09.91,1.4,1.37,2.95,1.37,4.66s-.46,3.18-1.37,4.57c-.91,1.4-2.25,2.09-4.02,2.09h-1.54c-1.65,0-3.3-.03-4.96-.09-1.65-.06-3.28-.23-4.87-.51-1.59-.23-3.15-.6-4.66-1.11-1.51-.51-2.95-1.2-4.32-2.05ZM1236.43,557.9c.17.06.34.04.51-.04.17-.09.11-.33-.17-.73-.97-1.08-1.79-2.21-2.48-3.38-.68-1.17-1.28-2.26-1.79-3.29-.51-1.03-.94-1.94-1.28-2.73-.34-.8-.63-1.42-.85-1.88-.57-1.03-1.31-1.45-2.22-1.28-1.03.23-2.28.83-3.76,1.79-1.48.97-2.71,2.11-3.67,3.42-.34.4-.51.68-.51.85s.23.4.68.68c.91.68,2.02,1.4,3.33,2.14,1.31.74,2.68,1.42,4.1,2.05,1.42.57,2.85,1.08,4.27,1.54,1.42.46,2.71.74,3.84.85Z"/><path class="cls-1" d="M1293.42,454c0,1.94-.26,3.82-.77,5.64-.51,1.82-1.31,3.45-2.39,4.87-1.08,1.42-2.46,2.56-4.14,3.42-1.68.85-3.69,1.28-6.02,1.28-2.91,0-5.36-.94-7.35-2.82s-3.05-4.39-3.16-7.52c0-1.59.24-3.52.73-5.77.48-2.25,1.24-4.43,2.26-6.54,1.03-2.11,2.35-3.94,3.97-5.51,1.62-1.57,3.57-2.49,5.85-2.78,2.16-.23,3.96.2,5.38,1.28,1.42,1.08,2.56,2.45,3.42,4.1.8,1.71,1.37,3.52,1.71,5.43.34,1.91.51,3.55.51,4.91ZM1273.43,456.22c0,.97.27,1.72.81,2.26.54.54,1.18.96,1.92,1.24.74.29,1.55.46,2.44.51.88.06,1.67.08,2.35.08,1.59,0,3.09-.34,4.49-1.03,1.4-.68,2.66-1.57,3.8-2.65.11-1.03,0-2.11-.34-3.25-.34-1.14-.88-2.16-1.62-3.08-.74-.91-1.65-1.64-2.73-2.18-1.08-.54-2.34-.75-3.76-.64-.86.23-1.71.64-2.56,1.24-.85.6-1.64,1.3-2.35,2.09-.71.8-1.3,1.67-1.75,2.61-.46.94-.68,1.87-.68,2.78Z"/><path class="cls-1" d="M1263.69,569.61h-1.54c-1.71,0-2.99-.7-3.84-2.09-.86-1.4-1.28-2.95-1.28-4.66,0-.85.1-1.68.3-2.48.2-.8.51-1.51.94-2.14.43-.63.97-1.14,1.62-1.54.66-.4,1.41-.6,2.26-.6h1.54c1.76,0,3.75-.06,5.94-.17,2.19-.11,4.26-.43,6.2-.94,1.88-.51,3.73-1.29,5.55-2.35,1.82-1.05,3.5-2.52,5.04-4.4,1.14-1.37,2.06-2.76,2.78-4.19.71-1.42,1.41-3.05,2.09-4.87.29-.74.75-1.14,1.41-1.2.65-.06,1.01.08,1.07.43.06.68.01,1.51-.13,2.48-.14.97-.21,1.85-.21,2.65,0,1.48.37,2.96,1.11,4.44.74,1.48,1.88,2.82,3.42,4.02,1.54,1.2,3.66,2.18,6.37,2.95,2.71.77,5.77,1.15,9.19,1.15h1.62c.85,0,1.59.2,2.22.6.63.4,1.15.91,1.58,1.54.43.63.74,1.34.94,2.14.2.8.3,1.62.3,2.48,0,1.71-.41,3.26-1.24,4.66-.83,1.4-2.09,2.09-3.8,2.09h-1.62c-3.08,0-6-.3-8.76-.9-2.76-.6-5.11-1.5-7.05-2.69-3.76-2.28-6.69-5.64-8.8-10.08-1.25,2.56-2.73,4.7-4.44,6.41s-3.59,3.11-5.64,4.19c-2.11,1.08-4.5,1.87-7.18,2.35-2.68.48-5.33.73-7.95.73ZM1300.77,522.61c-.34.4-.6.6-.77.6s-.46-.14-.86-.43l-10.08-7.95-6.58,9.14c-.4.51-.83.57-1.28.17l-10.77-8.2c-.4-.34-.46-.71-.17-1.11l6.84-9.74c.28-.34.5-.5.64-.47.14.03.33.13.55.3l10.17,7.78,6.92-8.89c.34-.46.68-.57,1.03-.34l10.77,8.97c.34.34.34.74,0,1.2l-6.41,8.97ZM1284.62,486.55l10.51,8.63c.46.34.48.74.09,1.2l-7.01,8.72c-.4.51-.85.57-1.37.17l-10.6-8.54c-.46-.4-.46-.88,0-1.45l7.09-8.54c.4-.51.83-.57,1.28-.17Z"/><path class="cls-1" d="M1324.87,486.29c1.88-1.08,3.73-2.16,5.55-3.25,1.82-1.08,3.59-2.25,5.3-3.5,1.76-1.25,3.5-2.62,5.21-4.1,1.71-1.48,3.36-3.16,4.96-5.04-1.54-.46-3.16-1.22-4.87-2.31-1.71-1.08-3.08-2.25-4.1-3.5-.51-.63-.83-1.44-.94-2.43-.11-1-.03-1.92.26-2.78.46-1.37,1.1-2.85,1.92-4.44.83-1.59,1.81-3.05,2.95-4.36,1.14-1.31,2.41-2.38,3.8-3.2,1.4-.83,2.81-1.21,4.23-1.15,1.76.11,3.05.95,3.84,2.52.8,1.57,1.28,3.38,1.45,5.43.23,2.05.24,4.07.04,6.07-.2,1.99-.36,3.45-.47,4.36,0,.29.08.51.26.68.68.4,1.15.77,1.41,1.11.26.34.47.74.64,1.2.34.85.41,1.88.21,3.08-.2,1.2-.55,2.11-1.07,2.73-.46.57-.85.84-1.2.81-.34-.03-.68-.3-1.03-.81-.29-.34-.56-.67-.81-.98-.26-.31-.64-.58-1.15-.81-1.6,1.94-3.29,3.79-5.08,5.55-1.79,1.77-3.69,3.39-5.68,4.87-2.05,1.42-4.19,2.71-6.41,3.85-2.22,1.14-4.56,2.08-7.01,2.82-.97.29-1.96.47-2.99.56-1.03.09-1.6-.01-1.71-.3-.12-.34.09-.75.6-1.24.51-.48,1.14-.95,1.88-1.41ZM1340.93,457.58c1.2,1.65,2.62,2.95,4.27,3.89,1.65.94,3.16,1.58,4.53,1.92h.17c0-.46.03-1.07.08-1.84.06-.77.07-1.55.04-2.35-.03-.8-.14-1.57-.34-2.31-.2-.74-.55-1.37-1.07-1.88-.46-.4-1.1-.58-1.92-.55-.83.03-1.64.19-2.44.47-.8.29-1.52.67-2.18,1.15-.66.48-1.04.98-1.15,1.5Z"/><path class="cls-1" d="M1311.97,569.61c-1.82,0-3.19-.7-4.1-2.09-.91-1.4-1.37-2.92-1.37-4.57s.46-3.19,1.37-4.61c.91-1.42,2.28-2.14,4.1-2.14h1.54c1.71,0,3.62-.14,5.72-.43,2.11-.28,4.33-.74,6.67-1.37,2.33-.68,4.7-1.54,7.09-2.56s4.7-2.31,6.92-3.85c-1.31-1.54-2.88-2.91-4.7-4.1-1.82-1.2-3.53-1.91-5.13-2.14-1.2-.17-2.39-.13-3.59.13-1.2.26-2.31.81-3.33,1.67-.51.51-1,.57-1.45.17-.46-.4-.63-.94-.51-1.62.17-.85.41-1.88.73-3.08.31-1.2.75-2.44,1.32-3.72.57-1.28,1.27-2.56,2.09-3.85.83-1.28,1.81-2.44,2.95-3.46,5.13-4.39,11.14-6.58,18.03-6.58,1.99,0,4.17.17,6.54.51,2.36.34,4.6.97,6.71,1.88,2.11.91,3.89,2.14,5.34,3.67,1.45,1.54,2.21,3.5,2.26,5.9.11,3.42-.63,6.32-2.22,8.72-1.6,2.39-3.67,4.61-6.24,6.67.91,1.48,2.11,2.71,3.59,3.67,1.48.97,3.16,1.71,5.04,2.22,1.82.57,3.8.97,5.94,1.2,2.14.23,4.34.34,6.62.34h1.54c1.77,0,3.09.71,3.97,2.14.88,1.42,1.33,2.96,1.33,4.61s-.44,3.18-1.33,4.57c-.88,1.4-2.21,2.09-3.97,2.09h-1.54c-3.36,0-6.49-.26-9.4-.77-2.9-.51-5.64-1.34-8.2-2.48-5.01-2.28-9.6-5.87-13.76-10.77-5.93,5.01-11.74,8.63-17.43,10.85-2.85,1.08-5.73,1.88-8.63,2.39-2.91.51-5.9.77-8.97.77h-1.54Z"/><path class="cls-1" d="M1400.41,454.08c.28-.46.54-.7.77-.73.23-.03.43.21.6.73.91,2.73,2.11,5.54,3.59,8.42,1.48,2.88,3.53,5.11,6.15,6.71-1.54,2.73-2.72,4.84-3.55,6.32-.83,1.48-1.15,3.08-.98,4.79l7.78,65.37c0,1.54-.16,3.18-.47,4.91-.31,1.74-.74,3.42-1.28,5.04-.54,1.62-1.17,3.11-1.88,4.44-.71,1.34-1.44,2.38-2.18,3.12-1.65,1.54-3.73,2.75-6.24,3.63-2.51.88-5.13,1.52-7.86,1.92-2.73.4-5.43.64-8.08.73-2.65.08-5,.13-7.05.13h-1.54c-1.82,0-3.19-.7-4.1-2.09-.91-1.4-1.37-2.92-1.37-4.57s.46-3.19,1.37-4.61c.91-1.42,2.28-2.14,4.1-2.14h1.54c1.03,0,3.02-.03,5.98-.08,2.96-.06,6.07-.26,9.31-.6s6.24-.85,8.97-1.54,4.39-1.62,4.96-2.82c-1.6-11.79-3.21-23.6-4.83-35.42-1.62-11.82-3.26-23.65-4.91-35.5-.34-2.39-.77-4.74-1.28-7.05-.51-2.31-1.45-4.54-2.82-6.71-.4-.63-.64-1.04-.73-1.24-.09-.2.04-.64.38-1.33.91-1.65,1.85-3.29,2.82-4.91.97-1.62,1.91-3.26,2.82-4.91Z"/><path class="cls-1" d="M1436.81,458.87c.91.06,1.34,1.11,1.28,3.16-.12,2.17-.09,4.29.09,6.37.17,2.08.4,4.17.68,6.28.57,5.07,1.25,10.3,2.05,15.68.8,5.38,1.59,10.81,2.39,16.28.74,5.41,1.48,10.82,2.22,16.24.74,5.41,1.37,10.68,1.88,15.81.23,1.99.38,4.33.47,7.01.08,2.68.06,5.4-.09,8.16-.14,2.76-.46,5.43-.94,7.99-.49,2.56-1.15,4.7-2.01,6.41-.46.97-1,1.59-1.62,1.88-.51.06-.74-.17-.68-.68-.34-4.96-.76-9.96-1.24-15-.48-5.04-1.1-10.18-1.84-15.42-.74-5.41-1.48-10.77-2.22-16.06-.74-5.3-1.45-10.6-2.14-15.89-.74-5.3-1.47-10.6-2.18-15.89-.71-5.3-1.41-10.62-2.09-15.98.17-1.31.43-2.66.77-4.06.34-1.4.83-2.83,1.45-4.32,1.37-3.7,2.29-5.95,2.78-6.75.48-.8.81-1.2.98-1.2Z"/><path class="cls-1" d="M1589.25,468.95c0,1.94-.26,3.82-.77,5.64-.51,1.82-1.31,3.45-2.39,4.87-1.08,1.42-2.46,2.56-4.14,3.42-1.68.85-3.69,1.28-6.02,1.28-2.91,0-5.36-.94-7.35-2.82s-3.05-4.39-3.16-7.52c0-1.59.24-3.52.73-5.77.48-2.25,1.24-4.43,2.26-6.54,1.03-2.11,2.35-3.94,3.97-5.51,1.62-1.57,3.57-2.49,5.85-2.78,2.16-.23,3.96.2,5.38,1.28,1.42,1.08,2.56,2.45,3.42,4.1.8,1.71,1.37,3.52,1.71,5.43.34,1.91.51,3.55.51,4.91ZM1569.25,471.17c0,.97.27,1.72.81,2.26.54.54,1.18.95,1.92,1.24.74.29,1.55.46,2.44.51.88.06,1.67.09,2.35.09,1.59,0,3.09-.34,4.49-1.03,1.4-.68,2.66-1.57,3.8-2.65.11-1.03,0-2.11-.34-3.25-.34-1.14-.88-2.16-1.62-3.08-.74-.91-1.65-1.64-2.73-2.18-1.08-.54-2.34-.75-3.76-.64-.86.23-1.71.64-2.56,1.24-.85.6-1.64,1.3-2.35,2.09-.71.8-1.3,1.67-1.75,2.61-.46.94-.68,1.87-.68,2.78Z"/><path class="cls-1" d="M1501.32,555c2.79.46,5.4.84,7.82,1.15,2.42.31,4.8.54,7.14.68,2.33.14,4.7.23,7.09.26,2.39.03,4.93.01,7.61-.04l14.18-13.84c.68-1.03,1.17-2.48,1.45-4.36.28-1.88.44-4.06.47-6.54.03-2.48-.06-5.2-.26-8.16-.2-2.96-.47-6.04-.81-9.23-.4-3.13-.81-6.34-1.24-9.61-.43-3.28-.88-6.46-1.37-9.57-.49-3.1-.96-6.07-1.41-8.89-.46-2.82-.85-5.4-1.2-7.73-.29-2.11-.71-4.29-1.28-6.54-.57-2.25-1.42-4.23-2.56-5.94-.4-.68-.64-1.11-.73-1.28-.09-.17.04-.63.38-1.37l5.13-9.91c.23-.46.47-.73.73-.81.26-.09.47.19.64.81.86,2.73,2.01,5.41,3.46,8.03,1.45,2.62,3.49,4.73,6.11,6.32-1.59,2.73-2.82,4.81-3.67,6.24-.85,1.42-1.17,3.05-.94,4.87.68,3.76,1.39,7.86,2.14,12.3.74,4.44,1.31,9.17,1.71,14.18.4,5.01.53,10.3.38,15.85-.14,5.55-.76,11.35-1.84,17.39,3.36-2.85,7.02-5.9,10.98-9.14,3.96-3.25,7.96-5.87,12.01-7.86,3.08-1.42,6.45-2.15,10.13-2.18,3.67-.03,7.19.51,10.55,1.62,3.36,1.11,6.28,2.68,8.76,4.7,2.48,2.02,4,4.34,4.57,6.96-.34,4.84-1.64,9.13-3.89,12.86-2.25,3.73-5.17,6.79-8.76,9.19,3.42.34,7.08.56,10.98.64,3.9.09,7.48.13,10.72.13h1.54c1.82,0,3.19.7,4.1,2.09.91,1.4,1.37,2.95,1.37,4.66s-.46,3.18-1.37,4.57c-.91,1.4-2.28,2.09-4.1,2.09h-1.54c-3.19,0-7.24-.03-12.13-.09-4.9-.06-10.11-.14-15.64-.26-5.47-.11-10.97-.27-16.49-.47-5.53-.2-10.48-.44-14.87-.73-6.04.85-11.72,1.4-17.05,1.62-5.33.23-10.41.17-15.25-.17-2-.11-4.16-.6-6.49-1.45-2.34-.85-4.66-1.88-6.96-3.08-2.31-1.2-4.52-2.48-6.62-3.85-2.11-1.37-3.96-2.65-5.55-3.84-.51-.34-.76-.67-.73-.98.03-.31.2-.57.51-.77.31-.2.68-.36,1.11-.47.43-.11.75-.14.98-.09ZM1599.08,541.41c-1.54-1.82-3.4-3.38-5.6-4.66-2.19-1.28-4.52-2.29-6.96-3.03-2.45-.74-4.93-1.17-7.43-1.28-2.51-.11-4.87.09-7.09.6-2.85.74-5.63,1.91-8.33,3.5-2.71,1.6-5.41,3.48-8.12,5.64-2.71,2.17-5.44,4.56-8.2,7.18-2.76,2.62-5.63,5.27-8.59,7.95,4.61-.23,9.66-.64,15.12-1.24,5.47-.6,10.94-1.5,16.41-2.69s10.71-2.76,15.72-4.7c5.01-1.94,9.37-4.36,13.07-7.26Z"/><path class="cls-1" d="M1645.64,464.16c-2.85,1.31-5.83,2.68-8.93,4.1-3.11,1.42-6.11,2.79-9.01,4.1-2.91,1.31-5.61,2.54-8.12,3.67-2.51,1.14-4.64,2.08-6.41,2.82-.4.17-.68.17-.85,0-.17-.17-.17-.43,0-.77l4.19-8.37c.28-.46.58-.78.9-.98.31-.2.61-.38.9-.56l31.19-13.84c.91-.4,1.2-.17.85.68l-3.5,7.95c-.17.51-.57.91-1.2,1.2Z"/><path class="cls-1" d="M1706.57,535.68c4.96.68,9.57,1.1,13.84,1.24,4.27.14,8.15.3,11.62.47.68,0,.83.49.43,1.45l-6.07,10.25c-.51.8-1.45,1.05-2.82.77-9.46-1.54-17.89-1.35-25.29.56-7.41,1.91-15.07,4.34-22.99,7.31-9.23,3.42-18.58,6.25-28.07,8.5-9.48,2.25-19.73,3.38-30.72,3.38h-1.62c-1.88,0-3.3-.7-4.27-2.09-.97-1.4-1.45-2.93-1.45-4.61s.48-3.23,1.45-4.66c.97-1.42,2.39-2.14,4.27-2.14h1.62c7.97,0,17.45-.56,28.41-1.67,10.96-1.11,23.6-4.57,37.9-10.38-9.06-2.85-17.57-4.8-25.55-5.85-7.98-1.05-16.58-1.04-25.81.04-.57.06-.74-.2-.51-.77.85-1.77,1.84-3.6,2.95-5.51,1.11-1.91,2.32-3.63,3.63-5.17.46-.57.85-.88,1.2-.94,1.42-.46,3.85-.87,7.26-1.24,3.42-.37,5.27-.56,5.55-.56,10.2,0,19.62,1.64,28.28,4.91,8.66,3.28,17.57,5.51,26.75,6.71ZM1640.77,488.35l10.51,8.72c.46.51.48.97.09,1.37l-7.01,8.8c-.4.57-.85.63-1.37.17l-10.6-8.72c-.4-.4-.4-.88,0-1.45l7.09-8.72c.46-.51.88-.57,1.28-.17Z"/><path class="cls-1" d="M1646.76,524.49c2.51-.23,6.31-.56,11.41-.98,5.1-.43,9.27-.84,12.52-1.24,1.37-.17,2.52-.41,3.46-.73.94-.31,1.32-.95,1.15-1.92-.57-5.92-1.61-13.57-3.12-22.94-1.51-9.37-3.03-17.87-4.57-25.51-.57-2.51-1.18-5.33-1.84-8.46-.66-3.13-1.7-5.33-3.12-6.58l5.64-11.45c.23-.51.56-.75.98-.73.43.03.73.27.9.73,1.08,2.85,2.33,5.65,3.76,8.42,1.42,2.76,3.5,5,6.24,6.71-.68,1.42-1.82,3.06-3.42,4.91-1.6,1.85-2.17,3.83-1.71,5.94.63,3.25,1.32,6.89,2.09,10.94.77,4.04,1.48,8.02,2.14,11.92.65,3.9,1.2,7.49,1.62,10.77.43,3.28.64,5.71.64,7.31,0,3.59-.41,6.94-1.24,10.04-.83,3.11-2.15,5.71-3.97,7.82-3.82-1.2-8.15-2.21-12.99-3.03-4.84-.83-10.37-1.47-16.58-1.92Z"/><path class="cls-1" d="M1752.03,458.87c.91.06,1.34,1.11,1.28,3.16-.12,2.17-.09,4.29.09,6.37.17,2.08.4,4.17.68,6.28.57,5.07,1.25,10.3,2.05,15.68.8,5.38,1.59,10.81,2.39,16.28.74,5.41,1.48,10.82,2.22,16.24.74,5.41,1.37,10.68,1.88,15.81.23,1.99.38,4.33.47,7.01.08,2.68.06,5.4-.09,8.16-.14,2.76-.46,5.43-.94,7.99-.49,2.56-1.15,4.7-2.01,6.41-.46.97-1,1.59-1.62,1.88-.51.06-.74-.17-.68-.68-.34-4.96-.76-9.96-1.24-15-.48-5.04-1.1-10.18-1.84-15.42-.74-5.41-1.48-10.77-2.22-16.06-.74-5.3-1.45-10.6-2.14-15.89-.74-5.3-1.47-10.6-2.18-15.89-.71-5.3-1.41-10.62-2.09-15.98.17-1.31.43-2.66.77-4.06.34-1.4.83-2.83,1.45-4.32,1.37-3.7,2.29-5.95,2.78-6.75.48-.8.81-1.2.98-1.2Z"/><path class="cls-1" d="M1860.72,531.5c0,2.73-2.94,5.81-8.8,9.23-.63,8.77-2.02,13.16-4.19,13.16-8.54-8.09-14.9-12.13-19.06-12.13.46,4.27,2.66,8.33,6.62,12.18,3.96,3.84,5.94,6.02,5.94,6.54,0,.91-1.71,1.91-5.13,2.99-3.88,1.2-8.18,1.88-12.9,2.05-4.05,12.13-9.51,22.99-16.41,32.56-5.3,7.46-11,13.59-17.09,18.37-4.9,3.87-8.35,5.81-10.34,5.81-1.2,0-1.79-.57-1.79-1.71,0-.57,2.05-3.16,6.15-7.78,5.01-5.7,9.17-11.51,12.48-17.43,4.9-9.23,8.23-19.43,10-30.59-5.64-1.03-8.46-2.31-8.46-3.84,7.92-8.03,11.88-14.27,11.88-18.71-4.1,0-10.14,4.16-18.12,12.48-1.03,0-2.05-1.48-3.08-4.44-1.03-2.96-1.65-6.07-1.88-9.31-5.98-3.19-8.97-5.98-8.97-8.37,0-2.16,2.79-4.9,8.37-8.2.63-8.89,2.19-13.33,4.7-13.33l5.72,5.47c3.87,3.82,8.17,5.95,12.9,6.41,0-4.04-2.08-8.07-6.24-12.09-4.16-4.02-6.24-6.34-6.24-6.96,0-1.31,3.05-2.59,9.14-3.85-1.77-9.17-5.4-18.6-10.89-28.28-5.5-9.68-11.61-17.4-18.33-23.16-1.2-1.03-1.79-1.96-1.79-2.82,0-.91.71-1.37,2.14-1.37,4.21,0,10.62,4.22,19.23,12.65,11.28,11,20.08,24.98,26.4,41.96,11.73.12,17.6,1.65,17.6,4.61-7.75,8.09-11.62,14.33-11.62,18.71,3.42,0,7.15-2.08,11.19-6.24,4.04-4.16,6.32-6.24,6.84-6.24,2.16,0,3.73,4.64,4.7,13.93,6.21,3.02,9.31,5.61,9.31,7.78ZM1834.06,504.24c0-.51-2.59-1.03-7.78-1.54-1.37,0-3.3.09-5.81.26-7.86-24.1-20.96-42.1-39.31-54,6.38,5.92,12.05,13.16,17,21.7,5.92,10.37,9.74,21.05,11.45,32.04-4.5.34-6.75.97-6.75,1.88l3.67,3.42c2.91,2.62,5.18,5.67,6.84,9.14,2.22-4.67,4.1-7.01,5.64-7.01,2.28,0,4.19,2.34,5.72,7.01,1.59-3.7,3.64-6.86,6.15-9.49l3.16-3.42ZM1805.52,538.33c-5.41-2.28-8.12-4.33-8.12-6.15,0-1.99,2.56-3.9,7.69-5.73-3.7-1.25-7.01-3.19-9.91-5.81l-3.67-3.67c-1.03,0-1.54,3.28-1.54,9.83-5.18,2.85-7.78,4.93-7.78,6.24,0,1.42,2.59,2.99,7.78,4.7.68,7.18,1.37,10.77,2.05,10.77.46,0,1.99-1.34,4.61-4.02,2.96-3.02,5.92-5.07,8.89-6.15ZM1834.92,559.44l-3.33-3.25c-2.62-2.51-4.81-5.44-6.58-8.8-2.39,4.61-4.42,6.92-6.07,6.92-1.14,0-2.99-2.31-5.55-6.92-1.2,3.08-3.19,6.01-5.98,8.8l-3.5,3.76c0,.57.88,1.03,2.65,1.37,1.2.23,2.45.49,3.76.77-3.19,13.56-5.92,22.93-8.2,28.11-3.3,7.63-9.03,16.24-17.17,25.81,15.72-10.6,27.74-28.77,36.06-54.52,6.72-.28,10.72-.53,12.01-.73,1.28-.2,1.92-.64,1.92-1.33ZM1829.87,532.18c0-2.91-1.05-5.38-3.16-7.43s-4.67-3.08-7.69-3.08-5.43,1.03-7.56,3.08c-2.14,2.05-3.21,4.53-3.21,7.43s1.07,5.44,3.21,7.6c2.14,2.17,4.66,3.25,7.56,3.25s5.58-1.08,7.69-3.25c2.11-2.16,3.16-4.7,3.16-7.6ZM1856.02,531.5c0-1.25-2.56-2.82-7.69-4.7-.63-7.12-1.34-10.68-2.14-10.68-.46,0-1.94,1.31-4.44,3.93-3.02,3.02-5.98,5.1-8.89,6.24,5.24,2.34,7.86,4.42,7.86,6.24s-2.56,3.73-7.69,5.55c1.48.51,3.73,2.31,6.75,5.38,2.62,2.73,4.93,4.1,6.92,4.1,1.08,0,1.62-3.28,1.62-9.83,5.13-2.96,7.69-5.04,7.69-6.24Z"/></svg>
