<?xml version="1.0" encoding="UTF-8" standalone="yes"?>
<svg version="1.2" xml:space="preserve" viewBox="0 0 120 120" baseProfile="tiny-ps" xmlns="http://www.w3.org/2000/svg">
  <title>bimi-svg-tiny-12-ps</title>
  <rect class="st0" width="120" height="120" fill="#253551"/>
  <g>
    <g id="Line-Black">
      <path class="st1" d="M108.1,40.7c0-0.3-0.2-0.7-0.5-0.8c-1.7-0.7-3.2-1.2-4.9-1.4c0.7-2.5,0.5-4.8,0.3-6.7    c-0.2-2.4-0.5-4.4,0.8-6.8v-0.2l0,0c0-0.1,0-0.2,0-0.2l0,0c0-0.1,0-0.2-0.1-0.2l0,0l0,0l0,0c0,0-0.1-0.2-0.2-0.2l0,0    c0,0-0.2-0.1-0.2-0.1l0,0c0,0,0,0-0.1,0c-4.2-0.2-7.5,0.5-10,2c-0.4-1.5-0.7-2.8-1-3.7c-0.2-0.7-0.3-1.5-0.2-2.2    c0.5-3.1-0.2-5.2-1.8-6.2c-1.6-0.9-5.9-0.4-10.1,1c-4,1.3-11.3,4.8-14.7,12.2c-0.7,1.6-1.3,3.2-1.7,4.6c-1-2.9-3.4-7.1-8.5-10.2    c-6.7-4.2-14.7-3.1-17.7-2.5c-0.8,0.2-1.7,0.2-2.5,0c-2.4-0.5-5.5-0.6-7.1,1.1l0,0l0,0c-1.6,1.8-0.3,6.6,1,10.3    c0.2,0.7,0.4,1.5,0.4,2.2c0,1,0,2.5,0.2,4.2c-4-2.7-9.7-3.9-17.8-3.9s-0.2,0-0.3,0s0,0,0,0l0,0c0,0-0.2,0-0.2,0l0,0    c0,0-0.1,0-0.2,0.1l0,0c0,0-0.1,0.2-0.2,0.2l0,0l0,0l0,0c0,0.1,0,0.2,0,0.2c0,0,0,0,0,0.1v0.2c0,0,0,0,0,0.1c0,0,0,0.1,0.1,0.2    l0,0l0,0c2.2,1.7,3.2,5.1,4.4,8.9c1.3,4.4,2.9,9.3,6.7,12.8c-0.6,0.6-1.2,1.2-1.8,1.8C20.1,57.7,20,57.9,20,58    c0,0.2,0.1,0.4,0.2,0.6c4,3.6,8.3,5.6,12.8,6.1c0,0.2-0.2,0.4-0.2,0.6c-2.1,6.5-1.3,12.8-0.6,15.9c0.3,1.3,0.2,2.9-0.2,4.3    c-1.6,5.2-0.6,8.9,2.9,10.4c1.1,0.6,2.4,0.7,3.6,0.7c2.7,0,5.5-1,7.8-2.1c-1.2,5.9-1.4,11.9-0.7,17.8l0,0c0,0.1,0,0.2,0.1,0.2    c0,0,0,0,0,0.1c0,0,0,0.1,0.1,0.2l0,0l0,0c0,0,0,0,0.1,0l0,0c0,0,0.2,0,0.2,0l0,0c0.1,0,0.2,0,0.3,0c12.1-4.7,18.9-10.5,21.2-18.1    c1.8,0.9,4,1.4,6.4,1.7c0,0,0,0,0.1,0c0.3,0,0.6-0.2,0.7-0.5c0.4-1,0.8-2.1,1.1-3c5.3,4.9,13.2,9.3,24.7,13.9l0,0    c0.1,0,0.2,0,0.2,0l0,0c0,0,0.2,0,0.2,0l0,0c0,0,0,0,0.1,0l0,0l0,0c0,0,0.2-0.1,0.2-0.2l0,0c0,0,0-0.2,0.1-0.2l0,0    c0,0,0-0.2,0-0.2c-0.6-12.7-2.6-21.3-6.5-27c0.1,0,0.2-0.1,0.3-0.2c3.6-2,3.1-7.7,2.5-10.9c-0.2-1-0.1-2.1,0.3-3.1    c1-2.5,2.6-7.1,1.2-11.1c4.9-2.1,7.8-6.6,8.6-13.5L108.1,40.7z M93.8,39.2c0.2-1.2,0.3-2.5,0.4-3.7c1.2-3.2,3.6-6.1,7.2-8.7    c-0.4,1.9-0.2,3.6,0,5.3c0.2,2,0.4,4-0.3,6.3C98.7,38.2,96.3,38.5,93.8,39.2L93.8,39.2z M100.5,25.5c-2.8,2.1-4.9,4.3-6.3,6.6    c-0.2-1.6-0.4-3.2-0.7-4.6C95.2,26.3,97.6,25.6,100.5,25.5L100.5,25.5z M66.6,27.6c3.1-6.9,10-10.1,13.8-11.3c4.4-1.5,8-1.6,9-1.1    c1.4,0.8,1.2,3.4,1,4.5c-0.2,1,0,2,0.2,3c1.1,3.2,4.3,14.5-0.1,21.3c-4.6,7.1-12.6,7.4-14.5,7.4c-0.2-0.3-0.5-0.6-0.7-0.8    c0-0.3,0-0.7-0.1-1c-0.2-0.6-0.7-1.1-1.3-1.3c-0.2-0.1-0.6-0.2-0.8-0.1c0.1-0.6,0-1.3-0.4-1.8c1.7-5.6,4.7-10.4,8.5-14    c0.3-0.3,0.3-0.8,0-1.1c-0.3-0.3-0.8-0.3-1.1,0c-4,3.6-7,8.5-8.8,14.2c-0.3,0-0.6,0-1,0c-0.3,0.1-0.6,0.2-1,0.5    c0-0.2-0.2-0.4-0.3-0.6c2.1-11,7.9-19.8,17.5-26.1c0.4-0.2,0.5-0.7,0.2-1.1c-0.2-0.4-0.7-0.5-1.1-0.2    c-9.7,6.4-15.9,15.3-18.1,26.4c-0.5-0.2-1-0.2-1.4,0c-0.2,0-0.3,0.1-0.4,0.2C64.7,42.5,62.6,36.5,66.6,27.6L66.6,27.6z M89.4,47.6    c0.5-0.5,1-1,1.3-1.5c3,0.4,6.7,0,10.1-1.3c-2.6,2.2-5.2,3.4-7.8,3.8C91.7,48.1,90.3,47.8,89.4,47.6L89.4,47.6z M73.8,53.5    c0-0.2-0.2-0.4-0.3-0.6l-0.3-0.6l0.7-0.2c0.2-0.1,0.4-0.2,0.6-0.3c0.2,0.2,0.4,0.5,0.3,0.9C74.7,53.2,74.2,53.4,73.8,53.5z     M70.8,54.6v-1.4c-0.1-0.5-0.5-0.8-0.9-0.7c-0.5,0-0.8,0.4-0.7,0.8v1.6c0.1,0.3,0,0.6-0.2,0.8c-0.2,0.2-0.5,0.3-0.8,0.2    c-0.2,0-0.4-0.2-0.6-0.3l0,0l0,0c0,0-0.1-0.1-0.1-0.2c-0.2-0.2-0.2-0.6,0-0.9l1-2.4l0,0l0,0c0-0.1,0-0.2,0-0.2c0,0,0,0,0-0.1v-0.2    c0,0,0,0,0-0.1c0,0,0-0.1-0.1-0.2l0,0l0,0l0,0c0,0-0.1,0-0.2-0.1l0,0c-0.1,0-0.2,0-0.2,0l0,0h-0.2c0,0,0,0-0.1,0c0,0,0,0-0.1,0    l-2,1.3c-0.3,0.2-0.8,0.2-1-0.2c-0.1-0.2-0.2-0.3-0.1-0.6c0-0.2,0.2-0.3,0.3-0.5l1.7-1.1c0.3-0.2,0.5-0.6,0.3-1l-0.7-2.1    c-0.1-0.2,0-0.6,0-0.8c0-0.2,0.4-0.5,0.6-0.5c0.2,0,0.6,0,0.8,0.1c0.2,0.1,0.4,0.4,0.5,0.6l0.3,1.1l-0.4,0.8c-0.2,0.4,0,0.9,0.4,1    c0.4,0.2,0.9,0,1-0.4l0.9-1.8c0.1-0.2,0.3-0.3,0.5-0.4c0.2,0,0.5,0,0.6,0.2c0.3,0.2,0.4,0.7,0.2,1l-1.2,1.6c-0.2,0.3-0.2,0.7,0,1    c0.2,0.3,0.7,0.3,1,0.2l1.7-1c0.2-0.2,0.4-0.1,0.5,0c0.1,0,0.2,0.2,0.4,0.3c0.1,0.3,0,0.6-0.3,0.7l-1.6,0.6    c-0.2,0.1-0.4,0.2-0.5,0.5c0,0.2,0,0.5,0,0.6l0.9,1.4c0,0,0,0,0,0.1c0.2,0.2,0.2,0.5,0.2,0.7c0,0.2-0.2,0.5-0.5,0.6    c-0.2,0.1-0.5,0.1-0.7,0c-0.2-0.1-0.4-0.3-0.5-0.6l0,0L70.8,54.6z M64.4,48l0.4,1.1l-0.7,0.5c-0.3-0.3-0.6-0.7-0.5-1.1    C63.7,48.1,64.2,48.1,64.4,48L64.4,48z M28.8,21.5C36.8,24.4,43.3,29,47.9,35c0.2,0.2,0.4,0.3,0.6,0.3c0.2,0,0.3,0,0.5-0.2    c0.3-0.2,0.4-0.8,0.2-1.1c-4.7-6-11-10.6-18.9-13.6c1-0.2,2.5-0.2,4.3,0.1c1,0.2,2.1,0.2,3.1,0c2.9-0.6,10.3-1.6,16.6,2.3    c7.5,4.6,8.5,11.8,8.6,12.6c-0.2,2.1-0.2,3.9,0.1,5.4C59.2,36.2,54.6,32,49,28.1c-0.4-0.2-0.9-0.2-1.1,0.2    c-0.2,0.4-0.2,0.9,0.2,1.1c7.1,4.9,12.4,10.3,16.3,16.4c-0.2,0.2-0.2,0.6-0.2,0.9c-0.5,0-0.9,0.2-1.3,0.5c-2.4-3.4-5.2-6-8.6-7.9    c-0.4-0.2-0.9-0.1-1.1,0.3c-0.2,0.4-0.1,0.9,0.3,1.1c3.2,1.8,6.1,4.6,8.5,8c-0.1,0.9,0.4,1.7,0.9,2.2c-0.2,0.2-0.2,0.5-0.3,0.7    c0,0.3,0,0.6,0,1c-1.7,0.8-6.6,2.6-13.4,2.1c-8.5-0.6-15.5-7.5-17-12c-0.5-1.3-0.7-2.6-1-4l0,0c-0.3-2.3-0.4-4.4-0.4-5.9    c0-1-0.2-1.9-0.5-2.8c-1.4-3.8-2-6.9-1.6-8.2L28.8,21.5z M30.6,42.7c-3.6-2.9-8.5-5.5-14.7-8.1c6.3,0.4,10.7,1.8,13.8,4.4    C29.9,40.2,30.2,41.5,30.6,42.7z M16.7,42.7c-0.8-2.6-1.6-5.2-2.9-7.2C23,39,29.2,42.8,33.2,47.3l0,0c0.3,0.4,0.6,0.7,1,1.1    c-4,1.2-7.7,3.3-11.2,6.4C19.4,51.5,17.9,46.8,16.7,42.7L16.7,42.7z M21.8,58.3c4.3-4.4,8.7-7.2,13.7-8.6c1.8,1.7,4,3.2,6.4,4.4    c-0.7,0.4-1.6,1-2.5,1.7c-3.9,1.8-8.5,2.3-14,1.3c-0.4,0-0.7,0.2-0.9,0.6c-0.2,0.4,0,0.8,0.4,1c2.7,1.5,5.9,3,9.6,3    c-0.3,0.6-0.6,1.2-1,1.9C29.5,63.2,25.6,61.5,21.8,58.3L21.8,58.3z M35.4,60c-2,0.2-3.9-0.2-5.6-0.8c2.5,0,4.7-0.2,6.8-0.7    C36.2,58.9,35.8,59.4,35.4,60z M48.5,93.6c0.9-0.6,1.8-0.9,2.8-1c1.5-0.3,4.1-1,7-2.5c-2.4,6.9-6.3,13.8-11.5,20.5    c-0.4-5.5,0-11.1,1.2-16.6C48.2,93.8,48.4,93.7,48.5,93.6L48.5,93.6z M48.6,110.6c5.5-7.2,9.4-14.6,11.7-22c0.3-0.2,0.6-0.5,1-0.7    c0.9,2.8,2.5,4.9,5,6.4C64.3,101,58.6,106.2,48.6,110.6L48.6,110.6z M73.7,95.3c-2.4-0.3-4.4-1-6-1.9l0,0c-2.6-1.4-4.3-3.6-5-6.6    c1.3-1.2,2.5-2.5,3.5-4.2c0.9,3.5,2.8,6.7,5.6,9.4c0.2,0.2,0.3,0.2,0.6,0.2c0.2,0,0.3,0,0.4-0.2c0.3-0.2,0.5-0.6,0.3-1    c-1.2-3.2-1.7-6.4-1.7-9.5c0.6,0.1,1.2,0.2,1.9,0.2c0.7,0,1,0,1.5-0.2C76.2,85.6,75.8,90,73.7,95.3L73.7,95.3z M69.7,81.2    c0,2.3,0.2,4.7,0.7,7.1c-1.7-2.3-2.8-4.9-3.2-7.7c0.2-0.3,0.2-0.6,0.4-0.9C68.1,80.2,68.7,80.7,69.7,81.2L69.7,81.2z M76.2,81.3    c0.4-0.2,0.9-0.3,1.3-0.5c7.9,5.9,15,13.9,21.5,24c-10.5-4.3-17.7-8.6-22.5-13.2C77.3,87.9,77.3,84.4,76.2,81.3z M99.9,103.5    c-6.3-9.8-13.2-17.5-20.8-23.4c0.8-0.4,1.6-0.9,2.3-1.3c1.5-1,3.4-1,5-0.3c2,1,4.7,1.9,7.2,1.4C97.1,84.8,99.2,92.6,99.9,103.5z     M96.8,64.7c-0.6,1.3-0.7,2.6-0.4,4c0.5,2.2,1.2,7.6-1.7,9.2c-0.3,0.2-0.6,0.3-1,0.4l0,0C91.6,79,89,78,87.1,77.1    c-2.1-1-4.5-0.9-6.5,0.4c-2.1,1.3-5.1,2.9-7.5,2.9c-2.4,0-4.4-1.6-4.8-2.2c3.5-9.3,0.9-17.9,0.8-18.3c-0.2-0.4-0.6-0.6-1-0.6    c-0.4,0.2-0.6,0.6-0.6,1c0,0.1,3.2,10.6-2.1,20.4C61.3,88.2,54,90.4,51,91c-1.1,0.2-2.2,0.6-3.2,1.3c-2.4,1.4-8.3,4.4-12.4,2.5    c-3.2-1.5-2.9-5.5-2-8.5c0.3-1.2,0.5-2.4,0.4-3.5c2.1-6.4,5.4-11.9,9.9-16.2c0.3-0.3,0.3-0.8,0-1.1c-0.3-0.3-0.8-0.3-1.1,0    c-4,3.9-7.1,8.6-9.4,14c-0.5-3.2-0.7-8.2,0.9-13.3c2.5-7.8,8.5-10.7,9.7-11.3c1.7,0.6,3.3,1,5.2,1.1c0.9,0,1.7,0.1,2.5,0.1    c6.2,0,10.5-1.7,11.9-2.5c0.2,0.2,0.5,0.3,0.7,0.4C53.7,64,46.4,73.3,41.4,82.4c-0.2,0.4,0,0.9,0.3,1.1c0.2,0,0.2,0.1,0.4,0.1    c0.3,0,0.6-0.2,0.7-0.4c4.9-9.1,12.4-18.4,22.7-28.2c0,0.5,0,0.9,0.2,1.3c-3.2,3.6-5.8,8.5-7.8,14.7c-0.2,0.4,0.1,0.9,0.5,1    c0.1,0,0.2,0,0.2,0c0.3,0,0.6-0.2,0.8-0.6c2-6,4.4-10.6,7.5-14.1c0.2,0.1,0.5,0.2,0.7,0.2c0.2,0,0.2,0,0.4,0    c0.6,0,1.2-0.2,1.7-0.6c0.1-0.1,0.2-0.2,0.3-0.3c0.1,0,0.2,0.2,0.3,0.2c0.3,0.2,0.6,0.2,1,0.2c0.4,0,0.3,0,0.5,0    c4,3.9,7,8.3,8.6,13.4c0.1,0.3,0.4,0.6,0.7,0.6c0.3,0,0.2,0,0.2,0c0.4-0.2,0.6-0.6,0.5-1c-1.3-4.1-3.5-7.8-6.4-11.3    c5.9,3.3,11.3,8.9,16.6,16.8c0.2,0.2,0.4,0.4,0.6,0.4s0.3,0,0.4-0.2c0.4-0.2,0.5-0.7,0.2-1.1c-6.1-9.4-12.7-15.6-20-18.8    c0.1-0.2,0.2-0.3,0.2-0.5c1-0.2,2.1-0.7,2.4-2.1c0-0.1,0-0.2,0-0.2l0,0c2.1,0,7.1-0.4,11.6-3.8c0.7,0,2.9,0.3,5,1.1l0,0    c2.1,0.8,4.1,2.1,5,4.2c1.4,3.6,0,8-1,10.4L96.8,64.7z M98.8,52.7c-0.8-1.3-2-2.4-3.2-3.1c3.2-1,6.3-3.2,9.4-6.7    c0.2-0.3,0.2-0.7,0-1c-0.2-0.3-0.6-0.4-1-0.2c-4,2.1-8.6,3.2-12.3,2.9c0.7-1.1,1.2-2.3,1.6-3.6c4.3-1.6,8.7-1.5,13,0.2    C105.6,47.2,103,51,98.8,52.7L98.8,52.7z" fill="#FFFFFF"/>
    </g>
  </g>
</svg>