<?xml version="1.0" encoding="UTF-8"?><svg id="Layer_1" xmlns="http://www.w3.org/2000/svg" xmlns:xlink="http://www.w3.org/1999/xlink" viewBox="0 0 1500 375"><defs><style>.cls-1{fill:none;}.cls-2{opacity:0;}.cls-2,.cls-3{fill:#253551;}.cls-4{isolation:isolate;}.cls-5{clip-path:url(#clippath-1);}.cls-6{clip-path:url(#clippath-3);}.cls-7{clip-path:url(#clippath-2);}.cls-8{clip-path:url(#clippath);}</style><clipPath id="clippath"><rect class="cls-1" width="1500" height="375"/></clipPath><clipPath id="clippath-1"><rect class="cls-1" width="1500" height="375"/></clipPath><clipPath id="clippath-2"><rect class="cls-1" width="1500" height="375"/></clipPath><clipPath id="clippath-3"><rect class="cls-1" width="1500" height="375"/></clipPath></defs><g class="cls-8"><g class="cls-5"><g class="cls-4"><g class="cls-7"><rect class="cls-2" width="1500" height="375"/></g></g><path class="cls-3" d="M277.91,167.73c-1.48-2.52-3.65-4.41-6.05-5.82,6.01-1.79,11.75-5.89,17.77-12.64.48-.54.5-1.34.06-1.9-.44-.57-1.22-.74-1.86-.4-7.65,3.98-16.06,5.93-23.04,5.44,1.32-2.1,2.28-4.37,2.99-6.74,8.11-2.98,16.31-2.9,24.42.28-1.49,11.26-6.18,18.4-14.29,21.79M274.12,190.14c-1.01,2.35-1.27,4.96-.75,7.55.85,4.2,2.23,14.28-3.1,17.22-.58.32-1.19.56-1.81.73,0,0,0,0-.01,0-4.04,1.12-8.88-.55-12.45-2.31-3.85-1.89-8.55-1.64-12.27.68-3.92,2.44-9.53,5.34-13.99,5.34-5.97,0-8.3-3.03-8.98-4.2,6.62-17.37,1.69-33.61,1.45-34.37-.25-.78-1.08-1.22-1.86-.97-.78.24-1.22,1.08-.97,1.86.06.2,6.03,19.89-4.09,38.26-7.89,14.32-21.64,18.37-27.18,19.45-2.1.41-4.15,1.2-6.09,2.34-4.45,2.62-15.64,8.35-23.35,4.83-6.15-2.81-5.39-10.21-3.67-15.94.65-2.18.91-4.41.81-6.6,3.91-12.07,10.18-22.3,18.64-30.42.59-.57.61-1.51.04-2.1-.57-.59-1.51-.61-2.1-.04-7.56,7.25-13.42,16.11-17.5,26.39-.92-6.05-1.39-15.34,1.71-25.02,4.74-14.78,15.93-20.15,18.24-21.12,3.07,1.08,6.32,1.82,9.7,2.07,1.62.12,3.17.17,4.67.17,11.64,0,19.62-3.29,22.34-4.6.4.31.85.54,1.33.69-19.18,18.51-33.08,35.9-42.32,53-.39.72-.12,1.63.6,2.02.23.12.47.18.71.18.53,0,1.04-.28,1.31-.78,9.23-17.06,23.19-34.46,42.56-53.04-.05.83.11,1.66.5,2.43-6.08,6.83-10.94,15.86-14.78,27.62-.26.78.17,1.62.95,1.88.15.05.31.07.46.07.63,0,1.21-.4,1.41-1.02,3.7-11.3,8.33-19.96,14.09-26.47.43.21.88.38,1.36.46.25.04.5.06.75.06,1.17,0,2.29-.43,3.18-1.22.2-.18.36-.39.53-.59.21.14.42.28.65.39.6.28,1.24.41,1.89.41.31,0,.61-.04.92-.1,7.62,7.27,13.08,15.7,16.19,25.09.21.62.79,1.02,1.41,1.02.15,0,.31-.03.47-.08.78-.26,1.2-1.1.94-1.88-2.55-7.67-6.57-14.73-11.98-21.07,11.14,6.22,21.35,16.61,31.03,31.58.29.44.76.68,1.25.68.28,0,.56-.08.81-.24.69-.45.89-1.37.44-2.06-11.5-17.78-23.81-29.33-37.56-35.26.16-.29.29-.61.39-.94,1.81-.32,4.01-1.36,4.52-3.87.03-.17.03-.32.04-.48h.02c3.88,0,13.4-.74,21.7-7.15,1.4.12,5.33.56,9.31,2.03,0,0,.02,0,.03.01,3.87,1.44,7.78,3.87,9.42,7.95,2.71,6.7-.05,15.07-1.94,19.46M280.09,262.92c-11.81-18.41-24.67-32.84-39.12-43.94,1.56-.79,3.04-1.63,4.33-2.44,2.86-1.77,6.45-1.98,9.38-.54,3.77,1.86,8.83,3.59,13.48,2.75,6.59,9.29,10.51,23.78,11.93,44.16M235.49,221.29c.81-.26,1.63-.56,2.43-.89,14.95,11.21,28.18,26,40.32,45.13-19.66-8.1-33.18-16.03-42.23-24.76,1.7-7.18,1.53-13.7-.52-19.48M223.23,221.04c-.11,4.34.34,8.76,1.4,13.22-3.17-4.36-5.15-9.17-5.96-14.38.26-.52.51-1.04.75-1.56.85.94,2.08,1.95,3.81,2.73M230.75,247.53c-4.49-.67-8.26-1.84-11.33-3.53-.04-.03-.1-.05-.14-.07-4.91-2.74-8-6.83-9.38-12.31,2.34-2.17,4.57-4.75,6.55-7.84,1.69,6.6,5.21,12.55,10.55,17.72.29.28.66.42,1.04.42.28,0,.56-.08.81-.24.58-.38.83-1.11.59-1.76-2.21-6.05-3.29-12.07-3.26-17.93,1.06.21,2.24.35,3.56.35.92,0,1.88-.13,2.84-.31,2.68,7.25,2.08,15.62-1.84,25.51M183.62,276.39c10.36-13.53,17.77-27.42,22.06-41.35.57-.41,1.15-.84,1.72-1.29,1.62,5.18,4.75,9.22,9.35,12.1-3.69,12.59-14.3,22.39-33.13,30.54M183.51,244.29c1.65-.98,3.38-1.64,5.15-1.99,2.87-.56,7.79-1.87,13.07-4.79-4.48,13-11.74,25.94-21.64,38.59-.82-10.33-.1-20.77,2.16-31.08.44-.25.87-.49,1.26-.72M158.96,181.29c-3.79.26-7.32-.42-10.56-1.56,4.58.15,8.82-.3,12.76-1.33-.75.88-1.49,1.85-2.2,2.89M133.32,178.06c7.99-8.37,16.44-13.61,25.75-16.02,3.37,3.15,7.46,6.02,12.07,8.16-1.34.73-3,1.77-4.79,3.19-7.33,3.42-15.91,4.24-26.22,2.51-.71-.11-1.41.29-1.65.97-.24.68.04,1.44.67,1.79,5.01,2.82,10.97,5.6,17.93,5.66-.62,1.1-1.21,2.27-1.76,3.52-7.76-.56-14.98-3.74-22-9.78M123.78,148.81c-1.52-4.96-2.99-9.73-5.32-13.5,17.25,6.75,28.89,13.86,36.35,22.18.01.02.03.02.05.03.56.7,1.16,1.39,1.8,2.08-7.48,2.22-14.41,6.19-20.99,12.05-6.74-6.09-9.47-14.97-11.89-22.85M149.76,148.74c-6.91-5.46-15.95-10.42-27.6-15.16,11.82.77,20.01,3.38,25.92,8.14.38,2.37.92,4.77,1.68,7.02M146.33,109.02c15.16,5.45,27.29,13.94,36.03,25.27.29.38.73.58,1.18.58.32,0,.64-.1.91-.31.65-.5.77-1.44.27-2.09-8.73-11.32-20.66-19.92-35.5-25.59,1.96-.47,4.75-.43,8.06.18,1.91.35,3.85.33,5.78-.08,5.41-1.15,19.27-3.02,31.07,4.24,14.05,8.65,15.92,22.1,16.09,23.64-.43,3.89-.27,7.27.17,10.1-6.89-8.68-15.45-16.56-25.99-23.88-.67-.47-1.6-.3-2.07.37-.47.68-.3,1.6.37,2.07,13.24,9.2,23.27,19.27,30.7,30.75-.25.5-.4,1.04-.47,1.58-.83.07-1.71.32-2.46.83-4.48-6.33-9.86-11.33-16.04-14.85-.71-.41-1.62-.15-2.03.56-.41.71-.16,1.62.56,2.03,6.15,3.5,11.47,8.58,15.85,15.08-.18,1.66.68,3.13,1.68,4.17-.26.43-.46.89-.56,1.4-.11.58-.11,1.17,0,1.73-3.11,1.42-12.28,4.96-25.17,4-15.91-1.18-29.05-14.13-32.05-22.63-.82-2.32-1.38-4.87-1.76-7.38,0,0,0,0,0-.01-.65-4.27-.77-8.4-.77-11.03,0-1.8-.31-3.57-.92-5.25-2.61-7.18-3.69-12.99-2.93-15.48M213.37,158.81l.71,2.02-1.36.88c-.55-.53-1.18-1.34-.94-2.1.2-.64.97-.79,1.59-.8M225.21,171.28l-.14-2.74c-.04-.82-.76-1.43-1.56-1.41-.82.04-1.45.74-1.41,1.56l.15,2.9c.03.54-.19,1.06-.59,1.42-.4.36-.94.53-1.48.44-.4-.06-.76-.26-1.03-.55-.01,0-.02-.02-.03-.04,0,0-.01,0-.02,0-.08-.1-.16-.2-.22-.31-.27-.49-.29-1.07-.07-1.58l1.96-4.47s0,0,0,0h0c.07-.17.11-.35.12-.52,0-.05,0-.1-.01-.15,0-.12-.02-.25-.06-.37-.02-.06-.05-.11-.07-.17-.05-.11-.11-.21-.19-.31-.03-.03-.03-.07-.06-.1-.02-.02-.04-.03-.06-.04-.03-.02-.04-.06-.07-.08-.08-.07-.17-.11-.26-.15-.04-.03-.08-.06-.13-.08-.16-.07-.33-.11-.5-.12-.05,0-.1.01-.14.01-.12,0-.25.02-.37.06-.06.02-.12.05-.18.08-.06.03-.13.04-.19.08l-3.73,2.42c-.62.4-1.42.24-1.84-.36-.21-.3-.28-.66-.21-1.02.07-.36.28-.66.59-.86l3.25-2.11c.58-.37.82-1.09.59-1.74l-1.34-3.82c-.18-.51-.14-1.05.11-1.53.25-.48.68-.82,1.2-.96.5-.13,1.02-.07,1.46.19.45.26.77.67.9,1.17l.55,2.07-.72,1.5c-.35.74-.04,1.63.7,1.98.74.35,1.63.04,1.98-.7l1.63-3.42c.18-.38.52-.65.94-.75.41-.1.84,0,1.17.27.59.47.69,1.31.24,1.91l-2.22,2.95c-.43.58-.39,1.38.1,1.91.49.53,1.29.63,1.9.23l3.06-1.99c.38-.25.75-.18.93-.12.18.06.52.23.67.65.2.55-.08,1.17-.63,1.38l-2.96,1.12c-.41.15-.73.49-.88.9-.14.41-.1.88.13,1.25l1.57,2.63c.04.06.08.12.12.17.3.37.41.84.3,1.3-.1.46-.41.85-.83,1.05-.42.2-.9.21-1.32.01-.42-.19-.73-.56-.85-1.01v-.03ZM230.86,169.17c-.15-.35-.33-.68-.56-.99l-.62-1.03,1.3-.49c.4-.15.75-.38,1.07-.63.39.36.73.91.57,1.71-.17.86-1.03,1.25-1.76,1.44M260.28,158.04c.88-.88,1.74-1.81,2.56-2.85,5.72.74,12.45-.15,19.08-2.45-4.87,4.19-9.61,6.46-14.57,7.07-2.61-.94-5.14-1.47-7.07-1.77M217.37,120.49c5.83-12.88,18.71-18.89,25.86-21.33,8.17-2.78,15.08-3.03,16.74-2.14,2.7,1.44,2.23,6.4,1.89,8.47-.3,1.85-.14,3.78.46,5.58,2.03,6.16,8.02,27.25-.19,39.98-8.58,13.29-23.67,13.84-27.25,13.78-.38-.59-.86-1.08-1.35-1.44.09-.63.05-1.29-.19-1.93-.42-1.17-1.34-2.07-2.52-2.46-.5-.17-1.02-.23-1.53-.21.22-1.18-.07-2.41-.81-3.39,3.34-10.63,8.71-19.43,15.99-26.15.6-.56.64-1.5.09-2.1-.56-.6-1.5-.64-2.1-.09-7.49,6.92-13.04,15.9-16.55,26.68-.61-.13-1.24-.13-1.87.01-.66.15-1.26.45-1.77.86-.14-.34-.31-.67-.52-.97,3.84-20.69,14.9-37.15,32.91-48.93.69-.45.88-1.37.43-2.06-.45-.69-1.37-.88-2.06-.43-18.33,11.99-29.72,28.65-33.94,49.54-.85-.24-1.74-.27-2.62-.03-.28.08-.55.19-.81.31-1.81-3.72-5.79-14.98,1.72-31.58M281.01,116.46c-5.24,3.86-9.19,7.97-11.88,12.41-.26-3.04-.73-5.96-1.28-8.65,3.34-2.22,7.68-3.47,13.17-3.76M268.63,142.21c.43-2.31.67-4.66.72-7.01,2.24-6,6.69-11.4,13.53-16.42-.79,3.51-.45,6.75-.11,9.9.4,3.68.79,7.49-.6,11.91-4.52-.33-9.04.21-13.54,1.62M295.3,145.15c.07-.65-.29-1.28-.9-1.53-3.06-1.3-6.14-2.19-9.22-2.68,1.39-4.79.95-8.91.55-12.59-.48-4.39-.89-8.19,1.42-12.73.06-.11.1-.23.13-.35h0c.04-.17.03-.34.01-.5,0-.04-.01-.08-.02-.12-.03-.16-.08-.31-.17-.45,0,0-.01-.02-.02-.02,0,0,0-.01,0-.02-.01-.02-.03-.02-.04-.04-.09-.13-.2-.24-.32-.34-.03-.02-.05-.04-.08-.06-.14-.09-.29-.16-.46-.2-.03,0-.07-.01-.1-.02-.07-.01-.13-.03-.2-.03-7.9-.28-14.05.92-18.73,3.67-.68-2.77-1.39-5.18-1.99-6.99-.45-1.37-.57-2.78-.35-4.18.93-5.78-.29-9.89-3.43-11.56-2.97-1.58-11.18-.74-19.1,1.95-7.62,2.59-21.33,9.01-27.62,22.92-1.38,3.05-2.38,5.91-3.12,8.61-1.99-5.54-6.35-13.32-15.88-19.19-12.71-7.82-27.48-5.83-33.24-4.62-1.54.33-3.09.35-4.62.06-4.49-.83-10.42-1.15-13.24,2.01-.01.01-.02.02-.04.03,0,0,0,0-.01,0-2.98,3.42-.59,12.39,1.93,19.33.5,1.36.75,2.79.74,4.23,0,1.99.07,4.81.37,7.91-7.59-5.02-18.14-7.3-33.49-7.3-.19,0-.38,0-.57,0-.02,0-.03,0-.05,0-.04,0-.07.01-.11.02-.14.02-.28.05-.41.1-.05.02-.09.04-.13.07-.11.06-.21.13-.31.22-.04.04-.08.07-.11.11-.1.12-.18.25-.24.39,0,.02-.03.04-.04.06,0,0,0,0,0,.01,0,0,0,.01,0,.01-.06.17-.08.34-.07.51,0,.05.01.1.02.15.02.12.04.24.09.36.02.06.05.11.08.16.06.1.13.2.21.29.04.04.07.09.12.13.02.02.03.04.05.06,4.24,3.28,6.14,9.48,8.34,16.65,2.51,8.18,5.34,17.39,12.53,24.01-1.14,1.1-2.26,2.25-3.38,3.47-.27.29-.41.68-.39,1.08.02.4.19.77.49,1.03,7.51,6.8,15.58,10.62,24.01,11.45-.14.4-.3.78-.44,1.2-3.93,12.26-2.45,23.9-1.21,29.75.55,2.59.4,5.39-.41,8.1-2.91,9.69-1.03,16.61,5.29,19.5,2.15.98,4.48,1.39,6.85,1.39,5.07,0,10.33-1.86,14.59-3.88-2.18,11.07-2.66,22.26-1.4,33.31,0,.03.02.05.03.08.03.18.09.35.18.5.04.07.09.12.14.17.06.08.11.16.19.23.04.03.08.04.11.06.02.01.04.04.06.06.06.04.12.05.19.08.05.02.09.04.13.06.14.05.29.07.44.08h0c.18,0,.36-.03.54-.1,22.73-8.79,35.46-19.64,39.93-34,3.4,1.62,7.42,2.75,12.09,3.34.06,0,.12.01.19.01.59,0,1.14-.35,1.37-.92.81-1.94,1.49-3.84,2.05-5.7,9.98,9.18,24.76,17.48,46.24,25.98.02,0,.04,0,.06.01.16.05.32.09.48.09h0c.14,0,.29-.02.42-.07.04-.01.08-.04.13-.06.07-.03.15-.05.22-.1.01,0,.02-.02.03-.03.02-.01.04-.01.05-.03.12-.09.22-.2.31-.31.02-.03.04-.06.06-.09.08-.13.15-.26.18-.41,0-.02.02-.04.02-.07.03-.13.05-.26.04-.4-1.07-23.8-4.99-40-12.27-50.76.2-.09.39-.18.58-.28,6.81-3.76,5.79-14.4,4.58-20.42-.4-2-.21-4,.56-5.79,1.99-4.64,4.84-13.36,2.28-20.87,9.3-3.92,14.74-12.41,16.17-25.29"/></g><path class="cls-3" d="M416.87,124.42c0,.64-.11.96-.32.96-3.72,0-7.62,1.51-11.71,4.54-4.09,3.03-7.73,7.14-10.91,12.35l-20.55,31.86v36c0,3.29.32,5.68.96,7.17.64,1.49,1.83,2.5,3.58,3.03,1.75.53,4.59.8,8.52.8.32,0,.48.32.48.96s-.16.96-.48.96c-3.29,0-5.84-.05-7.65-.16l-11.31-.16-10.99.16c-2.02.11-4.73.16-8.12.16-.21,0-.32-.32-.32-.96s.1-.96.32-.96c3.93,0,6.8-.26,8.6-.8,1.8-.53,3.05-1.57,3.74-3.11.69-1.54,1.04-3.9,1.04-7.09v-33.45l-25.81-38.23c-3.19-4.88-6.11-8.28-8.76-10.2-2.66-1.91-5.58-2.87-8.76-2.87-.32,0-.48-.32-.48-.96s.16-.96.48-.96l5.58.16c2.55.21,4.41.32,5.58.32,3.61,0,8.28-.1,14.02-.32l8.92-.16c.21,0,.32.32.32.96s-.11.96-.32.96c-5.2,0-7.81,1.22-7.81,3.66,0,1.06.58,2.44,1.75,4.14l25.01,37.12,18.48-28.99c2.44-4.03,3.66-7.33,3.66-9.88,0-4.03-2.87-6.05-8.6-6.05-.21,0-.32-.32-.32-.96s.1-.96.32-.96l7.65.16c4.25.21,8.07.32,11.47.32,1.8,0,3.98-.1,6.53-.32l5.89-.16c.21,0,.32.32.32.96Z"/><path class="cls-3" d="M466.42,214.43c.42,0,.69.24.8.72.1.48-.05.82-.48,1.04l-16.41,7.81c-.43.21-.9.32-1.43.32-1.38,0-2.63-.93-3.74-2.79-1.12-1.86-1.89-4.38-2.31-7.57l-7.97,5.26c-2.55,1.81-4.86,3.08-6.93,3.82-2.07.74-4.28,1.12-6.61,1.12-4.04,0-7.17-1.04-9.4-3.11-2.23-2.07-3.35-4.7-3.35-7.89,0-3.4,1.35-6.24,4.06-8.52,2.71-2.28,7.03-4.54,12.98-6.77l17.05-6.21v-10.51c0-6.37-.82-10.99-2.47-13.86-1.65-2.87-4.06-4.3-7.25-4.3-3.5,0-6.16,1.22-7.96,3.66-1.81,2.44-2.97,5.2-3.5,8.28-.64,4.67-2.81,7.01-6.53,7.01-1.91,0-3.35-.48-4.3-1.43s-1.43-2.12-1.43-3.5c0-2.65,1.67-5.31,5.02-7.97,3.35-2.65,7.38-4.83,12.11-6.53,4.72-1.7,8.89-2.55,12.51-2.55,4.35,0,7.73,1.41,10.12,4.22,2.39,2.81,3.58,6.88,3.58,12.19v29.47c0,3.61.5,6.27,1.51,7.96,1.01,1.7,2.57,2.55,4.7,2.55,1.91,0,4.35-.64,7.33-1.91h.32ZM442.68,211.56v-17.68l-13.38,5.42c-2.87,1.06-5.05,2.37-6.53,3.9-1.49,1.54-2.23,3.48-2.23,5.81,0,2.55.82,4.65,2.47,6.29,1.65,1.65,3.74,2.47,6.29,2.47,2.12,0,4.51-.8,7.17-2.39l6.21-3.82Z"/><path class="cls-3" d="M487.12,179.54c2.33,2.23,5.84,4.57,10.51,7.01,3.72,1.91,6.64,3.56,8.76,4.94,2.12,1.38,3.93,3.21,5.42,5.5,1.49,2.29,2.23,5.02,2.23,8.2,0,5.42-2.02,10.04-6.05,13.86-4.04,3.82-9.61,5.73-16.73,5.73-2.76,0-5.39-.37-7.89-1.12-2.5-.74-5.02-1.96-7.57-3.66-.64-.42-.96-1.06-.96-1.91l-.32-12.9c0-.32.29-.5.88-.56.58-.05.93.08,1.04.4,1.91,5.31,4.56,9.43,7.96,12.35,3.4,2.92,7.22,4.38,11.47,4.38,3.08,0,5.47-.74,7.17-2.23,1.7-1.49,2.55-3.72,2.55-6.69,0-4.25-1.19-7.51-3.58-9.8-2.39-2.28-5.97-4.64-10.75-7.09-3.61-1.8-6.43-3.4-8.44-4.78-2.02-1.38-3.74-3.19-5.18-5.42-1.43-2.23-2.15-4.99-2.15-8.28,0-5.84,2.15-10.28,6.45-13.3,4.3-3.03,9.48-4.54,15.53-4.54,4.25,0,8.23.8,11.95,2.39.96.43,1.43,1.01,1.43,1.75,0,2.23-.05,3.98-.16,5.26l-.16,6.85c0,.21-.32.32-.96.32s-.96-.1-.96-.32c0-3.29-1.78-6.29-5.34-9-3.56-2.71-7.36-4.06-11.39-4.06-2.55,0-4.57.64-6.05,1.91-1.49,1.27-2.23,3.29-2.23,6.05,0,3.61,1.17,6.53,3.5,8.76Z"/><path class="cls-3" d="M640.21,222.07c0,.64-.21.96-.64.96-2.44,0-4.41-.05-5.89-.16l-8.92-.16-8.6.16c-1.49.11-3.56.16-6.21.16-.21,0-.32-.32-.32-.96s.1-.96.32-.96c4.03,0,6.69-.72,7.96-2.15s1.91-4.38,1.91-8.84v-24.85c0-6.27-1.09-10.88-3.27-13.86-2.18-2.97-5.55-4.46-10.12-4.46-3.08,0-6.19.85-9.32,2.55-3.13,1.7-5.97,3.98-8.52,6.85v33.77c0,4.46.64,7.41,1.91,8.84s3.93,2.15,7.97,2.15c.21,0,.32.32.32.96s-.11.96-.32.96c-2.66,0-4.73-.05-6.21-.16l-8.76-.16-8.6.16c-1.49.11-3.5.16-6.05.16-.32,0-.48-.32-.48-.96s.16-.96.48-.96c3.93,0,6.53-.72,7.81-2.15s1.91-4.38,1.91-8.84v-24.85c0-6.27-1.09-10.88-3.27-13.86-2.18-2.97-5.55-4.46-10.12-4.46-3.08,0-6.13.8-9.16,2.39-3.03,1.59-5.81,3.82-8.36,6.69v34.09c0,3.08.24,5.39.72,6.93.48,1.54,1.41,2.6,2.79,3.19,1.38.58,3.45.88,6.21.88.32,0,.48.32.48.96s-.16.96-.48.96c-2.66,0-4.73-.05-6.21-.16l-8.6-.16-8.6.16c-1.49.11-3.5.16-6.05.16-.32,0-.48-.32-.48-.96s.16-.96.48-.96c2.76,0,4.8-.29,6.13-.88,1.33-.58,2.23-1.64,2.71-3.19.48-1.54.72-3.85.72-6.93v-31.22c0-3.5-.43-6.05-1.27-7.65-.85-1.59-2.23-2.39-4.14-2.39-1.59,0-4.41.8-8.44,2.39h-.16c-.43,0-.74-.24-.96-.72-.21-.48-.11-.82.32-1.04l19.12-9.24.96-.16c1.06,0,2.1,1.19,3.11,3.58,1.01,2.39,1.57,5.55,1.67,9.48,7.33-8.92,15.13-13.38,23.42-13.38,4.78,0,8.65,1.19,11.63,3.58,2.97,2.39,4.83,5.87,5.58,10.43,3.93-4.78,7.86-8.31,11.79-10.59,3.93-2.28,8.02-3.42,12.27-3.42,5.63,0,9.96,1.65,12.98,4.94,3.03,3.29,4.54,8.18,4.54,14.66v30.75c0,3.08.24,5.39.72,6.93.48,1.54,1.41,2.6,2.79,3.19,1.38.58,3.45.88,6.21.88.42,0,.64.32.64.96Z"/><path class="cls-3" d="M650.57,222.07c0-.64.16-.96.48-.96,3.93,0,6.53-.72,7.81-2.15s1.91-4.38,1.91-8.84v-29.63c0-3.72-.37-6.42-1.12-8.12-.74-1.7-2.07-2.55-3.98-2.55-1.81,0-4.14.74-7.01,2.23h-.16c-.43,0-.74-.26-.96-.8-.21-.53-.11-.9.32-1.12l21.19-9.88.64-.16c.32,0,.66.16,1.04.48.37.32.56.64.56.96,0,.74-.05,2.87-.16,6.37-.11,3.5-.16,7.65-.16,12.43v29.79c0,3.08.24,5.39.72,6.93.48,1.54,1.41,2.6,2.79,3.19,1.38.58,3.45.88,6.21.88.32,0,.48.32.48.96s-.16.96-.48.96c-2.66,0-4.73-.05-6.21-.16l-8.6-.16-8.92.16c-1.49.11-3.45.16-5.89.16-.32,0-.48-.32-.48-.96ZM659.25,140.03c-1.33-1.27-1.99-3.08-1.99-5.42,0-2.12.66-3.82,1.99-5.1,1.33-1.27,3.16-1.91,5.5-1.91s3.98.64,5.26,1.91,1.91,2.97,1.91,5.1c0,2.34-.64,4.14-1.91,5.42s-3.03,1.91-5.26,1.91-4.17-.64-5.5-1.91Z"/><path class="cls-3" d="M765.9,222.07c0,.64-.16.96-.48.96-2.66,0-4.73-.05-6.21-.16l-8.6-.16-8.6.16c-1.49.11-3.5.16-6.05.16-.32,0-.48-.32-.48-.96s.16-.96.48-.96c2.76,0,4.8-.29,6.13-.88,1.33-.58,2.23-1.64,2.71-3.19.48-1.54.72-3.85.72-6.93v-25.33c0-6.16-1.14-10.7-3.42-13.62-2.29-2.92-5.92-4.38-10.91-4.38-3.08,0-6.24.8-9.48,2.39-3.24,1.59-6.19,3.82-8.84,6.69v34.25c0,3.08.24,5.39.72,6.93.48,1.54,1.41,2.6,2.79,3.19,1.38.58,3.45.88,6.21.88.32,0,.48.32.48.96s-.16.96-.48.96c-2.66,0-4.73-.05-6.21-.16l-8.6-.16-8.6.16c-1.49.11-3.5.16-6.05.16-.32,0-.48-.32-.48-.96s.16-.96.48-.96c2.76,0,4.8-.29,6.13-.88,1.33-.58,2.23-1.64,2.71-3.19.48-1.54.72-3.85.72-6.93v-31.22c0-3.5-.43-6.05-1.27-7.65-.85-1.59-2.23-2.39-4.14-2.39-1.59,0-4.41.8-8.44,2.39h-.16c-.43,0-.74-.24-.96-.72-.21-.48-.11-.82.32-1.04l19.12-9.24.96-.16c1.06,0,2.1,1.19,3.11,3.58,1.01,2.39,1.57,5.55,1.67,9.48,7.75-9.13,15.88-13.7,24.37-13.7,5.84,0,10.38,1.7,13.62,5.1,3.24,3.4,4.86,8.23,4.86,14.5v31.06c0,3.08.24,5.39.72,6.93.48,1.54,1.41,2.6,2.79,3.19,1.38.58,3.45.88,6.21.88.32,0,.48.32.48.96Z"/><path class="cls-3" d="M918.51,222.07c0,.64-.21.96-.64.96-2.02,0-5.15-.1-9.4-.32-4.25-.21-7.38-.32-9.4-.32-2.44,0-5.47.11-9.08.32-3.4.21-6.05.32-7.96.32-.43,0-.64-.32-.64-.96s.21-.96.64-.96c3.82,0,6.56-.34,8.2-1.04,1.65-.69,2.47-1.94,2.47-3.74,0-1.59-.74-3.98-2.23-7.17l-13.7-28.67h-38.07l-9.4,21.82c-1.38,3.19-2.07,6.11-2.07,8.76,0,6.69,5.15,10.04,15.45,10.04.53,0,.8.32.8.96s-.27.96-.8.96c-1.91,0-4.67-.1-8.28-.32-4.04-.21-7.54-.32-10.51-.32-2.66,0-5.89.11-9.72.32-3.19.21-5.89.32-8.12.32-.53,0-.8-.32-.8-.96s.27-.96.8-.96c2.97,0,5.5-.56,7.57-1.67,2.07-1.12,4.06-3.11,5.97-5.97,1.91-2.87,4.03-7.06,6.37-12.58l33.61-78.7c.21-.32.64-.48,1.27-.48s1.01.16,1.12.48l37.91,79.01c3.61,7.75,6.69,13.01,9.24,15.77,2.55,2.76,5.47,4.14,8.76,4.14.42,0,.64.32.64.96ZM840.13,177.15h35.05l-18.48-38.55-16.57,38.55Z"/><path class="cls-3" d="M937.62,220.4c-4.67-3.03-8.15-6.93-10.43-11.71-2.29-4.78-3.43-9.82-3.43-15.13,0-6.8,1.75-12.72,5.26-17.76,3.5-5.04,7.97-8.92,13.38-11.63,5.42-2.71,10.99-4.06,16.73-4.06,4.78,0,9.11.96,12.98,2.87,3.88,1.91,5.81,4.3,5.81,7.17,0,1.59-.56,2.92-1.67,3.98-1.12,1.06-2.58,1.59-4.38,1.59-3.4,0-5.95-1.91-7.65-5.73-1.17-2.33-2.52-4.03-4.06-5.1-1.54-1.06-3.74-1.59-6.61-1.59-5.74,0-10.2,2.31-13.38,6.93-3.19,4.62-4.78,10.75-4.78,18.4,0,8.92,2.18,16.22,6.53,21.9,4.35,5.68,10.99,8.52,19.91,8.52,6.05,0,11.36-1.7,15.93-5.1h.32c.32,0,.61.16.88.48.26.32.24.58-.08.8-3.72,3.4-7.46,5.87-11.23,7.41-3.77,1.54-7.99,2.31-12.66,2.31-6.91,0-12.69-1.51-17.36-4.54Z"/><path class="cls-3" d="M1049.45,214.43c.42,0,.69.24.8.72.1.48-.06.82-.48,1.04l-16.41,7.81c-.43.21-.9.32-1.43.32-1.38,0-2.63-.93-3.74-2.79-1.12-1.86-1.89-4.38-2.31-7.57l-7.96,5.26c-2.55,1.81-4.86,3.08-6.93,3.82-2.07.74-4.28,1.12-6.61,1.12-4.04,0-7.17-1.04-9.4-3.11s-3.34-4.7-3.34-7.89c0-3.4,1.35-6.24,4.06-8.52,2.71-2.28,7.03-4.54,12.98-6.77l17.04-6.21v-10.51c0-6.37-.82-10.99-2.47-13.86-1.65-2.87-4.06-4.3-7.25-4.3-3.5,0-6.16,1.22-7.97,3.66-1.81,2.44-2.97,5.2-3.5,8.28-.64,4.67-2.82,7.01-6.53,7.01-1.91,0-3.35-.48-4.3-1.43-.96-.96-1.43-2.12-1.43-3.5,0-2.65,1.67-5.31,5.02-7.97,3.34-2.65,7.38-4.83,12.11-6.53,4.72-1.7,8.89-2.55,12.5-2.55,4.35,0,7.73,1.41,10.12,4.22,2.39,2.81,3.58,6.88,3.58,12.19v29.47c0,3.61.5,6.27,1.51,7.96,1.01,1.7,2.57,2.55,4.7,2.55,1.91,0,4.35-.64,7.33-1.91h.32ZM1025.72,211.56v-17.68l-13.38,5.42c-2.87,1.06-5.05,2.37-6.53,3.9-1.49,1.54-2.23,3.48-2.23,5.81,0,2.55.82,4.65,2.47,6.29,1.65,1.65,3.74,2.47,6.29,2.47,2.12,0,4.51-.8,7.17-2.39l6.21-3.82Z"/><path class="cls-3" d="M1130.7,213.79c.32,0,.58.27.8.8.21.53.16.85-.16.96l-18.32,8.76c-.64.21-1.01.32-1.12.32-1.38,0-2.55-1.12-3.5-3.34-.96-2.23-1.49-5.36-1.59-9.4-3.82,3.93-7.86,7.12-12.11,9.56-4.25,2.44-8.92,3.66-14.02,3.66-4.46,0-8.6-1.25-12.43-3.74s-6.88-6.08-9.16-10.75c-2.29-4.67-3.43-10.04-3.43-16.09,0-7.65,1.86-14.1,5.58-19.36,3.72-5.26,8.39-9.18,14.02-11.79,5.63-2.6,11.26-3.9,16.89-3.9s10.3,1.22,14.66,3.66v-35.05c0-3.82-.37-6.56-1.11-8.2-.75-1.65-2.07-2.47-3.98-2.47-1.38,0-3.72.69-7.01,2.07h-.32c-.43,0-.72-.24-.88-.72-.16-.48-.08-.82.24-1.04l20.71-10.04c.21-.1.48-.16.8-.16s.66.16,1.04.48c.37.32.56.64.56.96v96.38c0,3.82.42,6.56,1.27,8.2.85,1.65,2.28,2.47,4.3,2.47,2.65,0,5.31-.74,7.96-2.23h.32ZM1097.48,216.42c3.13-1.75,6.24-4.22,9.32-7.41v-35.68c-2.34-3.4-4.99-6-7.96-7.81-2.97-1.8-6.53-2.71-10.67-2.71-6.48,0-11.6,2.31-15.37,6.93-3.77,4.62-5.66,11.29-5.66,19.99s1.88,15.91,5.66,21.27c3.77,5.36,8.63,8.04,14.58,8.04,3.61,0,6.98-.88,10.12-2.63Z"/><path class="cls-3" d="M1189.64,213.79c.32,0,.61.19.88.56.26.37.29.72.08,1.04-7.12,6.37-14.97,9.56-23.58,9.56-6.27,0-11.63-1.41-16.09-4.22-4.46-2.81-7.86-6.58-10.2-11.31-2.34-4.72-3.5-9.8-3.5-15.21,0-6.26,1.51-12,4.54-17.2,3.03-5.2,7.14-9.32,12.35-12.35,5.2-3.03,10.94-4.54,17.2-4.54s10.86,1.57,14.1,4.7c3.24,3.13,4.86,7.62,4.86,13.46,0,2.87-.64,4.3-1.91,4.3l-39.35.16c-.21,2.34-.32,4.14-.32,5.42,0,9.24,2.18,16.67,6.53,22.3,4.35,5.63,10.51,8.44,18.48,8.44,3.19,0,5.87-.4,8.04-1.2,2.17-.8,4.75-2.1,7.73-3.9h.16ZM1154.91,167.83c-2.87,3.03-4.73,7.25-5.58,12.66l28.99-.64c0-5.42-1.09-9.53-3.27-12.35-2.18-2.81-5.23-4.22-9.16-4.22-4.46,0-8.12,1.51-10.99,4.54Z"/><path class="cls-3" d="M1316.12,222.07c0,.64-.21.96-.64.96-2.44,0-4.41-.05-5.89-.16l-8.92-.16-8.6.16c-1.49.11-3.56.16-6.21.16-.21,0-.32-.32-.32-.96s.1-.96.32-.96c4.03,0,6.69-.72,7.96-2.15s1.91-4.38,1.91-8.84v-24.85c0-6.27-1.09-10.88-3.27-13.86-2.18-2.97-5.55-4.46-10.12-4.46-3.08,0-6.19.85-9.32,2.55-3.13,1.7-5.97,3.98-8.52,6.85v33.77c0,4.46.64,7.41,1.91,8.84s3.93,2.15,7.96,2.15c.21,0,.32.32.32.96s-.11.96-.32.96c-2.66,0-4.73-.05-6.21-.16l-8.76-.16-8.6.16c-1.49.11-3.5.16-6.05.16-.32,0-.48-.32-.48-.96s.16-.96.48-.96c3.93,0,6.53-.72,7.81-2.15s1.91-4.38,1.91-8.84v-24.85c0-6.27-1.09-10.88-3.27-13.86-2.18-2.97-5.55-4.46-10.12-4.46-3.08,0-6.13.8-9.16,2.39-3.03,1.59-5.81,3.82-8.36,6.69v34.09c0,3.08.24,5.39.72,6.93.48,1.54,1.41,2.6,2.79,3.19,1.38.58,3.45.88,6.21.88.32,0,.48.32.48.96s-.16.96-.48.96c-2.66,0-4.73-.05-6.21-.16l-8.6-.16-8.6.16c-1.49.11-3.5.16-6.05.16-.32,0-.48-.32-.48-.96s.16-.96.48-.96c2.76,0,4.8-.29,6.13-.88,1.33-.58,2.23-1.64,2.71-3.19.48-1.54.72-3.85.72-6.93v-31.22c0-3.5-.43-6.05-1.27-7.65-.85-1.59-2.23-2.39-4.14-2.39-1.59,0-4.41.8-8.44,2.39h-.16c-.43,0-.74-.24-.96-.72-.21-.48-.11-.82.32-1.04l19.12-9.24.96-.16c1.06,0,2.1,1.19,3.11,3.58,1.01,2.39,1.57,5.55,1.67,9.48,7.33-8.92,15.13-13.38,23.42-13.38,4.78,0,8.66,1.19,11.63,3.58,2.97,2.39,4.83,5.87,5.58,10.43,3.93-4.78,7.86-8.31,11.79-10.59,3.93-2.28,8.02-3.42,12.27-3.42,5.63,0,9.96,1.65,12.98,4.94,3.03,3.29,4.54,8.18,4.54,14.66v30.75c0,3.08.24,5.39.72,6.93.48,1.54,1.41,2.6,2.79,3.19,1.38.58,3.45.88,6.21.88.42,0,.64.32.64.96Z"/><path class="cls-3" d="M1388.28,162.49c0,.64-.16.96-.48.96-2.87,0-5.28,1.01-7.25,3.03-1.97,2.02-3.85,5.36-5.66,10.04l-19.12,50.98c-3.93,10.3-7.62,18.34-11.07,24.13-3.45,5.79-7.01,9.93-10.67,12.43-3.66,2.49-7.83,3.74-12.5,3.74-2.55,0-4.59-.56-6.13-1.67-1.54-1.12-2.31-2.74-2.31-4.86,0-1.7.56-3,1.67-3.9,1.12-.9,2.42-1.35,3.9-1.35,1.38,0,2.52.18,3.42.56.9.37,1.83.88,2.79,1.51.21.11.82.42,1.83.96,1.01.53,2.25.8,3.74.8,2.55,0,4.94-1.09,7.17-3.27,2.23-2.18,4.62-5.79,7.17-10.83,2.55-5.04,5.58-12.13,9.08-21.27l-24.53-49.7c-2.44-4.67-4.3-7.73-5.58-9.16s-2.92-2.15-4.94-2.15c-.21,0-.32-.32-.32-.96s.11-.96.32-.96c2.44,0,4.3.05,5.58.16l5.58.16,10.35-.16c1.59-.1,3.72-.16,6.37-.16.21,0,.32.32.32.96s-.11.96-.32.96c-2.97,0-5.23.27-6.77.8-1.54.53-2.31,1.43-2.31,2.71,0,.53.26,1.43.8,2.71l20.55,42.37,12.27-35.21c.85-2.55,1.27-4.62,1.27-6.21,0-2.55-.93-4.38-2.79-5.5-1.86-1.12-4.86-1.67-9-1.67-.21,0-.32-.32-.32-.96s.1-.96.32-.96c2.87,0,5.04.05,6.53.16l9.56.16,5.74-.16c1.17-.1,2.92-.16,5.26-.16.32,0,.48.32.48.96Z"/><g class="cls-6"><path class="cls-3" d="M316.66,256.57c-.49.51.11,1.29,0,1.56-.15.49-.15,1.02,0,1.51.2.33.51.62.3.92-.29.49-.46,1.05-.5,1.62-.03.46.07.91.29,1.32.13.27.22.56.26.86,0,.23-.71.36-.57.59.12.18.21.38.27.59.07.19-.46.4-.51.78-.05.38.67.78.78,1.15.15.37.34.72.56,1.06l.16.22h976.89s.3-.78,0-1.08c-.28-.33-.48-.73-.58-1.16,0-.19.15-1.09.15-1.37s-.07-1.18-.3-1.28c-.28-.25-.42-.62-.37-1,.12-.33.3-.63.53-.89.15-.19,0-.78,0-1.04s.3-.57.38-.78c.08-.21.57-1.37.36-1.75-.21-.38-.51-.66-.36-.78.19-.18.33-.41.4-.66.02-.13.02-.26,0-.39H316.66Z"/></g></g></svg>