<?xml version="1.0" encoding="UTF-8"?>
<svg id="Logo" xmlns="http://www.w3.org/2000/svg" xmlns:xlink="http://www.w3.org/1999/xlink" viewBox="0 0 2852.71 582.17">
  <defs>
    <style>
      .cls-1 {
        fill: none;
      }

      .cls-2 {
        font-family: CormorantInfant-Regular, 'Cormorant Infant';
        font-size: 348.48px;
      }

      .cls-2, .cls-3 {
        fill: #fff;
      }

      .cls-4 {
        clip-path: url(#clippath-1);
      }

      .cls-5 {
        clip-path: url(#clippath);
      }
    </style>
    <clipPath id="clippath">
      <rect class="cls-1" y="195.57" width="372.79" height="382"/>
    </clipPath>
    <clipPath id="clippath-1">
      <rect class="cls-1" y="195.57" width="372.79" height="382"/>
    </clipPath>
  </defs>
  <g id="Yasmin_Academy_Favicon">
    <g class="cls-5">
      <g class="cls-4">
        <path class="cls-3" d="M372.77,300.44c.15-1.33-.59-2.6-1.82-3.12-6.23-2.64-12.48-4.45-18.75-5.44,2.82-9.74,1.93-18.13,1.12-25.61-.97-8.93-1.82-16.65,2.89-25.9.12-.23.2-.47.26-.72h0c.07-.35.07-.69.03-1.03,0-.08-.02-.16-.04-.24-.07-.32-.17-.63-.34-.92-.01-.02-.03-.03-.04-.05,0-.02,0-.03-.02-.04-.02-.04-.06-.05-.08-.08-.18-.27-.41-.49-.66-.68-.05-.04-.1-.09-.16-.12-.28-.18-.6-.32-.93-.4-.07-.02-.14-.02-.21-.03-.14-.02-.27-.06-.41-.07-16.06-.58-28.58,1.87-38.1,7.46-1.37-5.64-2.84-10.54-4.04-14.21-.92-2.79-1.16-5.65-.7-8.5,1.89-11.76-.59-20.12-6.98-23.52-6.03-3.22-22.73-1.51-38.86,3.97-15.49,5.27-43.38,18.33-56.17,46.62-2.8,6.2-4.85,12.03-6.34,17.52-4.04-11.28-12.91-27.1-32.29-39.03-25.84-15.91-55.89-11.87-67.61-9.39-3.13.66-6.29.71-9.39.13-9.14-1.69-21.19-2.33-26.92,4.09-.02.02-.05.04-.07.06,0,0-.02.01-.02.02-6.05,6.95-1.21,25.21,3.92,39.31,1.01,2.77,1.52,5.67,1.51,8.61,0,4.05.14,9.78.75,16.09-15.44-10.21-36.9-14.85-68.12-14.85-.38,0-.77,0-1.16,0-.03,0-.06.02-.09.02-.08,0-.14.03-.22.04-.29.03-.57.1-.83.21-.1.04-.18.09-.27.14-.23.12-.43.27-.62.45-.08.08-.16.15-.23.23-.2.24-.36.5-.49.8-.02.05-.06.07-.07.12,0,0,0,.02,0,.03,0,.01-.01.02-.02.03-.12.35-.16.7-.15,1.05,0,.11.03.21.04.31.03.25.09.49.18.73.05.12.1.22.16.33.12.21.26.4.43.59.08.09.15.18.24.26.04.03.06.08.11.12,8.63,6.67,12.48,19.28,16.96,33.87,5.1,16.64,10.85,35.38,25.5,48.83-2.31,2.23-4.6,4.58-6.87,7.05-.55.59-.83,1.38-.8,2.19.04.81.39,1.56.99,2.1,15.27,13.83,31.68,21.6,48.83,23.3-.29.82-.62,1.59-.89,2.44-8,24.94-4.98,48.62-2.47,60.52,1.11,5.27.82,10.97-.83,16.48-5.92,19.71-2.1,33.79,10.76,39.66,4.38,2,9.11,2.82,13.93,2.82,10.3,0,21.01-3.77,29.67-7.9-4.42,22.51-5.41,45.27-2.84,67.75,0,.06.05.1.05.16.06.36.18.7.36,1.02.08.13.19.23.29.35.13.16.22.34.38.47.07.06.16.08.23.13.05.03.07.09.12.12.12.07.25.11.38.17.09.04.18.09.27.12.29.09.6.15.9.15h0c.37,0,.74-.07,1.09-.2,46.23-17.89,72.13-39.95,81.23-69.15,6.91,3.3,15.09,5.58,24.59,6.79.13.02.25.02.38.02,1.21,0,2.32-.72,2.79-1.86,1.64-3.95,3.02-7.81,4.18-11.59,20.29,18.66,50.37,35.54,94.06,52.84.04.02.08,0,.13.02.32.11.64.19.98.19h0c.29,0,.58-.05.86-.13.09-.03.17-.08.26-.11.15-.06.3-.11.45-.19.03-.02.04-.05.07-.06.04-.02.08-.03.11-.06.25-.18.45-.4.64-.64.05-.06.08-.13.12-.19.17-.26.3-.53.38-.83.01-.05.04-.09.05-.14.06-.26.09-.54.08-.81-2.18-48.4-10.14-81.37-24.96-103.24.4-.19.8-.36,1.19-.58,13.85-7.64,11.79-29.3,9.32-41.53-.82-4.07-.42-8.14,1.14-11.79,4.06-9.43,9.85-27.17,4.64-42.45,18.91-7.98,29.98-25.25,32.89-51.44M318.52,294.46c.88-4.69,1.36-9.48,1.46-14.27,4.55-12.2,13.61-23.19,27.53-33.4-1.6,7.14-.92,13.72-.22,20.14.82,7.49,1.61,15.23-1.23,24.23-9.19-.67-18.39.44-27.54,3.3M343.71,242.08c-10.66,7.86-18.69,16.21-24.17,25.24-.54-6.18-1.48-12.13-2.61-17.59,6.8-4.51,15.61-7.05,26.78-7.65M214.28,250.28c11.85-26.21,38.05-38.43,52.61-43.38,16.61-5.65,30.68-6.17,34.06-4.36,5.5,2.93,4.53,13.02,3.85,17.22-.6,3.76-.28,7.68.93,11.36,4.13,12.53,16.32,55.44-.39,81.33-17.44,27.03-48.13,28.16-55.43,28.03-.78-1.2-1.75-2.19-2.75-2.92.18-1.29.1-2.63-.38-3.92-.87-2.38-2.73-4.2-5.13-5-1.02-.34-2.08-.47-3.12-.42.45-2.41-.15-4.91-1.66-6.9,6.79-21.62,17.71-39.52,32.52-53.19,1.23-1.13,1.3-3.05.17-4.28-1.13-1.23-3.04-1.3-4.28-.18-15.24,14.06-26.52,32.34-33.67,54.28-1.23-.26-2.53-.27-3.8.03-1.34.31-2.56.91-3.6,1.75-.28-.7-.63-1.36-1.06-1.97,7.81-42.07,30.3-75.56,66.94-99.52,1.4-.92,1.79-2.79.88-4.19-.91-1.4-2.79-1.79-4.19-.88-37.28,24.38-60.45,58.28-69.03,100.76-1.72-.49-3.54-.54-5.32-.06-.58.16-1.12.38-1.66.64-3.68-7.57-11.77-30.47,3.5-64.23M301.55,326.65c1.79-1.79,3.54-3.68,5.2-5.8,11.63,1.5,25.33-.3,38.81-4.99-9.9,8.52-19.54,13.15-29.63,14.38-5.31-1.92-10.46-2.99-14.38-3.59M241.71,349.28c-.3-.71-.66-1.39-1.14-2.01l-1.25-2.1,2.64-1c.81-.31,1.53-.77,2.17-1.29.79.74,1.49,1.86,1.17,3.47-.35,1.76-2.09,2.55-3.58,2.93M230.22,353.59l-.28-5.58c-.08-1.67-1.55-2.91-3.17-2.87-1.67.08-2.96,1.5-2.87,3.17l.3,5.9c.05,1.1-.38,2.15-1.2,2.89-.82.74-1.91,1.07-3,.89-.82-.13-1.54-.52-2.09-1.11-.02-.02-.03-.05-.05-.08,0,0-.02-.01-.03-.02-.17-.19-.32-.41-.45-.64-.55-1-.6-2.17-.14-3.21l3.99-9.1s0-.01,0-.02v-.02c.16-.33.23-.68.25-1.03,0-.11-.02-.21-.02-.31-.01-.25-.04-.5-.11-.74-.04-.12-.09-.23-.14-.35-.1-.22-.23-.43-.38-.63-.05-.06-.07-.14-.12-.2-.04-.04-.09-.05-.13-.09-.05-.05-.08-.11-.13-.16-.16-.13-.34-.21-.52-.31-.09-.05-.17-.12-.26-.16-.33-.14-.67-.22-1.02-.24-.1,0-.2.02-.3.03-.25.01-.51.04-.75.12-.13.04-.25.1-.37.16-.13.06-.27.09-.39.17l-7.59,4.93c-1.25.81-2.89.49-3.73-.74-.42-.61-.58-1.35-.43-2.08.14-.73.57-1.35,1.19-1.76l6.62-4.3c1.17-.76,1.67-2.22,1.21-3.54l-2.72-7.78c-.36-1.04-.28-2.14.23-3.11.51-.97,1.38-1.67,2.44-1.96,1.01-.28,2.07-.14,2.98.39.91.52,1.56,1.37,1.83,2.38l1.12,4.2-1.46,3.06c-.72,1.51-.08,3.31,1.43,4.03,1.51.72,3.32.08,4.03-1.43l3.32-6.95c.37-.78,1.07-1.33,1.9-1.53.84-.2,1.71,0,2.38.54,1.2.95,1.41,2.65.49,3.88l-4.51,6c-.88,1.18-.79,2.81.21,3.88,1,1.07,2.63,1.28,3.86.47l6.22-4.04c.77-.51,1.52-.37,1.9-.24.38.13,1.05.47,1.36,1.33.41,1.12-.17,2.38-1.28,2.81l-6.01,2.28c-.84.31-1.49.99-1.78,1.83-.29.84-.2,1.78.26,2.55l3.2,5.36c.07.12.15.24.24.35.6.75.83,1.71.62,2.65-.21.94-.83,1.72-1.69,2.14-.84.41-1.82.42-2.68.03-.85-.39-1.48-1.14-1.72-2.05l-.02-.05ZM206.13,328.21l1.44,4.11-2.76,1.79c-1.11-1.08-2.39-2.72-1.91-4.27.41-1.3,1.98-1.6,3.23-1.63M69.77,226.94c30.83,11.09,55.51,28.34,73.28,51.4.6.77,1.49,1.18,2.4,1.18.64,0,1.3-.2,1.85-.63,1.32-1.02,1.57-2.92.55-4.24-17.76-23.03-42.03-40.52-72.21-52.05,3.98-.96,9.66-.87,16.39.38,3.89.72,7.84.67,11.75-.16,11.01-2.33,39.2-6.14,63.19,8.63,28.59,17.59,32.38,44.95,32.73,48.07-.88,7.91-.56,14.8.35,20.55-14-17.66-31.43-33.68-52.85-48.57-1.37-.95-3.26-.61-4.21.76-.95,1.37-.62,3.26.76,4.22,26.92,18.71,47.34,39.2,62.44,62.54-.51,1.02-.82,2.11-.96,3.22-1.69.15-3.47.64-5,1.68-9.12-12.88-20.06-23.05-32.62-30.2-1.45-.83-3.3-.31-4.13,1.13-.83,1.45-.32,3.3,1.13,4.13,12.5,7.11,23.34,17.44,32.24,30.68-.37,3.39,1.39,6.37,3.42,8.48-.53.87-.93,1.82-1.13,2.85-.23,1.18-.22,2.37.02,3.51-6.32,2.9-24.98,10.09-51.21,8.13-32.36-2.41-59.08-28.75-65.18-46.03-1.67-4.72-2.81-9.91-3.58-15.01,0,0,0-.02,0-.03-1.32-8.68-1.57-17.08-1.56-22.43,0-3.66-.62-7.25-1.87-10.69-5.31-14.61-7.5-26.42-5.95-31.49M76.75,307.75c-14.05-11.1-32.45-21.19-56.13-30.83,24.04,1.56,40.71,6.86,52.72,16.56.77,4.82,1.87,9.71,3.41,14.27M23.9,307.88c-3.09-10.1-6.09-19.79-10.83-27.45,35.08,13.72,58.76,28.18,73.93,45.11.03.03.07.04.1.07,1.15,1.42,2.37,2.83,3.66,4.23-15.21,4.51-29.3,12.6-42.68,24.51-13.71-12.39-19.27-30.44-24.18-46.47M43.31,367.37c16.25-17.02,33.43-27.68,52.37-32.59,6.85,6.4,15.17,12.24,24.56,16.59-2.73,1.49-6.1,3.6-9.75,6.49-14.91,6.96-32.36,8.63-53.34,5.1-1.44-.22-2.87.59-3.36,1.98-.49,1.39.09,2.92,1.37,3.64,10.18,5.74,22.32,11.39,36.48,11.52-1.26,2.24-2.45,4.62-3.57,7.16-15.78-1.13-30.48-7.61-44.76-19.89M95.46,373.94c-7.71.54-14.88-.85-21.47-3.17,9.32.29,17.93-.61,25.95-2.7-1.53,1.8-3.02,3.77-4.48,5.87M145.41,502.09c3.36-1.98,6.89-3.34,10.47-4.04,5.84-1.13,15.85-3.81,26.58-9.75-9.12,26.43-23.88,52.77-44.03,78.49-1.66-21.02-.2-42.24,4.4-63.22.9-.5,1.76-1,2.57-1.47M145.62,567.37c21.06-27.52,36.14-55.76,44.86-84.11,1.17-.83,2.34-1.7,3.5-2.62,3.3,10.54,9.66,18.76,19.02,24.61-7.51,25.6-29.08,45.55-67.38,62.12M241.47,508.68c-9.13-1.36-16.8-3.75-23.05-7.19-.08-.07-.2-.09-.29-.15-9.98-5.58-16.27-13.9-19.08-25.05,4.76-4.41,9.31-9.66,13.33-15.95,3.44,13.43,10.6,25.53,21.46,36.05.58.56,1.34.85,2.11.85.57,0,1.14-.16,1.65-.49,1.18-.77,1.68-2.25,1.2-3.58-4.49-12.3-6.69-24.54-6.62-36.47,2.16.44,4.55.71,7.24.71,1.87,0,3.82-.26,5.79-.63,5.45,14.76,4.23,31.78-3.73,51.89M226.19,454.8c-.22,8.84.69,17.83,2.84,26.89-6.44-8.86-10.48-18.66-12.12-29.26.54-1.06,1.04-2.12,1.53-3.18,1.73,1.91,4.24,3.97,7.74,5.55M251.12,455.31c1.66-.54,3.31-1.13,4.94-1.81,30.41,22.79,57.31,52.88,82,91.79-39.99-16.48-67.48-32.61-85.89-50.37,3.45-14.6,3.11-27.87-1.05-39.62M341.83,539.99c-24.03-37.44-50.17-66.79-79.58-89.37,3.17-1.61,6.18-3.33,8.81-4.96,5.81-3.61,13.12-4.02,19.09-1.09,7.67,3.78,17.96,7.31,27.42,5.59,13.39,18.9,21.37,48.37,24.26,89.83M329.7,391.94c-2.05,4.78-2.58,10.09-1.52,15.37,1.72,8.54,4.55,29.05-6.31,35.03-1.18.65-2.41,1.13-3.68,1.49,0,0-.02,0-.03,0-8.22,2.29-18.06-1.12-25.32-4.69-7.82-3.85-17.38-3.33-24.96,1.37-7.97,4.95-19.38,10.86-28.45,10.86-12.15,0-16.89-6.16-18.27-8.55,13.47-35.34,3.43-68.36,2.95-69.91-.5-1.59-2.19-2.47-3.79-1.98-1.59.5-2.48,2.2-1.98,3.79.12.4,12.26,40.46-8.31,77.83-16.04,29.13-44.01,37.37-55.29,39.55-4.27.83-8.44,2.43-12.39,4.77-9.06,5.34-31.81,16.99-47.48,9.83-12.51-5.7-10.97-20.77-7.47-32.41,1.33-4.43,1.85-8.98,1.65-13.42,7.95-24.54,20.7-45.36,37.92-61.88,1.2-1.16,1.25-3.07.09-4.28-1.16-1.2-3.07-1.24-4.28-.09-15.37,14.74-27.29,32.78-35.59,53.67-1.88-12.3-2.83-31.2,3.48-50.9,9.64-30.07,32.4-40.98,37.11-42.95,6.24,2.19,12.84,3.69,19.73,4.2,3.29.25,6.45.35,9.5.35,23.68,0,39.9-6.69,45.43-9.36.82.64,1.74,1.1,2.71,1.41-39.02,37.65-67.28,73.02-86.09,107.8-.8,1.47-.25,3.31,1.22,4.1.46.25.95.36,1.44.36,1.07,0,2.12-.57,2.66-1.59,18.77-34.7,47.16-70.08,86.58-107.87-.1,1.69.22,3.39,1.02,4.95-12.37,13.89-22.24,32.27-30.07,56.19-.52,1.59.35,3.3,1.93,3.82.31.1.63.15.94.15,1.27,0,2.46-.81,2.88-2.08,7.53-22.99,16.93-40.6,28.65-53.83.87.43,1.78.77,2.77.93.51.08,1.02.12,1.52.12,2.37,0,4.67-.87,6.46-2.48.41-.36.74-.78,1.07-1.2.42.29.85.58,1.33.8,1.22.56,2.53.84,3.84.84.63,0,1.25-.08,1.86-.21,15.5,14.78,26.6,31.93,32.94,51.03.42,1.27,1.6,2.07,2.87,2.07.31,0,.64-.05.95-.15,1.59-.53,2.45-2.24,1.92-3.83-5.18-15.6-13.36-29.95-24.38-42.85,22.66,12.64,43.43,33.78,63.11,64.23.58.9,1.55,1.38,2.55,1.38.56,0,1.13-.16,1.64-.48,1.4-.91,1.81-2.78.9-4.19-23.39-36.17-48.42-59.66-76.4-71.72.34-.6.6-1.23.8-1.91,3.69-.65,8.16-2.76,9.19-7.87.07-.35.05-.65.09-.98h.04c7.88,0,27.26-1.5,44.14-14.53,2.85.24,10.84,1.13,18.94,4.14.02,0,.04.01.06.02,7.87,2.94,15.82,7.87,19.17,16.16,5.51,13.63-.11,30.65-3.95,39.58M337.42,346.36c-3.01-5.12-7.43-8.97-12.31-11.85,12.22-3.63,23.91-11.98,36.14-25.71.97-1.09,1.03-2.72.13-3.87-.9-1.15-2.49-1.5-3.78-.82-15.56,8.09-32.67,12.06-46.85,11.07,2.68-4.27,4.64-8.89,6.07-13.71,16.49-6.05,33.18-5.9,49.67.57-3.03,22.9-12.57,37.43-29.06,44.32"/>
      </g>
    </g>
  </g>
  <text class="cls-2" transform="translate(454.1 483.55)"><tspan x="0" y="0">Yasmin Academy</tspan></text>
  <text/>
  <rect class="cls-3" x="453" y="552.57" width="2216" height="20"/>
</svg>