<?xml version="1.0" encoding="UTF-8"?><svg id="quranic-verse-container" fill="#FFFFFF" xmlns="http://www.w3.org/2000/svg" viewBox="0 0 2560 1097"><defs><style>.cls-1{fill:#fff;}</style></defs><path class="cls-1" d="M2560,0v1097H0V0h2560ZM1674.71,390.73c1.18-1.48,2.33-7.94,2.1-9.96-.9-8-11.64-13.79-12.61-18.5-.69-3.33,3.54-8.61,1.3-12.26l-11.52,31.53c-2.56,12.58,14.01,17.64,20.73,9.19ZM877.99,352.01c-2.85-.52-1.64.7-2.25,2.2-4.71,11.55-23.81,44.55,3.67,40.71,10.6-1.48,15.62-10.8,10.41-20.23-2.65-4.79-12.25-12.22-13.26-15.66-.57-1.92,2.02-4.71,1.44-7.01ZM1902.01,386c.04,5.44-4.93,14.79-9.87,7.36-7.75-11.67,9.82-26.8,9.85-39.36-3.28,2.17-3.3,7.5-4.79,10.7-4.64,9.92-13.91,21.81-9.66,33.28,6.05,16.36,14.56-2.53,16.31-10.65l-1.84-1.33ZM1037.26,386.73c-5.66-5.08,2.32-17.14,4.02-22.94.47-1.59,2.41-5.94.22-6.78-2.12,8.69-11.22,22.13-9.88,30.8.88,5.69,3.55,9.86,9.7,8,3.04-.92,6.06-10.35,6.6-13.39.16-.9.6-3.3-.92-1.92-.78,4.55-5.02,10.48-9.74,6.24ZM1730.01,397c3.3-3.32,6.22-.72,10.5-.93,5.14-.26,15.18-2.71,19.43-5.63,14.14-9.71,6.68-29.81-11.41-16.41-3.09,2.29-12.02,12.21-14.77,11.84-9.22-1.26-14.69-20.31-17.24-27.85-6.57,6.58,5.92,24.24,3.02,29-3.58,5.87-12-3.87-16.24-2.28-2.49.93-10.72,11.51-9.28,13.26,2.98.29,3.95-4.83,6.49-5.11,4.72-.52,6.61,3.16,10.46,3.68,5.59.77,10.1-5.63,11.06-10.57,2.51,4.17,8.98,6.26,8,11ZM1872.99,361c-22.92,9.89-45.68,20.31-68.02,31.47-15.77,7.87-35.91,17.4-50.64,26.36-6.2,3.77-10.78,5.65-9.32,14.17l17.32-10.17c35.53-17.96,70.55-36.86,107.03-52.97,3.04-1.75,3.71-5.6,3.64-8.85ZM636.01,424l34.32-17.17c16.83-6.44,33.04-14.5,49.69-21.31,9.7-3.96,26.2-7.99,34.29-12.71,2.54-1.48,3.03-4.47,2.6-7.19l-1.95-1.19c-1.95.99-3.91,2.34-5.98,3.05-26.55,9.02-54.78,20.13-80.35,31.65-6.36,2.86-25.2,11.47-29.56,15.44-3.14,2.86-3.4,5.25-3.06,9.43ZM1150.01,405l5.98-8.51c10.77-.82,29.03-4.37,30.81-17.26,1.06-7.74-7.73-9.76-13.76-7.69-.97.33-6.13,4.01-7.08,4.92-2.03,1.94-6.68,10.68-8.3,10.44-9.65-4.36-9.69-15.47-15.65-22.89-.73,2.55-1.23,4.75-1.04,7.47.34,4.86,9.59,19.31-.4,18.49-7.26-.59-8.01-9.28-16.98,1.11-.96,1.11-8.21,11.26-7.58,11.91,4.36-.53,7.6-8.31,11.63-8.75,5.7-.61,14.7,11.34,19.86-5.24,8.74,6.23,3.51,7.78,2.52,15.99ZM813,414.5c.84,5.89-.61,13.41,0,19.5h.99c-.38-1.25,1.01-2.9,1.01-3.5v-23c0-10.55-16.79-30.37-23.71-38.22-.6-.68.06-1.92-2.28-1.27.24,2.83-.68,6.34.51,8.98s10.58,11.66,13.29,15.71c3.25,4.84,9.41,16.3,10.19,21.81ZM1621,368.01c-.73-.71-13.3,5.18-15.35,6.14-18.62,8.69-42.55,20.48-59.95,31.05-1.75,1.06-12.01,7.46-12.42,8.07-1.38,2.08-.68,6.35-.26,8.73,26.86-17.61,56.13-31.37,84.97-45.52l3.02-8.47ZM2006.99,370c-20.69,9.18-41.85,17.53-62.35,27.14-26.86,12.58-54.41,26.26-80.32,40.68-1.98,1.1-13.23,7.55-13.79,8.21-2.1,2.47-1.52,5.99-1.52,8.97l37.98-19.99c-1.68,11.16-9.78,25.77-4.19,36.69,1.56,3.05,4.81,6.35,8.53,5.16,3.63-1.25,7.64-15.47,7.7-19.35.04-2.54-.25-2.88-1.15-.15-1.41,4.26-3.24,13.44-9.89,10.15-9.36-4.64-.21-28.13,2.26-35.26,37.85-18.89,76-37.22,115.16-53.33,2.78-1.91,1.28-5.96,1.58-8.91ZM1259.77,379.77l1.74-8.76-32.19,14.81-49.67,27.08-1.64,9.09,52.12-28.37,29.65-13.85ZM987,388.5c-1.12,9.44.83,20.83,0,30.5-6.1-8.43-8.93-18.39-15.97-26.53-9.42-10.89-19.14-16.2-15.59,4.59,6.74,1.75,12.25,1.08,17.09,6.91,2.83,3.41,12.24,25.01,13.98,25,1.44-1.18,2.15-2.73,2.44-4.54,1.54-9.89-2.73-34.56,2.96-41.81,2.78-3.54,10.36,3.56,10.12,7.37,2.19,2.16,3.1-5.42,3.05-6.48-.27-5.86-8.53-14.48-13.12-8.8-1.5,1.85-4.65,11.31-4.95,13.79ZM2099.99,373l-65.35,29.14c-30.27,17.67-67.69,30.45-96.97,49.03-5.3,3.37-18.12,10.69-14.19,17.84,1.36,1.81,1.43.18,2.51-.52,5.74-3.78,10.97-8.6,16.88-12.12,7.35-4.37,15.2-6.7,22.5-10.5,43.43-22.57,86.92-44.77,132.02-63.98l2.59-8.9ZM421.01,459c12.78-9.86,26.78-18.71,40.97-26.52,18.45-10.16,39.79-21.19,58.81-30.19,6.65-3.15,42.24-16.66,43.99-20.01.5-.96,1.6-6.77,1.21-7.28-49.44,21.59-99.75,43.2-144.06,74.43l-.92,9.57ZM2124.98,381c-2.16-2.04-3,5.71-2.99,6.51.05,5.64,10.54,18.41-2.42,16.43-2.74-.42-5.09-3.24-7.6-2.55s-10.95,9.48-8.97,11.6c2.68-.06,3.71-2.71,6.59-3,3.13-.31,4.52,1.6,6.98,1.97,6.76,1.01,9.46-3.1,12.93-7.94,2.58,1.75,2.79,4.02,2.51,6.98,4.95-1.83,9.21.32,14.53.04,7.3-.4,15.59-4.11,19.88-10.12,6.38-8.94,4.51-17.2-7.8-15.85-4.09.45-10.28,5.7-13.63,8.42-2.13,1.74-5.57,7.12-8.29,6.41-4.69-1.24-10.68-14.19-11.72-18.89ZM907.98,388.01c-3.96-.48-3.61,6.71-2.48,9,.39.8,10.99,8.65,13.48,11.52,10.3,11.88,16.33,29.22,15.04,44.96l1.98,11.5c.31-1.51.9-2.91,1.01-4.48,1.65-22.47-3-47.09-19.47-63.54-2.94-2.94-8.24-5-9.55-8.96ZM1618,412c.62,5.07-2.55,9.31-5.54,13-14.17-8.5-6.18-18.58-2.75-29.78.5-1.65,1.79-5.02-.21-6.19-5.27,7.61-10.07,24.78-7.55,33.53,1.12,3.88,6.13,13.01,11.04,9.97,1.77-1.1,6.29-10.82,6.77-13.26.35-1.78,1.54-8.31-1.76-7.27ZM1094.99,394c-20.49,7.9-40.69,16.69-60.67,25.82-33.9,15.5-78.53,34.85-109.25,54.75-2.62,1.7-12.4,7.96-13.78,9.7-2.54,3.19-3.07,14.66-1.54,18.46,1.9,4.71,12.46,9.79,17.24,11.25,2.64-11.65-6.61-9.87-12.34-15.14-5.78-5.3.67-8.46,5.03-11.67,35.15-25.89,102.25-53.55,143.63-72.37,9.58-4.35,19.79-7.83,29.43-12.06l2.24-8.76ZM1246.01,432c3.42-.08,4.29,4.12,6.64,5.86,11.64,8.64,13.94-6.24,12.13-15.13-.96-4.74-5.83-8.47-7.52-12.48-1.25-2.98-.62-6.98-3.25-8.24-.94,5.49-1.7,10.43.78,15.71.72,1.54,11.11,13.35,5.75,14.14-12.59-2.14-12.69-15.53-17.05-24.86-2.44-.8-1.6,5.34-1.48,6.5.69,6.49,7.94,21.15-5.42,19.49-11.52-1.44-4.69-19.03-10.58-24.98-.24,2.53-1.77,4.92-1.81,7.48-.06,3.13,2.37,18.82,3.8,21.02,5.96,9.2,17.21,6.51,18.01-4.5ZM2064.01,431c3.61,3.82,2.33,7.64,8.1,10.4,11.47,5.49,11.71-9.69,9.36-17.37-1.69-5.54-6.3-9.95-6.48-16.02-2.85,1.77-2.29,8.4-1.75,11.26.49,2.62,7.69,13.87,6.76,14.72-12.21.33-13.85-12.62-16.89-21.65-.52-1.55.88-2.86-2.1-2.34-1.75,7.68,6.25,21.82-3.25,26.27-12.68,5.95-10.1-22.04-11.77-23.27-4.99,3.57-1.57,9.1-1.09,13.6.57,5.36-.69,11.65,3.41,16.09,8.11,8.79,15.79-3.53,15.71-11.7ZM596,431.5c-.71,7.49.52,15.91,0,23.5-3.81-4.54-5.32-10.93-8.59-15.91-6.96-10.62-21.69-23.54-16.46.46,16.64-.51,16.14,14.52,23.2,23.8.86,1.13,1.05,2.05,2.83,1.66,2.2-9.3.28-19.04,1.02-28.48.32-4.12,1.13-14.97,7.28-13.38l7.7,7.86c1.41-5.31,1.62-9.78-2.45-14.05-8.61-9.03-13.87,7.42-14.55,14.54ZM763.99,414c-2.33-.5-1.6.31-2.23,1.29-1.98,3.06-5.99,11.7-5.83,15.2.19,4.15,5.44,16.86,6.78,22.3,4.59,18.65,7.13,38.59,9.27,57.73,2.53,22.54,2.11,74.9,17.01,90.99,5.75,6.21,18.65,7.38,19.82,8.69.43.48.82,5.01,1.16,6.39.41,1.7-.98,2.91,2.02,2.42l.22-8.8c24.26-2.66,37.24-28.36,28.56-50.47-6.71-17.09-16.92-11.25-23.65,1.9-4.74,9.27-5.83,19.91-8.09,29.93-5.33-.04-10.62-3.15-14.01-7.08-12.86-14.91-11.11-56.12-13.03-75.97-3.1-32.12-7.54-63.91-18.01-94.5ZM787.01,463.99l35.97-20.52c6.27-3.34,40.88-19.2,42.48-22.52.78-1.62.49-3.83,1.41-5.5-.5-3.52-7.72,2.31-9.65,3.25-20.3,9.83-46.23,20.7-64.55,33.45-5.43,3.78-6.58,4.66-5.65,11.84ZM621.65,577.35c.57.62,3.22,4.03,3.27,4.3.53,2.78-14.14,8.93-16.93,9.83-29.19,9.39-36.01-5.62-39.84-31.12-3.6-24.02-4.18-49.5-7.27-73.73-3.06-23.92-7.75-47.88-11.88-71.63-2.61,2.36-4.38,7.81-5.27,11.22-4.34,16.62,3.94,46.34,6.15,64.41,3.87,31.64,7.58,64.56,6.63,96.38-13.69,11.98-36.82,6.44-45.02-9.01l-3.15,5.05c-27.33-2.56-53.31,14.89-74.26,30.54-10.39,7.76-31,28.11-43.57,29.42-21.62,2.26-16.59-21.15-11.53-34.52,1.12-2.95,10.3-22.35,11.52-23.48,1.61-1.49,4.61-.98,7.02-2.98,6.14-5.09,11.56-20.7,12.47-28.53.12-1.08.8-5.52-.98-5.48-3.23,13.91-15.68,29.09-25.57,10.05-13.59-26.19,8.9-61.38,12.28-87.83.2-1.55,1.32-6.71-.71-7.22-4.68,14.28-9.18,28.96-12.93,43.57-6.43,25.01-15.63,48.17.09,71.75,1.34,2.01,3.38,3.29,4.67,5.31-9.49,18.64-20.87,40.46-13.88,61.9,2.28,7.01,7.08,15.52,15.43,15.36,15.58-.31,39.7-25.37,52.13-34.87,18-13.75,42.82-29.71,66.34-24.89-.67,17.61,10.76,31.54,26.53,37.78,4.08-.91,4.85-23.72,3.02-27.97,17.25-2.6,18.75-14.72,25.08-27.94,2.92,11.57,9.1,24,21.48,27.51,14.86,4.22,27.7-5.46,41.01-10.51-7.99,19.39-16.85,34.26-10.5,56,8.38,28.66,37.97,5.71,52.82-4.19,18.36-12.24,34.29-26.07,55-35,5.4-2.33,11.21-3.69,16.67-5.82-11.7,38.18,9.64,69.38,50.55,67.04,20.64-1.18,78.81-21.33,89.49-39.51,5.53-9.42,8.46-20.6,5.01-31.07-.45-1.36-9.84-20.19-7.54-19.46l5.01,2.97c1.79-1.3,1.71-2.05,1.06-4.03s-18.27-26.95-19.55-25.94c-.42,4.1-4.57,11.72-4.04,15.45.23,1.59,3.74,5.4,4.8,8.28,1.81,4.88,2.37,10.53,4.21,15.79,2.2,6.28,10.37,20.68,10.11,26.01-.13,2.82-4.95,6.12-7.4,7.68-29.27,18.64-111.1,48.15-126.64.24-2.85-8.8-1.18-14.5-1.06-23.45,14.32-1.36,26.62,6.99,33.51,19,14.13-22.73-8.04-29.67-18.33-43.67s-15.99-54.73-18.88-73.12-4.09-36.59-7.31-54.69c4.05-.71,4.94,7.69,10.01,6.48l-.24-4.25-18.77-42.74c-1.62.47-2.45,3.96-3.01,5.48-5.85,15.95.7,12.85,2.76,25.27,1.59,9.61,1.13,20.92,2.26,30.74,3.89,33.63,8.97,70.83,17.5,103.5.63,2.39,4.22,9.53,3.08,11.07-37.5,6.17-64.02,35.59-95.92,52.11-7,3.63-19.66,10.81-26.21,3.88-13.55-14.33,4.74-42.02,11.56-56.04,13.75,12.7,19.03,22.62,39.99,17.51,24.43-5.96,38.09-25.74,27.19-50.2-1.06-2.39-7.85-11.45-7.18-12.31.98.85,7.21,3.7,5.98.52-2.5-6.46-16.16-16.73-19.17-24.31-.57-.33-2.63-.36-2.81-.21-.64.53-3.33,14.55-2.82,16.27.43,1.46,2.92,3.36,3.84,5.19,2.35,4.68,4.26,9.59,6.8,14.2,2.67,4.87,12.35,17.19,12.12,21.88s-16.58,11.19-20.71,12.18c-12.04,2.88-19.6,1.47-28.23-7.2-1.13-1.13-1.28-.92.02-2,2.97-2.46,16.67-8.37,20.96-10.06,1.58-.62,3.29-.26,4.9-.59l4.17-17.17c-17.58-12.17-44.83-14.29-65.42-9.58-15.05,3.45-19.06,6.68-20.62,22.87,5.26-2.48,8.01-3.7,14.06-2.55,4.46.84,11.57,5.63,14.58,8.91ZM1770.01,543c-.62.47-3.08,13.9-2.81,15.26.91,4.55,15.26,17.38,13.37,25.73-20.54,16.44-32.99-2.57-37.1-21.96-8.35-39.45-5.77-80.89-15.95-122.05-1.19-4.81-4.74-19.6-7-23-.94-1.42-1.07-.96-1.97.06-10.6,11.94-1.91,25.25,1.14,38.77,6.76,29.94,8.52,58.34,11.32,88.68.76,8.3,4.49,23.97,4.09,31.02-.17,2.97-5,7.24-6.9,10.18-12.46,19.16-27.09,47.83-11.62,69.24,9.66,13.37,15.93,11.32,28.35,3.49,28.33-17.87,61.61-58.25,98.6-57.49,13.3.27,26.3,12.22,33.99,22.05,4.16-9.96,7.48-17.57-.48-26.5-9.28-10.41-26.22-17-25.01-34.48,9.66,7.99,20.7,16.05,34,14.99-1.96,49.46,37.1,74.41,82.35,54.86,2.82-1.22,16.24-9.22,17.64-7.86-2.08,15.85,7.54,32.13,25.23,26.72,15.84-4.84,47.99-31.84,55.22-46.78,2.3-4.75,2.4-8.98,3.57-13.94l4.96,16.52c11.22,21.78,33.12,29.15,45.21,3.16,14.27-30.65-9.29-102.19-12.17-138.2-.17-2.15.04-4.34,0-6.48,3.55-.68,5.83,7.58,7.51,7.99,1.49.13,2.36-1,2.45-2.4.49-7.59-17.27-34.38-19.46-43.62l-2.51.71c-.85,4.82-4.62,9.7-3.98,14.73.39,3.06,3.94,6.19,4.75,10.32,5.42,27.45,7.84,58.29,12.55,86.45,2.89,17.3,9.27,38.17,9.73,55.37.28,10.39-15.77,17.01-25.08,12.99-17.12-7.39-16.43-32.39-20.24-47.76-3.49-14.09-13.15-41.13-20.87-53.13-.9-1.4-1.91-2.97-3.84-2.65-.6.56-2.07,14.48-1.95,16.35.75,11.24,12.42,36.95,15.66,50.43,1.29,5.37,4.34,15.23,2.82,20.26-2.06,6.86-24.55,25.05-31.23,29.77-9.46,6.69-29.2,20.5-39.33,8.7-1.41-1.64-4.77-7.65-3.55-9.53.95-1.47,25.32-14.53,29.89-18.16,5.38-4.27,8.84-8.13,11.43-14.57,4.44-11.05,7.36-21.08-3.26-29.26-12.75-9.83-32.76-2.4-46.45-11.55-10.03-6.7-2.98-16.36,2.98-22.92,5.65-6.21,21.79-19.53,30.03-14.09,2.49,1.65,6.1,9.51,8.41,6.53,1.16-1.5,3.89-13.37,3.36-15.24-.29-1.02-5.82-7.78-6.85-8.21-9.32-3.92-27.78,9.31-33.95,16-7.24,7.85-17.08,30.02-16.57,40.51,1.36,28.38,42.8,13.6,56.45,27.55,3.46,3.53.21,5.26-2.99,7.83-8.13,6.52-18.8,10.63-27.42,16.58-1.79-2.88.88-5.85,1.45-8.55.2-.93.74-3.73-.93-3.43-3.16,3.5-4.62,13.07-7.28,15.72-2.49,2.48-21.1,9.54-25.52,10.98-14.59,4.75-26.83,7.27-41.99,2.57-16.75-5.19-30.43-24.58-29.11-42.18,15.24-3.31,31.45-12.06,43.36-22.13,7.21-6.1,13.93-14.11,14.52-23.97-11.09,9.6-25.45,20.04-39.31,25.18-5.46,2.02-11.99,4.05-17.6,1.73l3.91-18.9-4.49,6-2.51,10c-11.95-4.5-24.16-22.87-24.05-35.56.04-4.24,9.3-7.62,13.1-8.9,14.71-4.95,33.7-7.12,47.47,1.18,6.81-2.7-6.26-10.58-9.37-12.37-31.14-17.91-65.9,5.95-57.68,41.68.44,1.9,4.23,10.06,3.52,10.97-7.11-4.31-12.48-11.95-16.18-19.31-7.11-14.18-9.18-42.57-11.67-59.33s-2.61-32.76-8.16-48.35c-2.35-.52-1.6.35-2.22,1.29-2.71,4.1-3.19,9.26-3.69,14.05,7.38,48.59,10.81,97.95,22.93,145.66-24.94,2.53-48.96,18.17-68.91,32.59-11.04,7.98-32.5,28.86-45.68,29.31-3.68.13-9.64-1.88-11.89-4.93-10.06-13.6,8.1-47.77,17.98-58.97,5.65,18.96,24.71,34.18,42.02,17.02,14.37-14.24,7.43-42.36-5.71-55.35-.88-.87-.86-2.18-2.81-1.68ZM882.94,418.04l-2.92-.03c-.24,4.04-3.19,7.86-3.79,11.73-.98,6.31,6.25,21.55,8.08,29.44,9.8,42.16,5.6,87.87,13.98,130.02,2.56,12.91,7.23,26.45,20.98,31.02,18.09,6.01,24.23-4.87,34.74-15.71.95-.98,1.31-1.9,2.98-1.51-2.91,6.48,4.3,16.42,10.73,17.76,14.22,2.95,23.37-9.13,29.77-19.75,9.7,22.54,27.5,16.59,32.51-5.02,3.34,3.1,4.42,7.28,7.97,10.52,10.01,9.16,26.95,12.13,30.78-4.26,2.97-12.72,3.58-23.25-2.59-34.93-5.56-10.53-14.05-19.93-19.16-30.84,3.24-.91,5.86,5.24,8.97,1.01l-18.47-25.53-2.51.7c-.58,3.81-2.73,8.17-2.91,11.98-.24,5.03,3.52,8.65,5.4,13.36s3.12,9.95,5.34,14.66c3.61,7.67,22.73,33.36,22.19,38.8-.15,1.52-.94,2.15-2.04,3.01-10.13,7.91-30.35-5.7-27.49-18.49-4.09,1.69-4.67,7.86-6.67,11.33-5.23,9.11-13.23,17.09-22.24,6.6-3.8-4.42-3.31-6.36-2.59-11.92-1.72-1.95-8.03,9.3-9.02,10.47-6,7.16-15.09,13.65-25.01,11.05-11.8-3.1-3.08-10.96-3.97-18.52-2.17-2.44-15.28,13.29-17.49,15-10.79,8.28-25.55,6.91-34.02-3.98-14.07-18.06-13.06-84.39-15.49-109.51-1.6-16.64-4.47-36.46-9.7-52.3-.67-2.02-5.61-15.7-6.34-16.18ZM1696.99,464c.2-1.73-.09-3.35-.45-5.04-1.02-4.77-15.29-36.46-18.08-39.92-.37-.46-1.02-1.36-1.45-1.03-.81,4.34-5.19,11.37-5.08,15.53.06,2.39,2.76,5.4,3.58,8.45,2.48,9.21,2.26,17.54,3.61,26.39,4.17,27.39,12.2,59.1,13.86,86.14.17,2.77.53,10.42-.48,12.5-7.19,6.43-14.98,8.99-24.51,6.98,5.55-10.9,8.72-19.82,5.75-32.24-4.73-19.78-15.86-19.42-26.59-4.09-6.96,9.94-12.65,26.76-7.16,38.33-55.97,12.74-50.46-44.01-55.13-80.36-2.37-18.5-5.84-45.24-11.38-62.62-.53-1.68-1.62-7.55-3.98-7-8.89,13.96-2.43,29.69-.64,44.62,2,16.66,4.1,33.34,6,50,3.02,26.47,3.27,53.37,9.12,79.37-21.97-.29-38.46,15.68-55.08,27.42-10.55,7.45-38.26,29.97-49.57,30.21-8.88.19-15.24-7.49-15.34-16.13-.1-9.35,8.12-29.56,14.96-36.04,2.02-1.92,5.3-2.99,7.05-4.95,3.97-4.42,9.39-23.79,9.97-30.03.12-1.3.84-6.21-.97-6.48-2.02,12.57-9.55,34.89-21.19,13.68-10.18-18.55-1.71-43.91,2.87-63.5,1.65-7.07,7.45-22.89,7.39-28.69-.02-1.84.15-3.29-1.58-4.47-1.08.01-3.55,8.32-4.01,9.97-6.24,22.16-8.84,46.29-15.47,68.53-1.39,16.14.91,30.76,11.87,43.13-10.23,17.02-19.43,33.74-13.17,54.13,4.09,13.33,12.44,21.13,26.48,14.92,29.92-13.22,67.6-64.77,103.79-54.2,9.9,2.89,15.7,9.71,23.99,14.49,2.4-11.99,5.85-14.83-3.98-23.51-3.27-2.89-8.46-5.39-11.5-8.5-5.76-5.87-8.45-13.98-9.5-21.99,12.36,15.63,23.15,20.8,42.98,15.49,3.97-1.06,15.81-7.02,17.5-7.08,7.73-.29,14.54,8.98,27.7,4.29,21.59-7.71,21.62-37.47,19.8-56.18-2.62-26.88-10.13-53.6-12.98-80.51,1.88.16,9.19,12.05,10.98,10ZM1795.01,445c2.53,1.23,2.12,4.37,3.96,6.53,3.32,3.88,12.91,7.4,14.81.76,3.64-12.7-8.6-22.07-7.8-34.29-3.06,1.7-2.32,9.33-1.91,12.41.81,6,5.28,10.86,6.92,16.58-15.71,1.33-11.87-18.37-18.99-26.99-4.23,7.98,7.84,26.37-3.97,29.58-10.83,2.95-8.87-17.79-10.04-23.59h-2.99c-2.35,5.41.54,8.73.94,12.56.68,6.44-1.47,12.36,4.54,17.46,8.01,6.81,15.2-2.93,14.53-11.02ZM1133.99,469c2.36-2.69-13.01-31.36-15.17-36.32-1.02-2.32-2.79-12.23-5.85-10.21-1.95,3.77-4.93,9.8-5,14.08-.09,4.85,5.47,21.6,6.74,28.24,5.8,30.4,12.11,66.2,15.17,96.83,2.94,29.39,1.93,39.41-20.4,59.35-15.28,13.64-32.2,19.85-48,31-1,.71-10.51,8.67-4.99,7.01,3.22-.97,7.46-3.8,10.99-5.01,8.02-2.74,16.35-4.75,24.52-6.97-1.22,13.22.02,28.62,9.96,38.54,7.75,7.72,15.02,3.59,22.95-1.13,25.96-15.42,42.62-40.49,74.08-49.92,21.88-6.56,35.21-.36,48.99,16.5,1.18-5.7,6.64-12,4.47-17.95-1.79-4.92-9.74-8.97-13.47-12.53-8.55-8.16-16.75-17.09-17.98-29.51,7.68,11.02,17.39,17.53,31.38,15.89,17.04-2,53.37-21.94,62.43-36.57,2.61-4.22,5.57-10.77,5.68-15.32-7.81,10.29-21.22,17.55-32.83,23.17-12.2,5.91-16.45,9.68-29.02,1.66-9.01-5.75-22.25-26.84-22.64-37.48-.16-4.39,9.95-6.93,13.76-8.08,12.7-3.83,25.26-5.51,38.22-1.79,3.61,1.04,6.65,3.46,9.69,4.31,6.73,1.88-5.02-8.83-6.22-9.79-18.48-14.86-43.96-14.42-57.92,6.04-9.04,13.26-6.84,27.27-.11,40.98,1.67,3.41,6.53,8.92,7.53,11.47.5,1.27-.17,1.84-1.47,1.47-11.14-3.24-17.98-21.48-20.23-31.78-3.21-14.7-2.73-28.98-4.3-43.7-3.17-29.84-6.41-59.91-11.04-89.48l-2.94-.03c0,5.16-4.69,11.8-4.85,16.47-.37,10.76,3.69,26.76,4.83,38.04,3.77,37.4,4.73,76.04,9.01,112.99,1.05,9.09,2.93,17.91,5.99,26.5-20.09,1.6-38.93,12.99-54.92,24.59-12.4,8.99-36.29,32.06-51.69,32.31-14.21.24-17.33-13.69-12.87-24.87,2.58-6.47,4.67-4.37,9.41-7.59,11.41-7.74,24.35-29.17,28.84-42.16,13.26-38.32-8.13-95.67-10.8-135.76l.52-2.51c.73,1.27,8.13,10.55,9.5,8.99ZM1155.99,422c-2.29-.48-1.6.25-2.24,1.27-1.43,2.28-5.08,11.75-4.75,14.15.27,1.99,3.47,5.71,4.32,8.75,2.49,8.86,1.61,19.21,2.69,28.31,3.93,33.4,11.15,67.82,13.99,101.01,1.01,11.83.18,23.55,1,35.01.35,4.79,2.45,2.35,3.51-.5,3.68-9.91,3.03-32.42,2.48-43.5-1.73-34.6-10.13-70.36-13.02-105,.01-1.13-.23-2.21,1.03-1.02,2.36,2.23,3.72,9.14,8,7.01-1.47-15.96-12.78-29.99-17.02-45.49ZM1591.01,472.99c10.63-4.7,19.83-11.91,29.97-17.52,11.03-6.09,23.66-12.41,35.02-17.98,3.5-1.71,7.43-.63,7.69-6.16.09-1.98-1.08-6.32-3.75-4.94-14.35,9.25-30.48,15.4-45.26,23.78-3.12,1.77-23.01,14-23.51,15.49-.7,2.05.09,5.09-.16,7.33ZM2139.98,429c-2.26-.54-1.62.36-2.28,1.25-1.69,2.28-4.86,11.51-4.67,14.21.15,2.13,3.23,5.86,4.25,8.76,4.76,13.54,4.04,32.5,5.84,47.16,4.89,39.6,12.63,79.11,12.87,119.15l1.99,1.48c7.71-27.88,3.04-58.88-.11-87.37-2.41-21.75-6.02-43.45-8.88-65.12l1.99-.5c-.68,2.38,7.59,10.94,8.03,7.49-2.11-16.62-13.6-30.81-19.02-46.49ZM1067.81,434.22l-2.81-.22c-3.47,10.29,4.67,11.59,9.85,17.66,8.12,9.53,13.41,23.28,12.14,35.84-.44,4.3-2.97,8.17-2.5,12.51,6.33-13.87,6.66-31-.32-44.67-4.09-8.03-10.57-14.37-16.37-21.1ZM1536.01,454c6.8-4.12.85-20.07-6.99-16.49s-5.25,32.82-6.52,40.5c-1.95-9.29-14.8-32.85-25.95-31.02-5.37.88-5.96,13.14-3.58,15.54.43.43,10.98,3.27,11.71,3.27,1.6.01,2.6-2.18,4.61-1.71s6.1,7.7,7.23,9.88c.96,1.86,6.25,13.73,6.33,14.71.13,1.46-2.24,2.93-2.94,4.73-1.07,2.78-.57,5.87-1.91,8.57,3.46.64,1.46-5.06,5.5-5.02,2.03.02,3.95,3.36,5.49,4.54-30.86,4.7-11.97,31.05-5.95,47.95,4.35,12.21,6.41,21.59,3.49,34.58-1.8,8.02-6.46,15.09-8.52,22.97,4.37-3.42,7.01-10.69,8.5-15.99,4.16-14.85,4.7-27.64.51-42.52-1.81-6.42-12.41-27.31-12.03-30.96.72-6.89,17.7-9.12,23-6.52,4.22-9.85-6.19-17.77-12.82-23.59,2.72-7.08-2.05-37.32,3.8-40.95,4.36-2.7,6.91,4.01,7.04,7.53ZM697.74,447.74l.77-8.73c-16.05,8.37-33.89,13.26-50.49,20.51-22.5,9.82-44.12,22.24-65.81,33.69l-.2,9.8c3.34-3.02,7.08-5.29,10.97-7.52,6.45-3.71,19.85-11.35,26.31-13.69,1.25-.45,2.29-1.08,3.71-.78-2.15,12.78-12.57,28.03-2.84,40.35,9.29,11.77,13.53-8.63,13.9-15.82.04-.8.29-3.66-1.04-2.02.07,5.51-3.6,17.87-10.46,10.44-8.76-9.5,2.47-24.94,3.7-35.7,23.1-11.74,47.6-20.48,71.49-30.51ZM1053.99,476l-2.49-7-32.16-24.85-2.34-.15c1.14,4.63-1.86,11.96-.26,15.72,1.22,2.87,4.4,3.74,6.11,5.92,5.13,6.53,9.56,16.15,14.72,23.28,16.73,23.16,38,42.98,55.95,65.05,13.23,16.27,22.77,31.47,24.98,53.01,1.63-1.13,1.48-2.74,1.57-4.45.28-5.16-.54-17.63-1.07-23.03-3.05-30.91-57.85-77.27-76.41-104.59-.64-.95-2.84-3.52-.11-2.9,1.89.43,10.35,5.22,11.52,3.98ZM2015.21,462.8l19.3,10.18c.83-.06,6.81-13.47,6.35-15.29-.78-3.13-17.03-8.95-20.3-11.68-1.84.38-6.84,14.24-5.35,16.79ZM506.99,447c-2.98-.52-1.58.78-2.1,2.34-3.61,10.84-20.12,42.54,3.35,39.39,11.31-1.52,17.06-7.96,11.57-19.05-3.93-7.94-15.66-12.87-12.82-22.68ZM1312.99,448c-11.41,3.72-22.46,9.03-33.35,14.14-8.33,3.91-49.54,23.73-52.12,29.88-1.18,2.81-.29,6.06-.52,8.97,2.61-.16,3.24-2.94,5.67-4.82,22.19-17.18,53.04-26.94,77.73-40.27l2.59-7.9ZM871,455.01c-1.67-.28-2.95.47-4.39,1.1-18.96,8.35-47.67,22.16-64.92,33.08-6.07,3.84-8.69,4.53-6.68,12.81,22.83-14.96,48.35-25.24,72.38-38.11l3.61-8.88ZM467,480c4.16-16.69-12.64-24.98-15.89-4.39-.49,3.1-1.04,9.61-1.15,12.85-.1,3.02,1.85,15.54-.47,16.54-2.86-5.74-5.37-11.7-8.87-17.12-2.05-3.18-11.16-16.39-15.5-13.73-9.76,22.25,5.1,13.07,12.34,18.9,1.89,1.52,11.63,18.54,12.07,20.88-.58,6.52-5.92,14.42-7.08,20.01-3.09,14.94,14.86,33.69,11.56,50.06,1.24,1.62,1.81-.02,2-1.48.68-5.4-.28-12.35-1.3-17.72-1.27-6.64-10.04-24.97-9.75-28.3.46-5.38,14.99-3.11,18.96-2.57,4.26-8.85-4.35-18.96-11.99-22.49,1.93-8.84-.73-17.85.1-26.91.46-5.01,3.18-16.52,9.92-10.94,2.63,2.17,2.01,6.59,5.06,6.43ZM1957.01,463.01c-1.37,12.06-22.53,44.66,4.23,40.73,10.36-1.52,14.63-8.84,12.53-19.01-1.32-6.37-10.67-11.6-14.23-16.76-1.26-1.83-.84-4.51-2.53-4.96ZM1299.99,466.01c-2.63-.76-2.94,3.22-3.49,5-2.64,8.51-7.65,25.55-3.37,33.37,7.54,13.76,16.84-1.47,16.91-10.84.02-2.06.58-2.93-2.03-2.53-.15,10.74-10.99,14.78-13.56,3.03-1.23-5.64,6.07-21.19,5.55-28.03ZM1757.01,509c19.13-13.15,40.88-21.94,60.94-33.55,3.24-2.01,1.84-6.14,2.04-9.45-13.46,8.15-28.26,13.87-42.01,21.48-4.28,2.37-16.1,8.32-18.93,11.07-3.49,3.38-3.04,6.13-2.04,10.45ZM680,467c-2.62-.21-1.66-.13-1.96,1.51-.51,2.78-.47,5.83-1.33,8.7-2.08,6.94-11.2,25.64,1.85,27.73,11.45,1.84,20.12-2.26,18.02-14.97-1.47-8.91-17.5-13.1-16.58-22.97ZM1631.74,507.73c2.22-2.2,6-16.62,8.75-16.63l18.02,12.95c2.21.01,7.61-10.77,8-12.99.83-4.7-15.39-13.05-19.02-16.04l-11.11,17.92-19.37-12.95-6.92,15.34c.32,1.07,16.76,12.74,17.96,13.16,1.3.46,2.73.16,3.68-.78ZM982.01,478c-1.4,10.25-8.21,20.37-5.58,31.07,2.34,9.49,20.42,7.09,23.81-1.32,5.65-14.03-11.57-20.45-18.23-29.74ZM2092.01,513.01c.16,4.65-2.13,15.37-8.58,11.06-10.62-7.08-.34-29.92.55-39.58.12-1.3.85-6.21-.97-6.48-.79,15.12-12.51,36.69-4.22,50.7s13.62-1.09,14.24-10.17c.08-1.15.73-5.54-1.03-5.53ZM1189.99,487.01c-6.43,1.53-2.9,9.38-2.96,13.44-.17,11.36-7.75,21.39-1.92,33.94,7.19,15.49,15.68-6.35,13.88-14.39-1.3-1.79-4.01,17.18-9.87,9.38-8.35-11.1,3.98-29.31.88-42.38ZM1810.72,540.72c-.54.54-3.53,1.92-4.23,1.92-16.26-10.02-1.43-31.31-1.99-45.63-1.81,1.57-2.36,3.83-3.01,5.99-3.47,11.59-9.58,35.3-1.02,45.02,9.8,11.13,14.18-11.37,15.52-18.01-2.37-.4-1.91.23-2.47,1.98-.78,2.46-.92,6.84-2.81,8.73ZM955.7,547.69c-6.39,6.02-11.1-4.59-11.72-10.16-.99-8.8,6.27-22.59,7.77-32.29.18-1.15,1.24-5.23-.73-5.23-1.8,15.76-17.94,41.64-5.03,55.51,8.27,8.9,13.43-8.92,15.23-14.82.34-1.11,1.24-3.77-.71-3.67-1.28.06-2.52,8.52-4.8,10.67ZM853.99,530c.67-4.02,6.67-11.97,5.28-15.71-1.67-4.5-14.06-9.51-17.78-13.18-1.73,0-7.93,13.46-7.41,15.23l19.9,13.66ZM510,520.5c-.9,7.6.66,16.72,0,24.5-4-5.21-19.11-33.98-26.36-31.94-3.44.97-3.5,14.28-1.7,15.5,3.34,1.04,10.09.63,12.78,2.73,4.9,3.82,8.96,16.55,13.05,21.44,2.46,2.95,3.77,3.45,4.28-1.18.86-7.8-.95-32.37,4.4-36.62l2.54-.48c2.86,2.52,5.36,5.66,6.02,9.55,8.14-1.9-1.16-19.53-6.46-19.05-4.45.41-8.1,11.76-8.55,15.55ZM1411.22,526.79c-2.33-1.67.11-11.24-2.75-11.79l-10.81,3.92-7.15-7.98-8.15,7.86-9.84-3.8-3.05,10.97-11.43,3.52c6.41,11.09,3.74,11.11-5.02,18.02l8.85,7.18-2.87,12.31,10.36.91,2.59,10.66,11.35-2.44,6.26,7.91c3.29.99,5.72-7.64,8.93-8.76l10.56,3.31,2.19-10.34,10.34-2.17-2.45-11.36c1.08-3.72,10.84-4.72,6.85-9.19-1.42-1.59-6.15-2.72-6.85-5.22l2.87-12.29-10.78-1.21ZM997.49,537.03c-1.14.08-7.86,13.66-6.37,16.3l20.28,11.59c2.95-3.31,7.17-11.75,5.11-15.93-1.54-3.12-15.87-8.68-19.02-11.96ZM1949.26,594.75c-10.16-13.22,2.68-24.72,2.73-38.75-1.72.28-1.74,1.99-2.26,3.23-1.78,4.26-4.4,13.54-5.67,18.33-2.05,7.73-3.98,18.81,2.91,24.96,7.19,6.42,12.32-11,13.04-16.03.11-.78.32-3.63-1-1.98-.64,4.72-2.62,9.64-7.51,11.11l-2.24-.87ZM1665.17,608.18l-7.01,13.18,18.23,14.6,8.4-14.33c-2.32-3.16-16.39-15.38-19.63-13.46ZM474.99,684.99c4.04-15.54-3.43-29.43-8.9-43.41.83-3.31,16.86-3.74,19.42-.69,6.67-4.75-.04-15.45-4.48-19.42-5.96-5.33-12.22,3.97-14.02,9.03,2.77,1.04,3-2.6,6.49-2.61,2.03,0,3.8.72,3.5,3.09-9.61-1.01-14.07,4.07-14.07,13.51,0,8.14,7.25,16.31,8.56,24.51l3.5,15.99ZM1031.98,637.99c7.36-11.97-4.71-15.77-12.83-6.34-8.46,9.83-3.15,15.45,5.84,21.33-4.26,1.78-9.08,3.78-8.99,9.01,1.96,1.77,13.07-5.58,15.64-6.85,6.55-3.23,14.05-2.53,14.35-12.14-8.67,3.55-24.12,3.49-26-7.99,6.54-2.55,6.9.67,11.98,2.98ZM1804,703v-16.5c0-4.19-9.17-18.34-10.52-23.47-.51-1.94-.97-4.45-.31-6.37,1.41-4.07,19.15-8.48,22.33-3.69,6.03-7.32-.76-16.53-7-20.97-8.79-6.26-12.37,8.99-14.76,15.23-1.74,4.55-3.46,4.51-3.78,11.21-.62,12.85,9.88,25.97,12.32,40.77.17,1.06.26,3.97,1.72,3.78ZM2099.99,636c-24.01,11.45-51.52,21.63-74.32,35.17-2.19,1.3-13.19,8.54-14.24,9.76-2.38,2.75-2.73,5.77-1.43,9.06l18.69-11.8,70.08-34.92,1.22-7.27ZM1617.99,638c-26.6,11-55.95,20.31-81.01,34.48-2.56,1.45-14.88,8.68-15.98,10.02-1.71,2.09-.72,5.56-2,7.98l1.99,1.03c28.14-20.72,62.2-31.14,93.96-45.06,2.52-1.73,3.11-5.57,3.04-8.45ZM991.01,639c-.03,2.17-1.98,4.5-1.93,6.52.05,2.2,3.81,5.42-.04,6.94-1.32.52-8.68-.95-9.61-2.43-1.55-1.23,3.84-7.83.07-8-3.4-.15-5.76,12.41-15.87,11.92-3.49-.17-7.49-2.65-11.14-2.96-14.88-1.25-39.84,20.85-54.28,27.73-6.49,3.09-13.56,5.49-20.43,7.57-4.23,1.28-9.47.93-12.76,4.22,8.02,4.66,22.08.45,30.25-2.73,18.12-7.05,37.49-29.42,56.23-27.75,5.81.52,10.74,4.02,16.88.86,1.85-.95,4.26-5.11,6-4.81,11.51,12.56,24.67.09,20.18-14.11-.49-1.54-1.6-3.33-3.53-2.95ZM717.99,668l-8.72,8.87c-3.42.53-5.25-4.11-5.82-6.81-2.46-11.6,7.56-18.67,7.06-30.05-3.55,2.72-3.17,7.48-4.73,11.27-3.5,8.49-8.63,14.88-6.55,25,.28,1.37,3.19,7.05,4.2,7.8,5.81,4.35,14.39-10.95,14.57-16.07ZM576.02,641c-2.08,3.84-7.26,14.25-11.09,15.54-3.59,1.21-15.72-12.1-18.33-11.47l-8.54,14.29,17.46,12.65c4.82.02,8-14.74,13-15.75,1.03.09,12.53,10.37,14.94,11.79.93.55,1.54,1.36,2.86.86,1.68-.44,9.05-11.31,8.57-13.2l-18.87-14.71ZM1695.75,649.76c.99-2.74,3.75-6.65.76-8.73-21.87,10.71-46.21,17.38-68.18,27.8-3.91,1.86-16.83,8.32-18.89,11.11-2.22,3.01-1.4,5.51-1.43,9.06,26.77-17.73,58.29-26.87,87.74-39.24ZM1853.99,657c5.15-19.16-15.59-5.96-16.06,4.52-.43,9.62,11.75,9.3,11.91,10.95-6.73,17.43-8.55,29.42,15.2,25.08,8.43-1.54,28.71-13.91,34.99-20.01,1.76-1.71,9.6-12.22,9.98-14.03.12-.56.24-1.65-.51-1.51-11.01,11.36-34.62,28.92-50.97,28.01-2.95-.16-8.96-1.37-9.55-4.53-2.27-12.17,17.49-17.48,17.01-29.48-9.08,2.05-7.29,11.77-19,6.5-6.28-2.83-6.78-6.58.77-7.36,2.47-.26,3.65,2.4,6.22,1.86ZM1947.7,685.73c2.04-1.76,6.6-13.45,7.82-13.74l18.88,11.93c1.87-3.01,8.56-11.76,7.14-14.89-.49-1.09-17.1-12.82-18.21-12.93-3.31-.32-7.42,14.82-10.79,14.91-3.1.08-14.68-10.89-18.9-11.9-2.09.35-9.44,12.57-8.2,14.88,4.51,2.43,17.55,15.81,22.26,11.74ZM1044.99,662c-1.35-1.49-32.97,14.91-36.29,17.19-4.65,3.2-6.13,4.39-5.69,10.8,6.49-3.06,12.59-7.25,18.97-10.52,4.82-2.47,17.2-6.91,20.31-9.43,1.83-1.48,2.92-5.71,2.71-8.05Z"/><path d="M1770.01,543c1.95-.51,1.93.81,2.81,1.68,13.13,12.99,20.08,41.1,5.71,55.35-17.31,17.16-36.37,1.94-42.02-17.02-9.88,11.2-28.04,45.38-17.98,58.97,2.25,3.04,8.21,5.05,11.89,4.93,13.18-.45,34.63-21.33,45.68-29.31,19.95-14.42,43.98-30.06,68.91-32.59-12.12-47.7-15.55-97.06-22.93-145.66.5-4.79.98-9.95,3.69-14.05.62-.94-.12-1.81,2.22-1.29,5.55,15.6,5.76,32.21,8.16,48.35s4.56,45.15,11.67,59.33c3.7,7.37,9.06,15,16.18,19.31.71-.91-3.09-9.07-3.52-10.97-8.22-35.73,26.54-59.58,57.68-41.68,3.11,1.79,16.17,9.67,9.37,12.37-13.78-8.31-32.76-6.14-47.47-1.18-3.79,1.28-13.06,4.65-13.1,8.9-.11,12.69,12.1,31.06,24.05,35.56l2.51-10,4.49-6-3.91,18.9c5.6,2.32,12.14.29,17.6-1.73,13.86-5.14,28.23-15.57,39.31-25.18-.59,9.86-7.31,17.87-14.52,23.97-11.91,10.08-28.12,18.82-43.36,22.13-1.32,17.6,12.36,36.99,29.11,42.18,15.16,4.7,27.41,2.18,41.99-2.57,4.42-1.44,23.03-8.5,25.52-10.98,2.66-2.65,4.12-12.23,7.28-15.72,1.68-.29,1.13,2.5.93,3.43-.58,2.71-3.25,5.68-1.45,8.55,8.62-5.95,19.3-10.05,27.42-16.58,3.2-2.57,6.45-4.3,2.99-7.83-13.66-13.95-55.09.83-56.45-27.55-.5-10.49,9.34-32.66,16.57-40.51,6.17-6.7,24.63-19.93,33.95-16,1.03.43,6.56,7.19,6.85,8.21.54,1.87-2.2,13.74-3.36,15.24-2.31,2.99-5.92-4.88-8.41-6.53-8.24-5.45-24.38,7.88-30.03,14.09-5.96,6.56-13.02,16.22-2.98,22.92,13.69,9.15,33.7,1.72,46.45,11.55,10.62,8.18,7.7,18.21,3.26,29.26-2.59,6.44-6.05,10.3-11.43,14.57-4.56,3.62-28.94,16.69-29.89,18.16-1.22,1.88,2.14,7.89,3.55,9.53,10.13,11.8,29.87-2,39.33-8.7,6.68-4.72,29.16-22.91,31.23-29.77,1.51-5.03-1.53-14.89-2.82-20.26-3.24-13.48-14.91-39.19-15.66-50.43-.12-1.88,1.34-15.79,1.95-16.35,1.94-.32,2.94,1.25,3.84,2.65,7.72,12,17.37,39.04,20.87,53.13,3.81,15.37,3.12,40.37,20.24,47.76,9.32,4.02,25.36-2.61,25.08-12.99-.46-17.2-6.83-38.07-9.73-55.37-4.71-28.16-7.13-59-12.55-86.45-.81-4.13-4.36-7.26-4.75-10.32-.65-5.03,3.13-9.9,3.98-14.73l2.51-.71c2.18,9.24,19.95,36.03,19.46,43.62-.09,1.4-.96,2.53-2.45,2.4-1.67-.41-3.96-8.68-7.51-7.99.05,2.15-.16,4.33,0,6.48,2.88,36.01,26.44,107.54,12.17,138.2-12.1,25.99-33.99,18.62-45.21-3.16l-4.96-16.52c-1.17,4.95-1.27,9.19-3.57,13.94-7.23,14.94-39.38,41.94-55.22,46.78-17.69,5.41-27.31-10.87-25.23-26.72-1.4-1.36-14.82,6.64-17.64,7.86-45.25,19.55-84.32-5.4-82.35-54.86-13.3,1.05-24.33-7.01-34-14.99-1.2,17.48,15.73,24.07,25.01,34.48,7.96,8.93,4.64,16.54.48,26.5-7.69-9.83-20.69-21.78-33.99-22.05-36.99-.76-70.27,39.62-98.6,57.49-12.42,7.83-18.69,9.88-28.35-3.49-15.47-21.41-.84-50.08,11.62-69.24,1.91-2.94,6.74-7.21,6.9-10.18.4-7.04-3.32-22.71-4.09-31.02-2.79-30.34-4.56-58.74-11.32-88.68-3.05-13.52-11.75-26.83-1.14-38.77.91-1.02,1.03-1.48,1.97-.06,2.26,3.4,5.81,18.2,7,23,10.18,41.16,7.6,82.6,15.95,122.05,4.11,19.39,16.56,38.4,37.1,21.96,1.89-8.34-12.45-21.18-13.37-25.73-.27-1.37,2.19-14.8,2.81-15.26Z"/><path d="M621.65,577.35c-3.02-3.28-10.13-8.07-14.58-8.91-6.05-1.14-8.79.07-14.06,2.55,1.56-16.19,5.57-19.42,20.62-22.87,20.59-4.72,47.84-2.59,65.42,9.58l-4.17,17.17c-1.61.33-3.32-.03-4.9.59-4.28,1.69-17.98,7.6-20.96,10.06-1.31,1.09-1.15.87-.02,2,8.63,8.67,16.19,10.09,28.23,7.2,4.14-.99,20.49-7.65,20.71-12.18s-9.44-17.01-12.12-21.88c-2.53-4.61-4.44-9.52-6.8-14.2-.92-1.83-3.4-3.73-3.84-5.19-.51-1.72,2.18-15.75,2.82-16.27.18-.15,2.24-.12,2.81.21,3.01,7.58,16.67,17.85,19.17,24.31,1.23,3.18-5,.33-5.98-.52-.67.86,6.12,9.92,7.18,12.31,10.91,24.46-2.75,44.24-27.19,50.2-20.96,5.12-26.25-4.81-39.99-17.51-6.82,14.03-25.11,41.71-11.56,56.04,6.55,6.93,19.21-.25,26.21-3.88,31.9-16.51,58.41-45.94,95.92-52.11,1.14-1.54-2.45-8.67-3.08-11.07-8.53-32.67-13.61-69.87-17.5-103.5-1.13-9.82-.67-21.13-2.26-30.74-2.06-12.43-8.62-9.32-2.76-25.27.55-1.51,1.39-5,3.01-5.48l18.77,42.74.24,4.25c-5.07,1.21-5.96-7.19-10.01-6.48,3.22,18.11,4.45,36.54,7.31,54.69s8.55,59.07,18.88,73.12,32.46,20.94,18.33,43.67c-6.89-12.01-19.19-20.36-33.51-19-.11,8.95-1.79,14.65,1.06,23.45,15.54,47.9,97.38,18.39,126.64-.24,2.45-1.56,7.26-4.86,7.4-7.68.26-5.33-7.92-19.73-10.11-26.01-1.84-5.26-2.4-10.91-4.21-15.79-1.07-2.88-4.58-6.69-4.8-8.28-.53-3.73,3.62-11.34,4.04-15.45,1.28-1.01,18.92,24.04,19.55,25.94s.74,2.73-1.06,4.03l-5.01-2.97c-2.3-.74,7.1,18.09,7.54,19.46,3.45,10.46.52,21.65-5.01,31.07-10.68,18.18-68.85,38.33-89.49,39.51-40.9,2.35-62.25-28.85-50.55-67.04-5.46,2.13-11.27,3.49-16.67,5.82-20.72,8.92-36.65,22.75-55,35-14.84,9.9-44.44,32.85-52.82,4.19-6.35-21.74,2.5-36.61,10.5-56-13.32,5.05-26.15,14.74-41.01,10.51-12.38-3.52-18.55-15.94-21.48-27.51-6.34,13.22-7.83,25.35-25.08,27.94,1.83,4.25,1.06,27.06-3.02,27.97-15.77-6.25-27.2-20.18-26.53-37.78-23.51-4.82-48.33,11.14-66.34,24.89-12.43,9.5-36.55,34.56-52.13,34.87-8.36.17-13.15-8.35-15.43-15.36-6.99-21.44,4.39-43.26,13.88-61.9-1.29-2.03-3.33-3.3-4.67-5.31-15.73-23.58-6.52-46.74-.09-71.75,3.76-14.61,8.26-29.29,12.93-43.57,2.03.51.91,5.67.71,7.22-3.38,26.45-25.87,61.64-12.28,87.83,9.88,19.05,22.33,3.87,25.57-10.05,1.77-.03,1.1,4.4.98,5.48-.91,7.84-6.33,23.44-12.47,28.53-2.41,2-5.41,1.49-7.02,2.98-1.22,1.12-10.41,20.53-11.52,23.48-5.06,13.37-10.09,36.78,11.53,34.52,12.58-1.31,33.18-21.66,43.57-29.42,20.95-15.65,46.93-33.09,74.26-30.54l3.15-5.05c8.19,15.45,31.32,20.99,45.02,9.01.95-31.82-2.77-64.74-6.63-96.38-2.21-18.07-10.49-47.78-6.15-64.41.89-3.41,2.66-8.86,5.27-11.22,4.14,23.75,8.83,47.7,11.88,71.63,3.09,24.23,3.67,49.71,7.27,73.73,3.82,25.5,10.65,40.51,39.84,31.12,2.8-.9,17.46-7.05,16.93-9.83-.05-.27-2.7-3.68-3.27-4.3ZM657,566.01l-27.99-4.01c-1.45,2.55,7.71,11.65,9.62,13.86,5.56-2.63,11.48-4.97,16.95-7.77,1.04-.53,1.89.53,1.42-2.08ZM528.99,618l-2.45-5.04-9.54-6.95c-1.36,1.41,11.26,12.84,11.99,11.99Z"/><path d="M1133.99,469c-1.37,1.56-8.77-7.72-9.5-8.99l-.52,2.51c2.67,40.1,24.07,97.44,10.8,135.76-4.5,12.99-17.44,34.42-28.84,42.16-4.74,3.22-6.83,1.12-9.41,7.59-4.46,11.18-1.34,25.11,12.87,24.87,15.4-.26,39.29-23.32,51.69-32.31,16-11.6,34.84-22.99,54.92-24.59-3.06-8.6-4.94-17.41-5.99-26.5-4.28-36.95-5.25-75.58-9.01-112.99-1.14-11.27-5.2-27.28-4.83-38.04.16-4.67,4.86-11.32,4.85-16.47l2.94.03c4.63,29.57,7.87,59.64,11.04,89.48,1.57,14.72,1.09,29,4.3,43.7,2.25,10.3,9.09,28.54,20.23,31.78,1.29.38,1.97-.2,1.47-1.47-1-2.55-5.86-8.06-7.53-11.47-6.73-13.72-8.93-27.72.11-40.98,13.96-20.46,39.43-20.9,57.92-6.04,1.19.96,12.95,11.66,6.22,9.79-3.04-.85-6.08-3.27-9.69-4.31-12.96-3.73-25.52-2.04-38.22,1.79-3.81,1.15-13.92,3.68-13.76,8.08.39,10.64,13.63,31.73,22.64,37.48,12.57,8.02,16.82,4.25,29.02-1.66s25.01-12.88,32.83-23.17c-.12,4.55-3.07,11.1-5.68,15.32-9.06,14.63-45.39,34.57-62.43,36.57-14,1.64-23.7-4.88-31.38-15.89,1.22,12.42,9.42,21.36,17.98,29.51,3.73,3.56,11.68,7.62,13.47,12.53,2.17,5.95-3.29,12.25-4.47,17.95-13.78-16.86-27.11-23.06-48.99-16.5-31.46,9.43-48.12,34.49-74.08,49.92-7.94,4.72-15.21,8.85-22.95,1.13-9.95-9.91-11.19-25.32-9.96-38.54-8.17,2.22-16.5,4.23-24.52,6.97-3.53,1.21-7.77,4.04-10.99,5.01-5.51,1.66,3.99-6.3,4.99-7.01,15.8-11.16,32.72-17.36,48-31,22.33-19.94,23.34-29.96,20.4-59.35-3.06-30.63-9.37-66.43-15.17-96.83-1.27-6.65-6.83-23.39-6.74-28.24.08-4.28,3.06-10.31,5-14.08,3.06-2.02,4.83,7.89,5.85,10.21,2.17,4.96,17.53,33.63,15.17,36.32Z"/><path d="M1696.99,464c-1.79,2.05-9.1-9.84-10.98-10,2.85,26.91,10.36,53.63,12.98,80.51,1.82,18.71,1.8,48.47-19.8,56.18-13.16,4.7-19.97-4.58-27.7-4.29-1.69.06-13.54,6.02-17.5,7.08-19.83,5.31-30.62.14-42.98-15.49,1.05,8.01,3.74,16.12,9.5,21.99,3.04,3.1,8.24,5.61,11.5,8.5,9.83,8.68,6.38,11.51,3.98,23.51-8.3-4.78-14.1-11.6-23.99-14.49-36.19-10.57-73.87,40.98-103.79,54.2-14.05,6.21-22.39-1.59-26.48-14.92-6.26-20.39,2.94-37.11,13.17-54.13-10.97-12.37-13.26-27-11.87-43.13,6.63-22.24,9.23-46.37,15.47-68.53.46-1.65,2.93-9.96,4.01-9.97,1.73,1.18,1.56,2.63,1.58,4.47.06,5.79-5.75,21.62-7.39,28.69-4.57,19.59-13.05,44.95-2.87,63.5,11.65,21.21,19.17-1.11,21.19-13.68,1.82.27,1.09,5.18.97,6.48-.58,6.24-6,25.61-9.97,30.03-1.76,1.96-5.03,3.03-7.05,4.95-6.84,6.48-15.06,26.69-14.96,36.04.1,8.63,6.46,16.32,15.34,16.13,11.31-.24,39.02-22.76,49.57-30.21,16.62-11.74,33.11-27.71,55.08-27.42-5.85-26-6.1-52.9-9.12-79.37-1.9-16.66-4-33.34-6-50-1.79-14.93-8.25-30.67.64-44.62,2.35-.55,3.44,5.32,3.98,7,5.54,17.38,9,44.13,11.38,62.62,4.67,36.36-.85,93.11,55.13,80.36-5.49-11.57.2-28.39,7.16-38.33,10.73-15.33,21.86-15.69,26.59,4.09,2.97,12.42-.19,21.34-5.75,32.24,9.52,2,17.31-.55,24.51-6.98,1.01-2.08.65-9.72.48-12.5-1.67-27.04-9.7-58.74-13.86-86.14-1.35-8.85-1.13-17.19-3.61-26.39-.82-3.04-3.52-6.06-3.58-8.45-.11-4.16,4.27-11.19,5.08-15.53.43-.33,1.08.57,1.45,1.03,2.79,3.46,17.06,35.15,18.08,39.92.36,1.69.65,3.31.45,5.04ZM1655.74,543.15c-3.71.73-11.2,9.97-11.51,13.52s7.83,12.28,11.27,12.27c2.43-.01,12.24-5.71,12.52-8.45.42-4.2-6.71-18.43-12.28-17.33Z"/><path d="M882.94,418.04c.73.47,5.68,14.15,6.34,16.18,5.23,15.84,8.1,35.66,9.7,52.3,2.42,25.12,1.42,91.45,15.49,109.51,8.48,10.89,23.23,12.26,34.02,3.98,2.22-1.7,15.32-17.44,17.49-15,.89,7.56-7.82,15.42,3.97,18.52,9.91,2.61,19.01-3.88,25.01-11.05.99-1.18,7.29-12.42,9.02-10.47-.73,5.56-1.21,7.49,2.59,11.92,9.01,10.49,17.02,2.51,22.24-6.6,1.99-3.48,2.57-9.65,6.67-11.33-2.87,12.8,17.36,26.4,27.49,18.49,1.1-.86,1.89-1.49,2.04-3.01.54-5.44-18.58-31.13-22.19-38.8-2.22-4.71-3.41-9.85-5.34-14.66s-5.64-8.33-5.4-13.36c.18-3.8,2.33-8.17,2.91-11.98l2.51-.7,18.47,25.53c-3.11,4.23-5.73-1.92-8.97-1.01,5.12,10.91,13.6,20.31,19.16,30.84,6.17,11.68,5.57,22.21,2.59,34.93-3.83,16.39-20.77,13.42-30.78,4.26-3.54-3.24-4.62-7.42-7.97-10.52-5.01,21.6-22.81,27.56-32.51,5.02-6.4,10.62-15.55,22.7-29.77,19.75-6.43-1.33-13.64-11.28-10.73-17.76-1.67-.39-2.03.52-2.98,1.51-10.51,10.84-16.65,21.72-34.74,15.71-13.75-4.57-18.42-18.11-20.98-31.02-8.38-42.15-4.18-87.86-13.98-130.02-1.83-7.89-9.06-23.13-8.08-29.44.6-3.88,3.54-7.7,3.79-11.73l2.92.03Z"/><path d="M763.99,414c10.47,30.59,14.91,62.38,18.01,94.5,1.91,19.85.17,61.06,13.03,75.97,3.39,3.93,8.68,7.04,14.01,7.08,2.27-10.03,3.35-20.67,8.09-29.93,6.73-13.15,16.94-18.98,23.65-1.9,8.68,22.1-4.31,47.81-28.56,50.47l-.22,8.8c-3,.48-1.61-.72-2.02-2.42-.33-1.37-.73-5.91-1.16-6.39-1.16-1.3-14.06-2.48-19.82-8.69-14.91-16.09-14.49-68.44-17.01-90.99-2.14-19.13-4.68-39.07-9.27-57.73-1.34-5.44-6.59-18.14-6.78-22.3-.16-3.5,3.85-12.14,5.83-15.2.63-.97-.11-1.79,2.23-1.29ZM812,593c5.68.63,22.41-4.95,24.53-10.03,1.35-3.23-6.4-19.44-13.87-16.81-4.59,1.61-11.94,21.35-10.66,26.84Z"/><path d="M1411.22,526.79l10.78,1.21-2.87,12.29c.7,2.5,5.43,3.63,6.85,5.22,3.98,4.46-5.77,5.47-6.85,9.19l2.45,11.36-10.34,2.17-2.19,10.34-10.56-3.31c-3.22,1.13-5.64,9.75-8.93,8.76l-6.26-7.91-11.35,2.44-2.59-10.66-10.36-.91,2.87-12.31-8.85-7.18c8.76-6.91,11.44-6.93,5.02-18.02l11.43-3.52,3.05-10.97,9.84,3.8,8.15-7.86,7.15,7.98,10.81-3.92c2.86.55.42,10.12,2.75,11.79ZM1390.5,516.02l-3.27,4.49c1.85,3.28,4.7,3.28,6.55,0l-3.27-4.49ZM1406.99,525.99l-1.01-5.99-4.95,2.05.94,3.47,5.01.48ZM1379.99,522.02c-.14-.21-4.19-1.44-5.04-.59l-.95,4.57c2.56.98,7.95-.99,5.99-3.98ZM1368.89,531.1l-4.89-.09,1.01,6,4.09-1.7-.21-4.2ZM1412.6,531.09c-3.5,1.1-.4,6.43,1.87,5.9,2.49-.58,4.04-7.76-1.87-5.9ZM1379.3,537.3c-5.11,5.64-4.21,16.32,1.66,21.23,12.04,10.06,29.73-3.76,22.23-18.23-4.43-8.55-17.66-9.88-23.89-3ZM1364.99,544c-1.15.22-6.82,1.66-5.98,3.49,1.74,2.36,6.93,3.98,6.97.08l-.98-3.57ZM1420.85,548.86c1.78-3-4.77-6.75-5.79-3.28-1.4,4.75,4.01,6.29,5.79,3.28ZM1368.99,564c.31-3.24.31-6.75-3.98-5.99l-.99,4.94,4.96,1.05ZM1415.9,558.11c-3.4-2.12-7.11,3.31-3.93,5.46,3.93,2.65,6.88-3.62,3.93-5.46ZM1375.53,568c-2.22.64-2,5.59,0,6,5.3,1.09,5.27-7.52,0-6ZM1405.98,573.99c4.01-8.38-6.96-7.24-4.53-2.02l4.53,2.02ZM1393.99,573.01c-2.39-.76-5-1.48-7.03.54,1.4,6.46,5.56,4.91,7.03-.54Z"/><path d="M1053.99,476c-1.17,1.24-9.63-3.55-11.52-3.98-2.73-.62-.53,1.95.11,2.9,18.56,27.33,73.36,73.69,76.41,104.59.53,5.41,1.36,17.88,1.07,23.03-.09,1.71.06,3.32-1.57,4.45-2.21-21.54-11.75-36.75-24.98-53.01-17.95-22.07-39.22-41.89-55.95-65.05-5.16-7.13-9.59-16.75-14.72-23.28-1.71-2.18-4.89-3.05-6.11-5.92-1.59-3.76,1.41-11.09.26-15.72l2.34.15,32.16,24.85,2.49,7Z"/><path d="M2139.98,429c5.42,15.68,16.91,29.87,19.02,46.49-.44,3.45-8.71-5.11-8.03-7.49l-1.99.5c2.86,21.67,6.48,43.37,8.88,65.12,3.15,28.49,7.82,59.5.11,87.37l-1.99-1.48c-.24-40.03-7.98-79.55-12.87-119.15-1.81-14.66-1.08-33.61-5.84-47.16-1.02-2.91-4.1-6.63-4.25-8.76-.19-2.7,2.98-11.92,4.67-14.21.66-.89.02-1.78,2.28-1.25Z"/><path d="M1094.99,394l-2.24,8.76c-9.65,4.23-19.86,7.71-29.43,12.06-41.38,18.81-108.48,46.48-143.63,72.37-4.36,3.21-10.81,6.37-5.03,11.67,5.74,5.27,14.99,3.49,12.34,15.14-4.78-1.46-15.34-6.54-17.24-11.25-1.53-3.81-1-15.27,1.54-18.46,1.38-1.74,11.16-8,13.78-9.7,30.72-19.91,75.35-39.26,109.25-54.75,19.98-9.13,40.18-17.92,60.67-25.82Z"/><path d="M1155.99,422c4.24,15.5,15.55,29.53,17.02,45.49-4.28,2.13-5.64-4.78-8-7.01-1.26-1.19-1.02-.11-1.03,1.02,2.88,34.64,11.29,70.4,13.02,105,.55,11.08,1.2,33.59-2.48,43.5-1.06,2.86-3.17,5.29-3.51.5-.83-11.46,0-23.18-1-35.01-2.84-33.19-10.06-67.61-13.99-101.01-1.07-9.11-.2-19.45-2.69-28.31-.86-3.05-4.05-6.77-4.32-8.75-.33-2.4,3.33-11.87,4.75-14.15.64-1.03-.05-1.75,2.24-1.27Z"/><path d="M2006.99,370c-.3,2.95,1.2,7-1.58,8.91-39.16,16.11-77.31,34.45-115.16,53.33-2.47,7.13-11.62,30.63-2.26,35.26,6.65,3.29,8.48-5.89,9.89-10.15.9-2.74,1.19-2.39,1.15.15-.06,3.88-4.07,18.1-7.7,19.35-3.72,1.18-6.97-2.11-8.53-5.16-5.58-10.92,2.51-25.53,4.19-36.69l-37.98,19.99c0-2.98-.57-6.49,1.52-8.97.56-.66,11.81-7.11,13.79-8.21,25.9-14.42,53.46-28.1,80.32-40.68,20.51-9.6,41.66-17.96,62.35-27.14Z"/><path d="M2099.99,373l-2.59,8.9c-45.1,19.21-88.59,41.4-132.02,63.98-7.3,3.8-15.15,6.12-22.5,10.5-5.92,3.52-11.14,8.34-16.88,12.12-1.07.71-1.15,2.33-2.51.52-3.93-7.16,8.89-14.48,14.19-17.84,29.28-18.58,66.7-31.36,96.97-49.03l65.35-29.14Z"/><path d="M1536.01,454c-.13-3.52-2.68-10.23-7.04-7.53-5.85,3.63-1.08,33.86-3.8,40.95,6.63,5.82,17.04,13.75,12.82,23.59-5.3-2.6-22.28-.37-23,6.52-.38,3.65,10.22,24.54,12.03,30.96,4.19,14.89,3.65,27.67-.51,42.52-1.48,5.3-4.13,12.58-8.5,15.99,2.06-7.88,6.72-14.94,8.52-22.97,2.92-13,.86-22.37-3.49-34.58-6.02-16.9-24.91-43.25,5.95-47.95-1.54-1.18-3.46-4.52-5.49-4.54-4.04-.03-2.04,5.67-5.5,5.02,1.34-2.71.84-5.8,1.91-8.57.7-1.8,3.07-3.26,2.94-4.73-.09-.98-5.37-12.84-6.33-14.71-1.12-2.19-5.17-9.4-7.23-9.88s-3.01,1.72-4.61,1.71c-.73,0-11.28-2.84-11.71-3.27-2.38-2.4-1.79-14.66,3.58-15.54,11.16-1.83,24,21.73,25.95,31.02,1.27-7.67-1.4-36.89,6.52-40.5s13.79,12.37,6.99,16.49Z"/><path d="M697.74,447.74c-23.88,10.03-48.39,18.77-71.49,30.51-1.23,10.76-12.47,26.2-3.7,35.7,6.86,7.43,10.53-4.92,10.46-10.44,1.34-1.65,1.08,1.21,1.04,2.02-.37,7.2-4.6,27.59-13.9,15.82-9.73-12.31.7-27.56,2.84-40.35-1.42-.3-2.46.33-3.71.78-6.46,2.34-19.85,9.99-26.31,13.69-3.89,2.23-7.63,4.5-10.97,7.52l.2-9.8c21.68-11.45,43.31-23.86,65.81-33.69,16.6-7.25,34.44-12.14,50.49-20.51l-.77,8.73Z"/><path d="M421.01,459l.92-9.57c44.31-31.23,94.62-52.84,144.06-74.43.39.51-.71,6.32-1.21,7.28-1.75,3.35-37.34,16.86-43.99,20.01-19.02,9-40.36,20.03-58.81,30.19-14.19,7.82-28.18,16.66-40.97,26.52Z"/><path d="M991.01,639c1.93-.38,3.05,1.41,3.53,2.95,4.49,14.2-8.67,26.67-20.18,14.11-1.74-.31-4.15,3.86-6,4.81-6.14,3.16-11.07-.34-16.88-.86-18.74-1.67-38.11,20.7-56.23,27.75-8.17,3.18-22.23,7.39-30.25,2.73,3.3-3.29,8.53-2.94,12.76-4.22,6.87-2.08,13.94-4.48,20.43-7.57,14.44-6.88,39.41-28.98,54.28-27.73,3.65.31,7.65,2.79,11.14,2.96,10.1.5,12.47-12.07,15.87-11.92,3.77.17-1.62,6.77-.07,8,.93,1.48,8.28,2.96,9.61,2.43,3.85-1.52.09-4.74.04-6.94-.05-2.02,1.89-4.36,1.93-6.52Z"/><path d="M467,480c-3.05.16-2.43-4.25-5.06-6.43-6.74-5.57-9.46,5.93-9.92,10.94-.82,9.07,1.84,18.07-.1,26.91,7.64,3.53,16.25,13.65,11.99,22.49-3.97-.53-18.49-2.81-18.96,2.57-.29,3.34,8.48,21.66,9.75,28.3,1.02,5.37,1.98,12.32,1.3,17.72-.19,1.46-.76,3.09-2,1.48,3.3-16.37-14.65-35.12-11.56-50.06,1.16-5.6,6.5-13.5,7.08-20.01-.44-2.34-10.18-19.36-12.07-20.88-7.24-5.83-22.09,3.35-12.34-18.9,4.35-2.66,13.45,10.55,15.5,13.73,3.5,5.43,6.01,11.39,8.87,17.12,2.32-1,.37-13.52.47-16.54.1-3.24.66-9.75,1.15-12.85,3.25-20.59,20.05-12.29,15.89,4.39Z"/><path d="M1872.99,361c.07,3.25-.6,7.1-3.64,8.85-36.48,16.12-71.5,35.02-107.03,52.97l-17.32,10.17c-1.46-8.52,3.12-10.4,9.32-14.17,14.73-8.96,34.87-18.48,50.64-26.36,22.34-11.15,45.1-21.58,68.02-31.47Z"/><path d="M636.01,424c-.34-4.18-.08-6.58,3.06-9.43,4.36-3.97,23.2-12.57,29.56-15.44,25.57-11.52,53.81-22.62,80.35-31.65,2.08-.71,4.03-2.06,5.98-3.05l1.95,1.19c.43,2.73-.06,5.71-2.6,7.19-8.09,4.71-24.59,8.74-34.29,12.71-16.65,6.8-32.87,14.87-49.69,21.31l-34.32,17.17Z"/><path d="M1947.7,685.73c-4.71,4.07-17.74-9.31-22.26-11.74-1.24-2.32,6.11-14.54,8.2-14.88,4.22,1.01,15.8,11.98,18.9,11.9,3.38-.08,7.48-15.23,10.79-14.91,1.11.11,17.71,11.84,18.21,12.93,1.42,3.13-5.27,11.88-7.14,14.89l-18.88-11.93c-1.22.29-5.78,11.98-7.82,13.74Z"/><path d="M1631.74,507.73c-.95.94-2.38,1.24-3.68.78-1.2-.43-17.64-12.1-17.96-13.16l6.92-15.34,19.37,12.95,11.11-17.92c3.64,2.99,19.85,11.34,19.02,16.04-.39,2.22-5.79,13-8,12.99l-18.02-12.95c-2.75,0-6.53,14.43-8.75,16.63Z"/><path d="M1730.01,397c.99-4.74-5.48-6.83-8-11-.95,4.94-5.46,11.34-11.06,10.57-3.85-.53-5.74-4.2-10.46-3.68-2.55.28-3.52,5.4-6.49,5.11-1.44-1.75,6.79-12.33,9.28-13.26,4.24-1.59,12.66,8.15,16.24,2.28,2.9-4.77-9.59-22.43-3.02-29,2.56,7.54,8.02,26.6,17.24,27.85,2.75.38,11.69-9.55,14.77-11.84,18.1-13.4,25.55,6.7,11.41,16.41-4.25,2.92-14.29,5.38-19.43,5.63-4.28.21-7.2-2.39-10.5.93ZM1761.99,382.98c.02-6.91-8.53-6.24-13.32-3.8-1.93.99-10.26,6.51-8.67,8.81,7.74-1.18,14.7-1.85,21.98-5.02Z"/><path d="M1853.99,657c-2.58.54-3.76-2.11-6.22-1.86-7.56.78-7.06,4.54-.77,7.36,11.71,5.27,9.92-4.46,19-6.5.48,12-19.28,17.31-17.01,29.48.59,3.16,6.6,4.37,9.55,4.53,16.34.91,39.96-16.65,50.97-28.01.76-.14.63.95.51,1.51-.38,1.81-8.22,12.32-9.98,14.03-6.28,6.1-26.56,18.47-34.99,20.01-23.75,4.34-21.93-7.66-15.2-25.08-.17-1.65-12.34-1.32-11.91-10.95.47-10.48,21.21-23.68,16.06-4.52Z"/><path d="M1150.01,405c1-8.21,6.22-9.76-2.52-15.99-5.16,16.58-14.16,4.63-19.86,5.24-4.04.43-7.27,8.22-11.63,8.75-.63-.65,6.62-10.8,7.58-11.91,8.97-10.39,9.72-1.7,16.98-1.11,10,.81.75-13.63.4-18.49-.19-2.73.32-4.92,1.04-7.47,5.96,7.42,6,18.53,15.65,22.89,1.62.25,6.27-8.5,8.3-10.44.95-.91,6.11-4.58,7.08-4.92,6.03-2.07,14.82-.05,13.76,7.69-1.77,12.89-20.03,16.44-30.81,17.26l-5.98,8.51ZM1181,380.01c-7.6-2.77-15.87.42-18.99,7.99,1.18,1.04,14.63-3.57,16.69-4.8,1.35-.8,2.69-1.2,2.3-3.19Z"/><path d="M576.02,641l18.87,14.71c.48,1.89-6.9,12.76-8.57,13.2-1.32.5-1.93-.31-2.86-.86-2.42-1.42-13.92-11.7-14.94-11.79-5,1-8.18,15.77-13,15.75l-17.46-12.65,8.54-14.29c2.61-.64,14.74,12.67,18.33,11.47,3.83-1.29,9.01-11.7,11.09-15.54Z"/><path d="M2124.98,381c1.04,4.7,7.02,17.65,11.72,18.89,2.72.72,6.16-4.67,8.29-6.41,3.35-2.73,9.54-7.98,13.63-8.42,12.31-1.35,14.18,6.92,7.8,15.85-4.29,6.01-12.58,9.72-19.88,10.12-5.32.29-9.58-1.87-14.53-.04.29-2.96.07-5.23-2.51-6.98-3.47,4.84-6.17,8.96-12.93,7.94-2.45-.37-3.85-2.28-6.98-1.97-2.88.29-3.91,2.94-6.59,3-1.98-2.12,6.54-10.93,8.97-11.6s4.86,2.13,7.6,2.55c12.96,1.98,2.48-10.79,2.42-16.43,0-.8.83-8.55,2.99-6.51ZM2143,401.99c2.64,2.51,19.41-1.59,21.98-5.49-7.63-7.61-17.02-1.98-21.98,5.49Z"/><path d="M1617.99,638c.07,2.87-.52,6.72-3.04,8.45-31.76,13.92-65.82,24.34-93.96,45.06l-1.99-1.03c1.28-2.43.29-5.89,2-7.98,1.1-1.34,13.42-8.57,15.98-10.02,25.06-14.17,54.41-23.48,81.01-34.48Z"/><path d="M2099.99,636l-1.22,7.27-70.08,34.92-18.69,11.8c-1.3-3.3-.95-6.31,1.43-9.06,1.05-1.21,12.06-8.46,14.24-9.76,22.79-13.54,50.31-23.73,74.32-35.17Z"/><path d="M1621,368.01l-3.02,8.47c-28.84,14.15-58.11,27.91-84.97,45.52-.42-2.38-1.11-6.65.26-8.73.41-.62,10.67-7.01,12.42-8.07,17.4-10.58,41.32-22.36,59.95-31.05,2.05-.96,14.62-6.85,15.35-6.14Z"/><path d="M1695.75,649.76c-29.45,12.38-60.97,21.51-87.74,39.24.02-3.56-.8-6.05,1.43-9.06,2.06-2.79,14.98-9.26,18.89-11.11,21.97-10.42,46.31-17.09,68.18-27.8,3,2.08.23,5.99-.76,8.73Z"/><path d="M1312.99,448l-2.59,7.9c-24.68,13.33-55.54,23.09-77.73,40.27-2.43,1.88-3.06,4.67-5.67,4.82.23-2.91-.66-6.16.52-8.97,2.58-6.15,43.79-25.97,52.12-29.88,10.89-5.11,21.94-10.42,33.35-14.14Z"/><polygon points="1259.77 379.77 1230.12 393.62 1178.01 422 1179.65 412.9 1229.32 385.82 1261.51 371.01 1259.77 379.77"/><path d="M787.01,463.99c-.93-7.18.23-8.06,5.65-11.84,18.32-12.75,44.25-23.61,64.55-33.45,1.93-.94,9.15-6.77,9.65-3.25-.92,1.67-.63,3.88-1.41,5.5-1.6,3.32-36.21,19.18-42.48,22.52l-35.97,20.52Z"/><path d="M1591.01,472.99c.25-2.24-.54-5.28.16-7.33.51-1.48,20.4-13.72,23.51-15.49,14.79-8.38,30.92-14.53,45.26-23.78,2.67-1.38,3.84,2.97,3.75,4.94-.26,5.53-4.19,4.44-7.69,6.16-11.35,5.57-23.99,11.89-35.02,17.98-10.14,5.6-19.34,12.81-29.97,17.52Z"/><path d="M1246.01,432c-.8,11.02-12.05,13.7-18.01,4.5-1.43-2.2-3.86-17.89-3.8-21.02.05-2.56,1.58-4.95,1.81-7.48,5.88,5.95-.94,23.54,10.58,24.98,13.36,1.67,6.11-13,5.42-19.49-.12-1.15-.96-7.3,1.48-6.5,4.36,9.33,4.46,22.72,17.05,24.86,5.36-.79-5.02-12.59-5.75-14.14-2.48-5.28-1.72-10.23-.78-15.71,2.63,1.26,1.99,5.27,3.25,8.24,1.69,4.01,6.56,7.74,7.52,12.48,1.8,8.89-.49,23.77-12.13,15.13-2.34-1.74-3.22-5.94-6.64-5.86Z"/><path d="M987,388.5c.29-2.48,3.45-11.93,4.95-13.79,4.59-5.68,12.85,2.94,13.12,8.8.05,1.06-.86,8.64-3.05,6.48.24-3.81-7.34-10.91-10.12-7.37-5.69,7.25-1.42,31.92-2.96,41.81-.28,1.81-1,3.36-2.44,4.54-1.74,0-11.15-21.59-13.98-25-4.84-5.83-10.35-5.16-17.09-6.91-3.55-20.79,6.17-15.48,15.59-4.59,7.04,8.14,9.88,18.09,15.97,26.53.83-9.67-1.12-21.06,0-30.5Z"/><path d="M871,455.01l-3.61,8.88c-24.03,12.88-49.55,23.15-72.38,38.11-2.01-8.28.61-8.97,6.68-12.81,17.25-10.91,45.96-24.73,64.92-33.08,1.44-.63,2.72-1.38,4.39-1.1Z"/><path d="M1795.01,445c.67,8.09-6.52,17.82-14.53,11.02-6.01-5.11-3.86-11.02-4.54-17.46-.4-3.83-3.29-7.15-.94-12.56h2.99c1.17,5.8-.79,26.53,10.04,23.59,11.81-3.21-.26-21.6,3.97-29.58,7.12,8.62,3.28,28.32,18.99,26.99-1.64-5.71-6.11-10.57-6.92-16.58-.42-3.09-1.15-10.71,1.91-12.41-.81,12.22,11.44,21.59,7.8,34.29-1.91,6.64-11.49,3.12-14.81-.76-1.84-2.15-1.43-5.29-3.96-6.53Z"/><path d="M510,520.5c.45-3.79,4.1-15.14,8.55-15.55,5.3-.48,14.61,17.14,6.46,19.05-.66-3.89-3.16-7.02-6.02-9.55l-2.54.48c-5.35,4.25-3.54,28.82-4.4,36.62-.51,4.63-1.82,4.13-4.28,1.18-4.09-4.88-8.15-17.62-13.05-21.44-2.69-2.1-9.44-1.69-12.78-2.73-1.8-1.22-1.74-14.53,1.7-15.5,7.25-2.04,22.36,26.73,26.36,31.94.66-7.78-.9-16.9,0-24.5Z"/><path d="M1804,703c-1.45.2-1.54-2.72-1.72-3.78-2.44-14.8-12.94-27.92-12.32-40.77.32-6.71,2.03-6.67,3.78-11.21,2.39-6.24,5.97-21.49,14.76-15.23,6.24,4.44,13.03,13.65,7,20.97-3.18-4.79-20.93-.39-22.33,3.69-.66,1.91-.21,4.42.31,6.37,1.36,5.13,10.52,19.27,10.52,23.47v16.5ZM1807,642.99c-1.87-6.63-9.67-4.43-9.99,2l9.99-2Z"/><path d="M1757.01,509c-1.01-4.32-1.46-7.07,2.04-10.45,2.84-2.75,14.66-8.7,18.93-11.07,13.75-7.61,28.55-13.33,42.01-21.48-.2,3.31,1.19,7.44-2.04,9.45-20.05,11.61-41.81,20.41-60.94,33.55Z"/><path d="M2064.01,431c.08,8.17-7.6,20.49-15.71,11.7-4.1-4.44-2.84-10.74-3.41-16.09-.48-4.5-3.9-10.03,1.09-13.6,1.67,1.23-.92,29.22,11.77,23.27,9.5-4.45,1.5-18.59,3.25-26.27,2.98-.52,1.58.79,2.1,2.34,3.04,9.03,4.68,21.98,16.89,21.65.93-.85-6.27-12.11-6.76-14.72-.53-2.87-1.1-9.5,1.75-11.26.18,6.07,4.79,10.48,6.48,16.02,2.35,7.68,2.11,22.87-9.36,17.37-5.77-2.76-4.49-6.58-8.1-10.4Z"/><path d="M596,431.5c.67-7.13,5.94-23.57,14.55-14.54,4.07,4.27,3.86,8.74,2.45,14.05l-7.7-7.86c-6.15-1.6-6.96,9.25-7.28,13.38-.74,9.44,1.18,19.19-1.02,28.48-1.79.39-1.97-.53-2.83-1.66-7.06-9.27-6.56-24.31-23.2-23.8-5.23-24,9.49-11.08,16.46-.46,3.26,4.98,4.78,11.37,8.59,15.91.52-7.59-.71-16.01,0-23.5Z"/><path d="M474.99,684.99l-3.5-15.99c-1.31-8.2-8.56-16.37-8.56-24.51,0-9.44,4.46-14.52,14.07-13.51.3-2.37-1.47-3.1-3.5-3.09-3.49.01-3.72,3.65-6.49,2.61,1.8-5.06,8.06-14.36,14.02-9.03,4.44,3.97,11.16,14.67,4.48,19.42-2.57-3.05-18.59-2.62-19.42.69,5.47,13.98,12.93,27.87,8.9,43.41Z"/><path d="M1031.98,637.99c-5.08-2.32-5.44-5.54-11.98-2.98,1.87,11.48,17.32,11.54,26,7.99-.3,9.61-7.8,8.9-14.35,12.14-2.57,1.27-13.68,8.62-15.64,6.85-.09-5.22,4.73-7.23,8.99-9.01-8.99-5.88-14.3-11.5-5.84-21.33,8.12-9.43,20.19-5.64,12.83,6.34Z"/><path d="M506.99,447c-2.84,9.81,8.9,14.74,12.82,22.68,5.48,11.09-.26,17.54-11.57,19.05-23.48,3.15-6.96-28.55-3.35-39.39.52-1.56-.88-2.86,2.1-2.34ZM516.99,477.98c.33-1.52-.15-2.33-.94-3.53-.99-1.52-9.13-10.5-10.54-11.46-.84-.58-.98-1.39-2.5-.99-.25,4.53-6.36,12.45-3.1,16.59,3.48,4.43,12.67.55,17.08-.61Z"/><path d="M877.99,352.01c.58,2.31-2.01,5.09-1.44,7.01,1.02,3.44,10.62,10.88,13.26,15.66,5.22,9.43.19,18.74-10.41,20.23-27.48,3.84-8.38-29.16-3.67-40.71.61-1.5-.6-2.71,2.25-2.2ZM873.5,366.02c-10.26,14.31-6.46,26.48,12.49,18.47l.99-1.06c1.05-3.41-11.73-13.67-13.48-17.41Z"/><path d="M1957.01,463.01c1.69.45,1.26,3.13,2.53,4.96,3.57,5.16,12.91,10.4,14.23,16.76,2.11,10.16-2.17,17.49-12.53,19.01-26.76,3.93-5.6-28.67-4.23-40.73ZM1956.5,475.02c-1.69,3.6-7.48,14.19-5.43,17.33,2.59,5.17,19.17,2.26,19.88-1.97l-14.45-15.36Z"/><path d="M982.01,478c6.66,9.29,23.88,15.71,18.23,29.74-3.39,8.42-21.47,10.82-23.81,1.32-2.64-10.7,4.18-20.81,5.58-31.07ZM994.64,499.36c-3.2-3.48-8.75-6.81-12.14-10.34l-4.35,13.29c1.35,5.51,15.02,4.05,18.85,1.67.56-.77-1.68-3.89-2.36-4.63Z"/><path d="M997.49,537.03c3.15,3.28,17.48,8.85,19.02,11.96,2.06,4.18-2.16,12.62-5.11,15.93l-20.28-11.59c-1.49-2.64,5.23-16.22,6.37-16.3Z"/><path d="M680,467c-.92,9.88,15.1,14.06,16.58,22.97,2.1,12.71-6.57,16.8-18.02,14.97-13.05-2.09-3.93-20.79-1.85-27.73.86-2.87.81-5.91,1.33-8.7.3-1.64-.65-1.72,1.96-1.51ZM693,494.99c.95-1.29-4.8-6.39-5.98-7.5-1.09-1.02-8.31-7.11-9.01-6.48.21,5.01-6.06,10.43-1.09,14.59,4.1,3.44,11.37.44,16.08-.6Z"/><path d="M1665.17,608.18c3.24-1.92,17.31,10.29,19.63,13.46l-8.4,14.33-18.23-14.6,7.01-13.18Z"/><path d="M2015.21,462.8c-1.49-2.55,3.51-16.42,5.35-16.79,3.27,2.73,19.52,8.55,20.3,11.68.45,1.81-5.52,15.23-6.35,15.29l-19.3-10.18Z"/><path d="M1674.71,390.73c-6.72,8.45-23.29,3.39-20.73-9.19l11.52-31.53c2.23,3.65-2,8.94-1.3,12.26.98,4.71,11.72,10.5,12.61,18.5.23,2.02-.92,8.47-2.1,9.96ZM1672,384.99c-.45-6.62-7.77-9.49-10.5-14.99-8.26,10.99-2.93,18.92,10.5,14.99Z"/><path d="M853.99,530l-19.9-13.66c-.52-1.77,5.68-15.24,7.41-15.23,3.72,3.67,16.11,8.68,17.78,13.18,1.38,3.74-4.62,11.68-5.28,15.71Z"/><path d="M907.98,388.01c1.31,3.97,6.61,6.02,9.55,8.96,16.47,16.45,21.13,41.06,19.47,63.54-.12,1.58-.71,2.97-1.01,4.48l-1.98-11.5c1.29-15.74-4.74-33.08-15.04-44.96-2.48-2.87-13.08-10.72-13.48-11.52-1.12-2.3-1.48-9.48,2.48-9Z"/><path d="M1044.99,662c.22,2.33-.87,6.56-2.71,8.05-3.1,2.51-15.48,6.96-20.31,9.43-6.38,3.27-12.48,7.46-18.97,10.52-.43-6.4,1.04-7.6,5.69-10.8,3.32-2.29,34.94-18.69,36.29-17.19Z"/><path d="M813,414.5c-.78-5.51-6.94-16.97-10.19-21.81-2.71-4.04-12.13-13.14-13.29-15.71s-.27-6.15-.51-8.98c2.34-.65,1.69.6,2.28,1.27,6.93,7.86,23.71,27.67,23.71,38.22v23c0,.6-1.39,2.25-1.01,3.49h-.99c-.61-6.09.84-13.61,0-19.49Z"/><path d="M1067.81,434.22c5.8,6.73,12.27,13.08,16.37,21.1,6.97,13.68,6.64,30.8.32,44.67-.48-4.34,2.06-8.2,2.5-12.51,1.27-12.56-4.02-26.32-12.14-35.84-5.17-6.07-13.32-7.37-9.85-17.66l2.81.22Z"/><path d="M1810.72,540.72c1.89-1.89,2.02-6.28,2.81-8.73.55-1.74.1-2.38,2.47-1.98-1.34,6.64-5.71,29.14-15.52,18.01-8.56-9.72-2.45-33.43,1.02-45.02.65-2.17,1.2-4.43,3.01-5.99.56,14.31-14.27,35.6,1.99,45.63.7,0,3.69-1.37,4.23-1.92Z"/><path d="M955.7,547.69c2.28-2.15,3.53-10.61,4.8-10.67,1.94-.09,1.04,2.56.71,3.67-1.79,5.91-6.95,23.72-15.23,14.82-12.9-13.88,3.24-39.75,5.03-55.51,1.97,0,.91,4.09.73,5.23-1.5,9.7-8.75,23.48-7.77,32.29.62,5.57,5.33,16.18,11.72,10.16Z"/><path d="M1189.99,487.01c3.1,13.07-9.23,31.28-.88,42.38,5.87,7.8,8.57-11.17,9.87-9.38,1.8,8.05-6.69,29.88-13.88,14.39-5.83-12.55,1.75-22.59,1.92-33.94.06-4.06-3.47-11.91,2.96-13.44Z"/><path d="M1618,412c3.3-1.05,2.1,5.49,1.76,7.27-.48,2.44-5,12.16-6.77,13.26-4.91,3.04-9.92-6.09-11.04-9.97-2.52-8.75,2.28-25.92,7.55-33.53,2,1.18.72,4.55.21,6.19-3.43,11.2-11.42,21.29,2.75,29.78,2.99-3.69,6.17-7.93,5.54-13Z"/><path d="M1299.99,466.01c.53,6.84-6.78,22.39-5.55,28.03,2.57,11.75,13.41,7.71,13.56-3.03,2.61-.4,2.05.47,2.03,2.53-.07,9.37-9.37,24.6-16.91,10.84-4.28-7.81.73-24.86,3.37-33.37.55-1.78.86-5.75,3.49-5Z"/><path d="M2092.01,513.01c1.75,0,1.1,4.38,1.03,5.53-.63,9.09-6.35,23.51-14.24,10.17-8.29-14.01,3.43-35.59,4.22-50.7,1.82.27,1.09,5.18.97,6.48-.89,9.67-11.17,32.5-.55,39.58,6.45,4.3,8.74-6.41,8.58-11.06Z"/><path d="M717.99,668c-.18,5.13-8.76,20.43-14.57,16.07-1-.75-3.91-6.43-4.2-7.8-2.09-10.12,3.05-16.51,6.55-25,1.56-3.79,1.18-8.55,4.73-11.27.5,11.38-9.52,18.46-7.06,30.05.57,2.69,2.4,7.34,5.82,6.81l8.72-8.87Z"/><path d="M1949.26,594.75l2.24.87c4.89-1.46,6.87-6.39,7.51-11.11,1.33-1.65,1.12,1.2,1,1.98-.72,5.03-5.85,22.45-13.04,16.03-6.89-6.15-4.96-17.23-2.91-24.96,1.27-4.79,3.89-14.07,5.67-18.33.52-1.24.54-2.95,2.26-3.23-.05,14.03-12.89,25.53-2.73,38.75Z"/><path d="M1902.01,386l1.84,1.33c-1.75,8.12-10.26,27.01-16.31,10.65-4.24-11.47,5.03-23.35,9.66-33.28,1.49-3.2,1.51-8.53,4.79-10.7-.02,12.55-17.6,27.69-9.85,39.36,4.94,7.44,9.91-1.92,9.87-7.36Z"/><path d="M1037.26,386.73c4.72,4.24,8.96-1.69,9.74-6.24,1.52-1.38,1.08,1.01.92,1.92-.54,3.04-3.56,12.47-6.6,13.39-6.14,1.86-8.81-2.31-9.7-8-1.34-8.66,7.76-22.11,9.88-30.8,2.19.85.25,5.2-.22,6.78-1.7,5.8-9.68,17.86-4.02,22.94Z"/><path class="cls-1" d="M657,566.01c.46,2.61-.38,1.55-1.42,2.08-5.47,2.8-11.39,5.14-16.95,7.77-1.91-2.21-11.07-11.31-9.62-13.86l27.99,4.01Z"/><path class="cls-1" d="M528.99,618c-.72.85-13.35-10.58-11.99-11.99l9.54,6.95,2.45,5.04Z"/><path class="cls-1" d="M1655.74,543.15c5.57-1.1,12.7,13.13,12.28,17.33-.28,2.74-10.09,8.44-12.52,8.45-3.44.01-11.58-8.8-11.27-12.27s7.8-12.78,11.51-13.52Z"/><path class="cls-1" d="M812,593c-1.27-5.49,6.08-25.23,10.66-26.84,7.47-2.63,15.22,13.58,13.87,16.81-2.12,5.08-18.85,10.66-24.53,10.03Z"/><path class="cls-1" d="M1379.3,537.3c6.23-6.88,19.47-5.55,23.89,3,7.5,14.48-10.2,28.29-22.23,18.23-5.88-4.91-6.77-15.6-1.66-21.23Z"/><path class="cls-1" d="M1415.9,558.11c2.95,1.84,0,8.11-3.93,5.46-3.18-2.14.53-7.58,3.93-5.46Z"/><path class="cls-1" d="M1364.99,544l.98,3.57c-.04,3.9-5.23,2.27-6.97-.08-.84-1.83,4.84-3.27,5.98-3.49Z"/><path class="cls-1" d="M1420.85,548.86c-1.78,3.01-7.19,1.47-5.79-3.28,1.02-3.47,7.57.28,5.79,3.28Z"/><path class="cls-1" d="M1390.5,516.02l3.27,4.49c-1.85,3.28-4.7,3.28-6.55,0l3.27-4.49Z"/><path class="cls-1" d="M1405.98,573.99l-4.53-2.02c-2.43-5.22,8.54-6.36,4.53,2.02Z"/><path class="cls-1" d="M1393.99,573.01c-1.47,5.45-5.63,7-7.03.54,2.03-2.03,4.63-1.3,7.03-.54Z"/><path class="cls-1" d="M1412.6,531.09c5.91-1.85,4.36,5.33,1.87,5.9-2.27.53-5.37-4.81-1.87-5.9Z"/><path class="cls-1" d="M1375.53,568c5.27-1.52,5.3,7.09,0,6-2-.41-2.22-5.36,0-6Z"/><polygon class="cls-1" points="1368.89 531.1 1369.1 535.3 1365.01 537 1364 531 1368.89 531.1"/><polygon class="cls-1" points="1406.99 525.99 1401.98 525.52 1401.04 522.05 1405.99 520 1406.99 525.99"/><path class="cls-1" d="M1379.99,522.02c1.97,2.98-3.43,4.95-5.99,3.98l.95-4.57c.85-.84,4.9.38,5.04.59Z"/><path class="cls-1" d="M1368.99,564l-4.96-1.05.99-4.94c4.29-.77,4.28,2.75,3.98,5.99Z"/><path class="cls-1" d="M1761.99,382.98c-7.29,3.17-14.24,3.84-21.98,5.02-1.6-2.31,6.74-7.83,8.67-8.81,4.78-2.44,13.34-3.12,13.32,3.8Z"/><path class="cls-1" d="M1181,380.01c.39,1.99-.94,2.39-2.3,3.19-2.07,1.23-15.51,5.84-16.69,4.8,3.12-7.56,11.39-10.76,18.99-7.99Z"/><path class="cls-1" d="M2143,401.99c4.96-7.47,14.34-13.1,21.98-5.49-2.57,3.9-19.34,8-21.98,5.49Z"/><path class="cls-1" d="M1807,642.99l-9.99,2c.32-6.43,8.12-8.63,9.99-2Z"/><path class="cls-1" d="M516.99,477.98c-4.41,1.16-13.6,5.04-17.08.61-3.26-4.15,2.85-12.06,3.1-16.59,1.52-.41,1.66.41,2.5.99,1.4.96,9.55,9.94,10.54,11.46.79,1.21,1.27,2.01.94,3.53Z"/><path class="cls-1" d="M873.5,366.02c1.75,3.74,14.53,14,13.48,17.41l-.99,1.06c-18.94,8.01-22.74-4.16-12.49-18.47Z"/><path class="cls-1" d="M1956.5,475.02l14.45,15.36c-.71,4.23-17.29,7.14-19.88,1.97-2.05-3.14,3.74-13.73,5.43-17.33Z"/><path class="cls-1" d="M994.64,499.36c.68.74,2.92,3.86,2.36,4.63-3.83,2.38-17.5,3.84-18.85-1.67l4.35-13.29c3.39,3.53,8.94,6.85,12.14,10.34Z"/><path class="cls-1" d="M693,494.99c-4.71,1.04-11.98,4.03-16.08.6-4.97-4.16,1.3-9.58,1.09-14.59.7-.63,7.92,5.46,9.01,6.48,1.18,1.11,6.93,6.22,5.98,7.5Z"/><path class="cls-1" d="M1672,384.99c-13.42,3.93-18.76-4-10.5-14.99,2.72,5.5,10.04,8.36,10.5,14.99Z"/></svg>